<?xml version="1.0" encoding="UTF-8" standalone="no"?>
<!-- Created with Inkscape (http://www.inkscape.org/) -->

<svg
   xmlns:dc="http://purl.org/dc/elements/1.1/"
   xmlns:cc="http://creativecommons.org/ns#"
   xmlns:rdf="http://www.w3.org/1999/02/22-rdf-syntax-ns#"
   xmlns:svg="http://www.w3.org/2000/svg"
   xmlns="http://www.w3.org/2000/svg"
   xmlns:xlink="http://www.w3.org/1999/xlink"
   xmlns:sodipodi="http://sodipodi.sourceforge.net/DTD/sodipodi-0.dtd"
   xmlns:inkscape="http://www.inkscape.org/namespaces/inkscape"
   width="15.352947mm"
   height="13.819357mm"
   viewBox="0 0 15.352947 13.819357"
   version="1.1"
   id="svg9303"
   inkscape:version="0.92.1 r15371"
   sodipodi:docname="jumpstation.svg">
  <defs
     id="defs9297">
    <inkscape:path-effect
       effect="envelope"
       id="path-effect9900"
       is_visible="true"
       yy="true"
       xx="true"
       bendpath1="m 111.8702,135.43954 c 0,0 9.37132,-0.7956 15.6784,0"
       bendpath2="m 127.5486,135.43954 v 2.36884"
       bendpath3="m 111.8702,137.80838 c 0,0 12.49049,1.14469 15.6784,0"
       bendpath4="m 111.8702,135.43954 v 2.36884"
       bendpath1-nodetypes="cc"
       bendpath3-nodetypes="cc" />
    <linearGradient
       inkscape:collect="always"
       id="linearGradient9865">
      <stop
         style="stop-color:#f9fff9;stop-opacity:1"
         offset="0"
         id="stop9861" />
      <stop
         id="stop9871"
         offset="0.5597623"
         style="stop-color:#34d02c;stop-opacity:1" />
      <stop
         style="stop-color:#008e00;stop-opacity:1"
         offset="1"
         id="stop9863" />
    </linearGradient>
    <radialGradient
       inkscape:collect="always"
       xlink:href="#linearGradient9865"
       id="radialGradient9869"
       cx="127.81058"
       cy="147.9368"
       fx="127.81058"
       fy="147.9368"
       r="3.9254081"
       gradientTransform="matrix(1.5610979,-0.32108932,0.33654952,1.5720674,-134.20324,-41.651448)"
       gradientUnits="userSpaceOnUse" />
  </defs>
  <sodipodi:namedview
     id="base"
     pagecolor="#ffffff"
     bordercolor="#666666"
     borderopacity="1.0"
     inkscape:pageopacity="0.0"
     inkscape:pageshadow="2"
     inkscape:zoom="7.9195959"
     inkscape:cx="9.7963189"
     inkscape:cy="39.773264"
     inkscape:document-units="mm"
     inkscape:current-layer="layer1"
     showgrid="false"
     inkscape:window-width="3440"
     inkscape:window-height="1377"
     inkscape:window-x="1072"
     inkscape:window-y="127"
     inkscape:window-maximized="1" />
  <metadata
     id="metadata9300">
    <rdf:RDF>
      <cc:Work
         rdf:about="">
        <dc:format>image/svg+xml</dc:format>
        <dc:type
           rdf:resource="http://purl.org/dc/dcmitype/StillImage" />
        <dc:title></dc:title>
      </cc:Work>
    </rdf:RDF>
  </metadata>
  <g
     inkscape:label="Layer 1"
     inkscape:groupmode="layer"
     id="layer1"
     transform="translate(-108.70409,-138.78815)">
    <ellipse
       style="opacity:1;fill:url(#radialGradient9869);fill-opacity:1;stroke:#00f606;stroke-width:0.13314718;stroke-miterlimit:4;stroke-dasharray:none;stroke-opacity:1;paint-order:fill markers stroke"
       id="path9859"
       cx="116.41261"
       cy="147.45433"
       rx="5.2118864"
       ry="5.0866041" />
    <g
       aria-label="JUMP STATION"
       transform="matrix(0.97200266,0,0,1.0288038,0.11693042,0.08352173)"
       style="font-style:normal;font-variant:normal;font-weight:normal;font-stretch:normal;font-size:2.87563896px;line-height:1.25;font-family:impact;-inkscape-font-specification:impact;letter-spacing:0px;word-spacing:0px;fill:#f2f200;fill-opacity:1;stroke:#0a290a;stroke-width:0.1;stroke-miterlimit:4;stroke-dasharray:none;stroke-opacity:1"
       id="text9875"
       inkscape:path-effect="#path-effect9900">
      <path
         d="m 112.56532,135.31384 c 0.0349,0.34664 0.0138,1.24883 0.017,1.55795 0.003,0.23815 0.003,0.36848 -0.002,0.44498 -0.004,0.066 -0.0259,0.12587 -0.065,0.17917 -0.0382,0.0533 -0.0906,0.0898 -0.15685,0.1095 -0.0156,0.004 -0.0332,0.008 -0.0527,0.0115 0,0 0,0 0,0 -0.0618,0.0102 -0.14243,0.0141 -0.24238,0.0119 9e-5,0 -0.0721,-0.002 -0.072,-0.002 3e-4,0 -0.083,-0.002 -0.0827,-0.002 0,0 0,0 0,0 -0.0138,-2.7e-4 -0.12772,-0.002 -0.14156,-0.003 0.004,-0.12971 0.002,-0.26544 -9.9e-4,-0.39568 0.0353,0.003 0.0612,0.004 0.0771,0.004 0.0247,8e-5 0.0464,-0.003 0.065,-0.0103 0,0 0,0 0,0 0,0 0,0 0,0 0,0 0,0 0,0 0,0 0,0 0,0 0,0 0,0 0,0 0,0 0,0 0,0 0.0132,-0.005 0.0248,-0.0117 0.0349,-0.0202 0.0241,-0.0205 0.0378,-0.0458 0.041,-0.0758 0.002,-0.0209 0.004,-0.0551 0.004,-0.10315 0,0 0,0 0,0 0,0 0,0 0,0 0,0 0,0 0,0 0,0 0,0 0,0 0,0 0,0 0,0 0,0 0,0 0,0 -1e-5,-0.0211 -2.3e-4,-0.0447 -6.6e-4,-0.0711 -0.009,-0.5334 0.0428,-1.06539 -0.0118,-1.60512 0.10364,-0.005 0.20829,-0.0109 0.31193,-0.0165 0.0926,-0.005 0.18524,-0.0102 0.27781,-0.0156 z"
         style="fill:#f2f200;fill-opacity:1;stroke:#0a290a;stroke-width:0.1;stroke-miterlimit:4;stroke-dasharray:none;stroke-opacity:1"
         id="path9877"
         inkscape:original-d="m 112.68599,135.48733 v 1.51926 q 0,0.3412 -0.007,0.43949 -0.007,0.0969 -0.0646,0.17552 -0.0562,0.0786 -0.15446,0.10952 -0.0969,0.0295 -0.29346,0.0295 h -0.29627 v -0.39736 q 0.0534,0.004 0.0772,0.004 0.0632,0 0.0997,-0.0309 0.0365,-0.0309 0.0421,-0.0758 0.006,-0.0449 0.006,-0.17411 v -1.5993 z"
         inkscape:connector-curvature="0" />
      <path
         d="m 114.1389,135.21451 c 0.0431,0.45785 0.0271,1.31627 0.0291,1.66416 0.001,0.18025 -0.004,0.30708 -0.0149,0.38413 -0.0112,0.0745 -0.0449,0.15242 -0.10137,0.23314 -0.0566,0.0798 -0.13144,0.14033 -0.22408,0.18026 -0.0918,0.039 -0.1988,0.0554 -0.32186,0.0502 -0.0152,-6.4e-4 -0.0302,-0.002 -0.045,-0.003 -0.11743,-0.01 -0.22133,-0.0388 -0.31248,-0.0851 -0.10257,-0.0521 -0.17928,-0.11647 -0.23045,-0.1929 -0.0512,-0.0765 -0.0822,-0.15511 -0.0925,-0.23669 -0.009,-0.0764 -0.0183,-0.26041 -0.0191,-0.51189 -0.001,-0.33895 0.0203,-1.01297 -0.018,-1.39618 0.19625,-0.0117 0.39404,-0.024 0.59035,-0.0365 0.0358,0.36552 0.0231,1.5143 0.0258,1.80009 9.4e-4,0.10219 0.007,0.16925 0.0169,0.19877 0.009,0.0225 0.0245,0.0365 0.0467,0.0417 0,0 0,0 0,0 0.006,0.001 0.0126,0.002 0.0197,0.002 0.0376,6.8e-4 0.0616,-0.0147 0.0718,-0.0462 0.0113,-0.0326 0.0165,-0.10812 0.0154,-0.22547 -0.003,-0.30099 0.0111,-1.39361 -0.0266,-1.78208 0.0402,-0.003 0.55037,-0.0363 0.59056,-0.0389 z"
         style="fill:#f2f200;fill-opacity:1;stroke:#0a290a;stroke-width:0.1;stroke-miterlimit:4;stroke-dasharray:none;stroke-opacity:1"
         id="path9879"
         inkscape:original-d="m 114.26141,135.48733 v 1.51926 q 0,0.25836 -0.0168,0.36367 -0.0169,0.1039 -0.0997,0.21483 -0.0828,0.10952 -0.21905,0.16709 -0.13479,0.0562 -0.31873,0.0562 -0.2036,0 -0.35946,-0.0674 -0.15585,-0.0674 -0.23308,-0.17552 -0.0772,-0.10812 -0.0913,-0.22747 -0.014,-0.12075 -0.014,-0.50548 v -1.34515 h 0.59114 v 1.70461 q 0,0.14883 0.0154,0.19096 0.0168,0.0407 0.066,0.0407 0.0562,0 0.0716,-0.0449 0.0169,-0.0463 0.0169,-0.21623 v -1.67512 z"
         inkscape:connector-curvature="0" />
      <path
         d="m 116.19187,135.08168 c 0.0414,0.52722 0.0416,2.29626 0.0276,2.72426 0.0173,9.8e-4 -0.53464,-0.0297 -0.51734,-0.0287 0.01,-0.29122 0.007,-1.52651 0.006,-1.73463 -0.002,0.0196 -0.20032,1.6325 -0.21315,1.72347 0.006,3e-4 -0.37261,-0.0196 -0.36701,-0.0193 -0.0293,-0.36501 -0.17347,-1.36761 -0.21176,-1.65423 9e-5,0.16441 0.002,1.41228 -0.006,1.64315 -0.17253,-0.009 -0.34505,-0.017 -0.51762,-0.025 0.0109,-0.29773 0.009,-2.14027 -0.0252,-2.51147 -0.39629,0.0265 1.16137,-0.0773 0.76508,-0.0508 0.0396,0.18901 0.072,0.38651 0.10186,0.60814 0.0261,0.18848 0.0624,0.47588 0.0843,0.64401 0.0421,-0.35069 0.0988,-0.80335 0.10166,-1.27088 0.25746,-0.0166 0.51372,-0.0327 0.77132,-0.048 z"
         style="fill:#f2f200;fill-opacity:1;stroke:#0a290a;stroke-width:0.1;stroke-miterlimit:4;stroke-dasharray:none;stroke-opacity:1"
         id="path9881"
         inkscape:original-d="m 116.31423,135.48733 v 2.27327 h -0.51671 v -1.5347 l -0.20641,1.5347 h -0.36647 L 115.007,136.261 v 1.4996 h -0.51672 v -2.27327 h 0.76525 q 0.0337,0.20501 0.0716,0.48302 l 0.0814,0.5785 0.13479,-1.06152 z"
         inkscape:connector-curvature="0" />
      <path
         d="m 116.42939,135.06772 c 0.19877,-0.0115 0.39719,-0.0225 0.59604,-0.0328 0.13569,-0.007 0.24529,0.001 0.32982,0.0255 0,0 0,0 0,0 0,0 0,0 0,0 0,0 0,0 0,0 0.016,0.005 0.0311,0.01 0.0453,0.0153 0.0897,0.0354 0.15803,0.0892 0.20469,0.15913 0.0475,0.0698 0.0806,0.15362 0.0986,0.24845 0.019,0.094 0.0303,0.23515 0.0322,0.41292 8.5e-4,0.0817 0.001,0.16251 0.002,0.24021 6.5e-4,0.17083 -0.0145,0.29145 -0.0442,0.36648 -0.0298,0.0753 -0.085,0.13256 -0.16551,0.17196 -0.0406,0.0201 -0.0876,0.0349 -0.14113,0.0444 0,0 0,0 0,0 0,0 0,0 0,0 -0.0514,0.009 -0.10868,0.0133 -0.17199,0.0126 3.8e-4,1e-5 -0.15911,-0.002 -0.15872,-0.002 5.9e-4,0.29122 0.004,0.74256 -0.007,1.12338 0.0634,0.004 -0.65506,-0.0377 -0.59168,-0.0341 0.014,-0.44206 0.0137,-2.20877 -0.0278,-2.75174 z m 0.61846,0.523 c 0.007,0.24495 0.007,0.49228 0.008,0.70179 0.0169,7.4e-4 0.0314,0.001 0.0435,0.001 0.0543,-6e-5 0.0917,-0.015 0.11227,-0.0451 0.0214,-0.0311 0.0322,-0.0953 0.0316,-0.19503 -4.1e-4,-0.0736 -0.001,-0.14976 -0.002,-0.22719 -0.001,-0.0972 -0.015,-0.16323 -0.0401,-0.1934 -0.0251,-0.0302 -0.076,-0.0446 -0.1528,-0.0427 0,0 4e-5,5.1e-4 4e-5,5.1e-4 z"
         style="fill:#f2f200;fill-opacity:1;stroke:#0a290a;stroke-width:0.1;stroke-miterlimit:4;stroke-dasharray:none;stroke-opacity:1"
         id="path9883"
         inkscape:original-d="m 116.55153,135.48733 h 0.59535 q 0.24151,0 0.37068,0.0379 0.13059,0.0379 0.19518,0.10953 0.066,0.0716 0.0885,0.17411 0.0239,0.10109 0.0239,0.31452 v 0.19798 q 0,0.21764 -0.0449,0.31733 -0.0449,0.0997 -0.16568,0.15305 -0.11935,0.0534 -0.31312,0.0534 h -0.15867 v 0.91548 h -0.59113 z m 0.59113,0.38895 v 0.57849 q 0.0253,0.001 0.0435,0.001 0.0814,0 0.11233,-0.0393 0.0323,-0.0407 0.0323,-0.16709 v -0.18675 q 0,-0.11654 -0.0365,-0.15164 -0.0365,-0.0351 -0.15165,-0.0351 z"
         inkscape:connector-curvature="0" />
      <path
         d="m 119.66016,135.95034 c -0.18228,4e-4 -0.36436,0.001 -0.54681,0.002 -4.8e-4,-0.071 -0.001,-0.14438 -0.002,-0.21955 -0.001,-0.10575 -0.01,-0.177 -0.0246,-0.20747 -0.0147,-0.0306 -0.0384,-0.0458 -0.0712,-0.0454 -0.0356,5.3e-4 -0.0621,0.022 -0.0798,0.0633 -0.0169,0.0413 -0.0245,0.10283 -0.0234,0.18195 0.001,0.1015 0.0122,0.17411 0.0332,0.22265 0.02,0.0485 0.0758,0.10597 0.16741,0.1721 0.26305,0.19071 0.42703,0.33931 0.49569,0.45781 0.068,0.11737 0.10276,0.3053 0.10348,0.58213 5.3e-4,0.20361 -0.0186,0.36836 -0.0574,0.4778 -0.0378,0.10918 -0.11148,0.20559 -0.2211,0.28436 -0.11017,0.0777 -0.23648,0.11534 -0.3813,0.11039 -0.15889,-0.005 -0.29201,-0.0588 -0.40305,-0.15363 -0.0419,-0.0361 -0.0782,-0.0749 -0.10897,-0.11623 -0.0496,-0.0675 -0.0848,-0.14102 -0.10559,-0.21957 -0.0335,-0.12678 -0.0507,-0.29956 -0.0511,-0.50323 -4e-5,-0.0255 -3.3e-4,-0.15092 -3.8e-4,-0.1764 0.002,3e-5 0.15815,0.003 0.15995,0.003 -0.008,-6e-5 0.39551,0.003 0.38779,0.003 -8.1e-4,-0.33301 0.001,0.66933 6.8e-4,0.33633 9e-5,0.10724 0.007,0.17985 0.0223,0.21243 0.0158,0.0326 0.0432,0.0496 0.0824,0.0504 0.0393,7.4e-4 0.0682,-0.0196 0.087,-0.0604 0.0197,-0.0407 0.0295,-0.1008 0.0295,-0.17808 -1.8e-4,-0.16877 -0.0188,-0.27331 -0.0553,-0.3226 -0.0376,-0.0497 -0.12934,-0.13136 -0.27618,-0.24431 -0.13545,-0.1052 -0.22704,-0.18145 -0.27894,-0.23384 -0.005,-0.005 -0.009,-0.009 -0.0126,-0.0132 -0.0477,-0.0514 -0.0876,-0.12262 -0.11965,-0.21499 -0.0312,-0.0929 -0.0469,-0.2119 -0.0487,-0.36712 -0.003,-0.22314 0.014,-0.40905 0.0531,-0.53051 0.0245,-0.0744 0.059,-0.14177 0.10369,-0.2007 0,0 0,0 0,0 0.0287,-0.0379 0.0617,-0.0722 0.099,-0.10261 0.0957,-0.0796 0.2128,-0.12405 0.35438,-0.12848 0.15485,-0.005 0.28753,0.0353 0.39981,0.11727 0.11264,0.0816 0.18798,0.18377 0.22575,0.3006 0.0389,0.11581 0.0604,0.30649 0.0623,0.54447 3.1e-4,0.0394 5.6e-4,0.0783 7.7e-4,0.1165 z"
         style="fill:#f2f200;fill-opacity:1;stroke:#0a290a;stroke-width:0.1;stroke-miterlimit:4;stroke-dasharray:none;stroke-opacity:1"
         id="path9885"
         inkscape:original-d="m 119.75292,136.17535 h -0.54901 v -0.16849 q 0,-0.11795 -0.0211,-0.15024 -0.0211,-0.0323 -0.0702,-0.0323 -0.0534,0 -0.0814,0.0435 -0.0267,0.0435 -0.0267,0.13199 0,0.11373 0.0309,0.1713 0.0295,0.0576 0.16709,0.13901 0.39456,0.23449 0.49706,0.38473 0.1025,0.15024 0.1025,0.48442 0,0.24291 -0.0576,0.35805 -0.0562,0.11514 -0.21904,0.19377 -0.16288,0.0772 -0.37912,0.0772 -0.23729,0 -0.40579,-0.0899 -0.16709,-0.0899 -0.21904,-0.22887 -0.052,-0.13901 -0.052,-0.39456 v -0.14884 h 0.54901 v 0.27662 q 0,0.12777 0.0225,0.16428 0.0239,0.0365 0.0828,0.0365 0.059,0 0.0871,-0.0463 0.0295,-0.0463 0.0295,-0.1376 0,-0.20079 -0.0548,-0.26257 -0.0562,-0.0618 -0.27661,-0.20641 -0.22045,-0.14603 -0.29206,-0.21202 -0.0716,-0.066 -0.11935,-0.18254 -0.0463,-0.11654 -0.0463,-0.29767 0,-0.26117 0.066,-0.38192 0.0674,-0.12076 0.21623,-0.18815 0.14884,-0.0688 0.35946,-0.0688 0.23027,0 0.39175,0.0744 0.16288,0.0744 0.21483,0.18815 0.0534,0.11233 0.0534,0.38333 z"
         inkscape:connector-curvature="0" />
      <path
         d="m 121.07216,134.93126 c 0.004,0.26322 0.005,0.4999 0.006,0.70995 -0.11644,-8.5e-4 -0.23283,-0.001 -0.34933,-0.002 0.005,0.84843 0.007,1.37289 0.006,2.35224 -0.1969,-0.001 -0.39355,-0.004 -0.59055,-0.007 0.002,-0.29362 -0.003,-2.17782 -0.004,-2.34555 -0.11612,1.9e-4 -0.23219,5.7e-4 -0.34836,0.001 -0.003,-0.20884 -0.008,-0.44388 -0.0176,-0.70405 0.43356,-0.007 0.86432,-0.009 1.29803,-0.004 z"
         style="fill:#f2f200;fill-opacity:1;stroke:#0a290a;stroke-width:0.1;stroke-miterlimit:4;stroke-dasharray:none;stroke-opacity:1"
         id="path9887"
         inkscape:original-d="m 121.17951,135.48733 v 0.45494 h -0.35103 v 1.81833 h -0.59113 v -1.81833 h -0.34963 v -0.45494 z"
         inkscape:connector-curvature="0" />
      <path
         d="m 122.1204,134.95272 c 0.0771,1.01068 0.23887,2.11221 0.34368,3.02467 -0.20129,0.005 -0.40219,0.009 -0.60359,0.0113 -0.013,-0.22232 -0.0246,-0.41464 -0.0361,-0.59931 -0.0702,5.2e-4 -0.14034,9.5e-4 -0.21052,0.001 -0.0102,0.18353 -0.0199,0.37952 -0.0294,0.60085 -0.20377,0.002 -0.40722,0.002 -0.61111,0.001 0.0972,-1.22616 0.19971,-1.73598 0.28787,-3.05938 0.28679,0.004 0.57249,0.0102 0.85917,0.0193 z m -0.31593,1.93024 c -0.0299,-0.29714 -0.0619,-0.66849 -0.0898,-1.16171 -0.0636,0.62181 -0.0939,0.8672 -0.11082,1.16202 -2.9e-4,0 0.20091,-3.1e-4 0.20062,-3.1e-4 z"
         style="fill:#f2f200;fill-opacity:1;stroke:#0a290a;stroke-width:0.1;stroke-miterlimit:4;stroke-dasharray:none;stroke-opacity:1"
         id="path9889"
         inkscape:original-d="m 122.22277,135.48733 0.3384,2.27327 h -0.60518 l -0.0295,-0.40859 h -0.21202 l -0.0351,0.40859 h -0.6122 l 0.30048,-2.27327 z m -0.31312,1.46169 q -0.0449,-0.38613 -0.0899,-0.95339 -0.0899,0.65151 -0.11233,0.95339 z"
         inkscape:connector-curvature="0" />
      <path
         d="m 123.5989,135.0221 c -0.0117,0.24589 -0.0173,0.46894 -0.0203,0.66686 -0.11627,-0.003 -0.23237,-0.007 -0.34865,-0.01 -0.006,0.48276 -0.006,1.64902 0.0151,2.27348 -0.19651,0.008 -0.39256,0.0143 -0.58916,0.0198 -0.0173,-0.70122 -0.0178,-1.74807 -0.0131,-2.30783 -0.11582,-0.003 -0.23153,-0.005 -0.34738,-0.007 0.001,-0.20622 0.003,-0.44 0.007,-0.69851 0.4341,0.0154 0.8631,0.0366 1.29657,0.0633 z"
         style="fill:#f2f200;fill-opacity:1;stroke:#0a290a;stroke-width:0.1;stroke-miterlimit:4;stroke-dasharray:none;stroke-opacity:1"
         id="path9891"
         inkscape:original-d="m 123.69569,135.48733 v 0.45494 h -0.35103 v 1.81833 h -0.59113 v -1.81833 h -0.34963 v -0.45494 z"
         inkscape:connector-curvature="0" />
      <path
         d="m 124.32533,135.07193 c -0.0363,0.62381 -0.0307,2.24954 -0.005,2.83086 -0.18617,0.009 -0.39204,0.0189 -0.57821,0.0281 0,0 -0.0134,6.3e-4 -0.0134,6.3e-4 -0.0248,-0.62256 -0.03,-2.21763 0.005,-2.9009 0,0 0.0134,8.6e-4 0.0134,8.6e-4 0.19273,0.0127 0.38482,0.0262 0.57781,0.0405 z"
         style="fill:#f2f200;fill-opacity:1;stroke:#0a290a;stroke-width:0.1;stroke-miterlimit:4;stroke-dasharray:none;stroke-opacity:1"
         id="path9893"
         inkscape:original-d="m 124.42163,135.48733 v 2.27327 h -0.59114 v -2.27327 z"
         inkscape:connector-curvature="0" />
      <path
         d="m 125.87705,136.70343 c 1.5e-4,0.23083 -0.007,0.42671 -0.017,0.52987 -0.009,0.10902 -0.0408,0.21513 -0.0933,0.31774 -0.0516,0.10263 -0.122,0.18943 -0.21357,0.25502 -0.0918,0.0658 -0.20043,0.10565 -0.3285,0.11489 -0.1216,0.009 -0.23208,-0.0132 -0.33263,-0.0652 -0.0994,-0.0532 -0.18049,-0.13574 -0.24268,-0.24162 -0.0621,-0.10568 -0.0993,-0.21709 -0.11199,-0.3319 -0.013,-0.11763 -0.0196,-0.3075 -0.0204,-0.56599 0.002,0.74155 -0.003,-1.16814 -0.001,-0.42659 -4.8e-4,-0.25572 0.006,-0.44461 0.0183,-0.56676 0.0132,-0.11949 0.0499,-0.23401 0.11032,-0.33992 0.0616,-0.10611 0.14322,-0.18927 0.24439,-0.2441 0.10156,-0.055 0.21659,-0.0767 0.34604,-0.0649 0.12275,0.0112 0.2286,0.0513 0.31952,0.11587 0.0919,0.0633 0.16137,0.14987 0.21269,0.25447 0.0512,0.10436 0.0812,0.2106 0.0899,0.31856 0.007,0.0921 0.0146,0.30818 0.0172,0.53571 0.002,0.14668 0.003,0.25809 0.003,0.40485 z m -0.59019,-0.80441 c 9.6e-4,-0.1222 -0.003,-0.20512 -0.0138,-0.24138 -0.0101,-0.0374 -0.033,-0.0574 -0.0692,-0.0591 -0.0306,-0.001 -0.0548,0.0128 -0.0724,0.0425 -0.0166,0.0285 -0.0269,0.11613 -0.0281,0.25298 -9.1e-4,0.10911 0.002,1.06548 0.003,1.16518 8e-4,0.151 0.007,0.25048 0.0183,0.2883 0.0119,0.0376 0.0373,0.056 0.0762,0.0545 0.0399,-0.002 0.0648,-0.0248 0.0752,-0.0686 0.0103,-0.0433 0.0146,-0.14688 0.014,-0.29747 -8e-5,-0.0229 -0.003,-1.10452 -0.003,-1.13688 z"
         style="fill:#f2f200;fill-opacity:1;stroke:#0a290a;stroke-width:0.1;stroke-miterlimit:4;stroke-dasharray:none;stroke-opacity:1"
         id="path9895"
         inkscape:original-d="m 126.00688,136.81844 q 0,0.34261 -0.0168,0.48583 -0.0155,0.14181 -0.1011,0.25976 -0.0842,0.11794 -0.22887,0.18113 -0.14463,0.0632 -0.33699,0.0632 -0.18254,0 -0.32856,-0.059 -0.14463,-0.0604 -0.23309,-0.17973 -0.0885,-0.11935 -0.10531,-0.25976 -0.0169,-0.14041 -0.0169,-0.49144 v -0.38894 q 0,-0.34261 0.0155,-0.48442 0.0169,-0.14322 0.1011,-0.26117 0.0857,-0.11795 0.23027,-0.18113 0.14463,-0.0632 0.33699,-0.0632 0.18254,0 0.32716,0.0604 0.14603,0.059 0.23449,0.17832 0.0885,0.11935 0.10531,0.25977 0.0168,0.14041 0.0168,0.49144 z m -0.59114,-0.74699 q 0,-0.15867 -0.0182,-0.2022 -0.0169,-0.0449 -0.0716,-0.0449 -0.0463,0 -0.0716,0.0365 -0.0239,0.0351 -0.0239,0.21062 v 1.06151 q 0,0.19798 0.0154,0.24432 0.0169,0.0463 0.0758,0.0463 0.0604,0 0.0772,-0.0534 0.0169,-0.0534 0.0169,-0.25415 z"
         inkscape:connector-curvature="0" />
      <path
         d="m 127.46073,135.3401 c -0.009,0.0302 -0.0525,2.26752 -0.0496,2.30021 -0.14495,0.0161 -0.36226,0.0409 -0.50721,0.057 -0.13749,-0.38675 -0.20598,-0.74841 -0.31053,-1.09692 0.001,0.25091 -0.0203,0.80693 0.009,1.12992 -0.16266,0.0174 -0.32255,0.0336 -0.4859,0.0491 -0.0279,-0.33695 -0.0297,-2.2238 0.0201,-2.55566 0.35112,0.0316 0.14481,0.013 0.49593,0.0446 0.0274,0.40973 0.17683,0.78593 0.29194,1.11123 -0.008,-0.30573 -0.0433,-0.72228 0.0405,-1.08172 0.16492,0.0145 0.33089,0.0287 0.49571,0.0423 z"
         style="fill:#f2f200;fill-opacity:1;stroke:#0a290a;stroke-width:0.1;stroke-miterlimit:4;stroke-dasharray:none;stroke-opacity:1"
         id="path9897"
         inkscape:original-d="m 127.5486,135.48733 v 2.27327 h -0.51812 l -0.3075,-1.03343 v 1.03343 h -0.49425 v -2.27327 h 0.49425 l 0.33137,1.02361 v -1.02361 z"
         inkscape:connector-curvature="0" />
    </g>
  </g>
</svg>
