<?xml version="1.0" encoding="UTF-8" standalone="no"?>
<!-- Created with Inkscape (http://www.inkscape.org/) -->

<svg
   xmlns:dc="http://purl.org/dc/elements/1.1/"
   xmlns:cc="http://creativecommons.org/ns#"
   xmlns:rdf="http://www.w3.org/1999/02/22-rdf-syntax-ns#"
   xmlns:svg="http://www.w3.org/2000/svg"
   xmlns="http://www.w3.org/2000/svg"
   xmlns:xlink="http://www.w3.org/1999/xlink"
   xmlns:sodipodi="http://sodipodi.sourceforge.net/DTD/sodipodi-0.dtd"
   xmlns:inkscape="http://www.inkscape.org/namespaces/inkscape"
   width="25.289392mm"
   height="20.204075mm"
   viewBox="0 0 25.289392 20.204075"
   version="1.1"
   id="svg7106"
   inkscape:version="0.92.1 r15371"
   sodipodi:docname="lunartunes.svg">
  <defs
     id="defs7100">
    <inkscape:path-effect
       effect="envelope"
       id="path-effect7773"
       is_visible="true"
       yy="true"
       xx="true"
       bendpath1="m 100.69637,114.33538 c 0,0 9.06633,-0.611 14.62331,0"
       bendpath2="m 115.31968,114.33538 v 2.35785"
       bendpath3="m 100.69637,116.69323 c 0,0 8.23516,1.36299 14.62331,0"
       bendpath4="m 100.69637,114.33538 v 2.35785"
       bendpath1-nodetypes="cc"
       bendpath3-nodetypes="cc" />
    <linearGradient
       inkscape:collect="always"
       id="linearGradient7744">
      <stop
         style="stop-color:#88bcf6;stop-opacity:1"
         offset="0"
         id="stop7740" />
      <stop
         style="stop-color:#0052ad;stop-opacity:0.96744186"
         offset="1"
         id="stop7742" />
    </linearGradient>
    <radialGradient
       inkscape:collect="always"
       xlink:href="#linearGradient7744"
       id="radialGradient7746"
       cx="109.1796"
       cy="122.1648"
       fx="109.1796"
       fy="122.1648"
       r="8.4858074"
       gradientTransform="matrix(1,0,0,0.99409452,0,0.74565409)"
       gradientUnits="userSpaceOnUse" />
  </defs>
  <sodipodi:namedview
     id="base"
     pagecolor="#ffffff"
     bordercolor="#666666"
     borderopacity="1.0"
     inkscape:pageopacity="0.0"
     inkscape:pageshadow="2"
     inkscape:zoom="5.6"
     inkscape:cx="50.488899"
     inkscape:cy="61.155693"
     inkscape:document-units="mm"
     inkscape:current-layer="layer20"
     showgrid="false"
     inkscape:window-width="3440"
     inkscape:window-height="1377"
     inkscape:window-x="1072"
     inkscape:window-y="127"
     inkscape:window-maximized="1" />
  <metadata
     id="metadata7103">
    <rdf:RDF>
      <cc:Work
         rdf:about="">
        <dc:format>image/svg+xml</dc:format>
        <dc:type
           rdf:resource="http://purl.org/dc/dcmitype/StillImage" />
        <dc:title></dc:title>
      </cc:Work>
    </rdf:RDF>
  </metadata>
  <g
     inkscape:groupmode="layer"
     id="layer20"
     inkscape:label="planet"
     style="display:inline"
     transform="translate(-94.63028,-114.4965)">
    <ellipse
       style="opacity:1;fill:url(#radialGradient7746);fill-opacity:1;stroke:none;stroke-width:0.50592047;stroke-miterlimit:4;stroke-dasharray:none;stroke-opacity:1;paint-order:fill markers stroke"
       id="path7663"
       cx="107.34212"
       cy="126.26488"
       rx="8.4858074"
       ry="8.4356947" />
  </g>
  <g
     inkscape:groupmode="layer"
     id="layer19"
     inkscape:label="ring"
     transform="translate(-94.63028,-114.4965)">
    <path
       style="opacity:1;fill:#f71818;fill-opacity:0.9906977;stroke:none;stroke-width:1.40598428;stroke-miterlimit:4;stroke-dasharray:none;stroke-opacity:1;paint-order:fill markers stroke"
       d="m 440.70703,451.05273 a 16.541249,51.770315 66.081626 0 0 -14.54687,1.63086 32.072343,31.882941 0 0 1 0.20312,0.15235 32.072343,31.882941 0 0 1 2.3457,2.17187 32.072343,31.882941 0 0 1 1.54297,1.7461 11.946731,39.729477 66.05954 0 1 2.34961,-0.0762 11.946731,39.729477 66.05954 0 1 2.27539,0.11133 11.946731,39.729477 66.05954 0 1 1.97852,0.30664 11.946731,39.729477 66.05954 0 1 1.6582,0.4961 11.946731,39.729477 66.05954 0 1 1.32617,0.67968 11.946731,39.729477 66.05954 0 1 0.97852,0.86133 11.946731,39.729477 66.05954 0 1 0.47656,0.71094 11.946731,39.729477 66.05954 0 1 0.36524,1.14453 11.946731,39.729477 66.05954 0 1 -0.002,1.29492 11.946731,39.729477 66.05954 0 1 -0.36718,1.43555 11.946731,39.729477 66.05954 0 1 -0.72852,1.55859 11.946731,39.729477 66.05954 0 1 -1.08398,1.66602 11.946731,39.729477 66.05954 0 1 -1.42579,1.75976 11.946731,39.729477 66.05954 0 1 -1.16992,1.21876 11.946731,39.729477 66.05954 0 1 -0.58789,0.61328 11.946731,39.729477 66.05954 0 1 -2.06836,1.89062 11.946731,39.729477 66.05954 0 1 -2.35937,1.92578 11.946731,39.729477 66.05954 0 1 -2.62891,1.94532 11.946731,39.729477 66.05954 0 1 -2.86914,1.94335 11.946731,39.729477 66.05954 0 1 -3.08203,1.92188 11.946731,39.729477 66.05954 0 1 -3.26367,1.88281 11.946731,39.729477 66.05954 0 1 -3.41406,1.82227 11.946731,39.729477 66.05954 0 1 -3.5293,1.74609 11.946731,39.729477 66.05954 0 1 -2.54883,1.17969 11.946731,39.729477 66.05954 0 1 -3.64258,1.57422 11.946731,39.729477 66.05954 0 1 -3.66211,1.45312 11.946731,39.729477 66.05954 0 1 -3.64258,1.31641 11.946731,39.729477 66.05954 0 1 -3.58984,1.16601 11.946731,39.729477 66.05954 0 1 -3.49805,1.00391 11.946731,39.729477 66.05954 0 1 -3.37109,0.83398 11.946731,39.729477 66.05954 0 1 -3.21289,0.65235 11.946731,39.729477 66.05954 0 1 -3.02149,0.4668 11.946731,39.729477 66.05954 0 1 -2.80078,0.27734 11.946731,39.729477 66.05954 0 1 -0.57812,0.0195 11.946731,39.729477 66.05954 0 1 -1.9707,0.0625 11.946731,39.729477 66.05954 0 1 -2.2754,-0.11133 11.946731,39.729477 66.05954 0 1 -1.97851,-0.30664 11.946731,39.729477 66.05954 0 1 -1.66016,-0.49609 11.946731,39.729477 66.05954 0 1 -1.32422,-0.67969 11.946731,39.729477 66.05954 0 1 -0.97851,-0.86133 11.946731,39.729477 66.05954 0 1 -0.47656,-0.71094 11.946731,39.729477 66.05954 0 1 -0.36524,-1.14453 11.946731,39.729477 66.05954 0 1 0.002,-1.29687 11.946731,39.729477 66.05954 0 1 0.36718,-1.4336 11.946731,39.729477 66.05954 0 1 0.72852,-1.55859 11.946731,39.729477 66.05954 0 1 1.08398,-1.66601 11.946731,39.729477 66.05954 0 1 1.42578,-1.75977 11.946731,39.729477 66.05954 0 1 1.75782,-1.83203 11.946731,39.729477 66.05954 0 1 0.1289,-0.11719 32.072343,31.882941 0 0 1 -0.26562,-2.16797 32.072343,31.882941 0 0 1 -0.0801,-2.25586 32.072343,31.882941 0 0 1 0.0645,-1.29297 16.541249,51.770315 66.081626 0 0 -15.57031,21.9668 16.541249,51.770315 66.081626 0 0 26.44141,3.27344 16.541249,51.770315 66.081626 0 0 27.58984,-9.14063 16.541249,51.770315 66.081626 0 0 25.60742,-14.56054 16.541249,51.770315 66.081626 0 0 15.01172,-21.55078 16.541249,51.770315 66.081626 0 0 -12.06836,-4.86329 z"
       transform="scale(0.26458333)"
       id="path7682"
       inkscape:connector-curvature="0" />
    <g
       aria-label="LUNAR TUNES"
       transform="scale(0.99476713,1.0052604)"
       style="font-style:normal;font-variant:normal;font-weight:normal;font-stretch:normal;font-size:2.86236405px;line-height:1.25;font-family:impact;-inkscape-font-specification:impact;letter-spacing:0px;word-spacing:0px;fill:#f2f200;fill-opacity:1;stroke:#000000;stroke-width:0.1;stroke-miterlimit:4;stroke-dasharray:none;stroke-opacity:1"
       id="text7750"
       inkscape:path-effect="#path-effect7773">
      <path
         d="m 101.17632,114.25326 c 0.0792,0.63522 0.0121,1.21466 0.0223,1.83467 0.12005,0.003 0.2403,0.006 0.36018,0.009 0.002,0.15527 0.002,0.32327 -0.006,0.48806 -0.15517,-0.0111 -0.31105,-0.0217 -0.46625,-0.0313 0,0 0,0 0,0 -0.0925,-0.006 -0.18584,-0.0113 -0.27835,-0.0165 0,0 0,0 0,0 -0.004,-2e-4 -0.0698,-0.004 -0.0734,-0.004 0,0 0,0 0,0 -0.0426,-0.002 -0.0858,-0.005 -0.11945,-0.007 0.0142,-0.74217 0.0743,-1.50307 -0.0272,-2.25588 0.0431,-0.001 0.0854,-0.002 0.12803,-0.003 0,0 0,0 0,0 -1.7e-4,0 0.0735,-0.002 0.0734,-0.002 0,0 0,0 0,0 0.0928,-0.003 0.18555,-0.006 0.27829,-0.009 0,0 0,0 0,0 2.4e-4,-1e-5 0.10858,-0.004 0.10882,-0.004 z"
         style="font-style:normal;font-variant:normal;font-weight:normal;font-stretch:normal;font-family:impact;-inkscape-font-specification:impact;fill:#f2f200;fill-opacity:1;stroke:#000000;stroke-width:0.1;stroke-miterlimit:4;stroke-dasharray:none;stroke-opacity:1"
         id="path7752"
         inkscape:original-d="m 101.28478,114.38294 v 1.80994 h 0.35779 v 0.45283 h -0.9462 v -2.26277 z"
         inkscape:connector-curvature="0" />
      <path
         d="m 103.01535,114.17488 c 0.0466,0.44004 0.0289,1.29286 0.0302,1.64865 6.9e-4,0.18641 -0.005,0.32064 -0.0166,0.40303 -0.0118,0.0794 -0.046,0.16268 -0.10344,0.24896 -0.0576,0.0854 -0.13319,0.14951 -0.22617,0.19011 -0.0923,0.0396 -0.19884,0.0533 -0.32103,0.0424 -0.097,-0.009 -0.18479,-0.0307 -0.26389,-0.0647 -0.0309,-0.0133 -0.0605,-0.0285 -0.0889,-0.0454 -0.10064,-0.0601 -0.1757,-0.13133 -0.22564,-0.21318 -0.05,-0.082 -0.0804,-0.16446 -0.0905,-0.24886 -0.009,-0.0765 -0.0185,-0.2711 -0.0196,-0.52071 -0.001,-0.33227 0.0242,-1.0089 -0.0204,-1.37986 0.14258,-0.006 0.2852,-0.0114 0.42779,-0.0175 6.9e-4,-3e-5 0.15979,-0.007 0.16048,-0.007 0.0398,0.34676 0.0259,1.49187 0.028,1.78869 7.4e-4,0.10589 0.006,0.17658 0.0161,0.20791 0.0112,0.0305 0.033,0.0467 0.0657,0.0482 0.0374,0.002 0.0613,-0.0139 0.0717,-0.0469 0.0114,-0.0341 0.017,-0.11373 0.0163,-0.23549 -0.002,-0.31258 0.0131,-1.40036 -0.0286,-1.77014 0.19612,-0.009 0.39228,-0.0184 0.58844,-0.0282 z"
         style="font-style:normal;font-variant:normal;font-weight:normal;font-stretch:normal;font-family:impact;-inkscape-font-specification:impact;fill:#f2f200;fill-opacity:1;stroke:#000000;stroke-width:0.1;stroke-miterlimit:4;stroke-dasharray:none;stroke-opacity:1"
         id="path7754"
         inkscape:original-d="m 103.12407,114.38294 v 1.51224 q 0,0.25717 -0.0168,0.36199 -0.0168,0.10343 -0.0992,0.21384 -0.0825,0.10901 -0.21803,0.16632 -0.13418,0.0559 -0.31727,0.0559 -0.20266,0 -0.35779,-0.0671 -0.15514,-0.0671 -0.23201,-0.17471 -0.0769,-0.10762 -0.0909,-0.22642 -0.014,-0.12019 -0.014,-0.50315 v -1.33893 h 0.5884 v 1.69673 q 0,0.14815 0.0154,0.19008 0.0168,0.0405 0.0657,0.0405 0.0559,0 0.0713,-0.0447 0.0168,-0.0461 0.0168,-0.21524 v -1.66738 z"
         inkscape:connector-curvature="0" />
      <path
         d="m 104.55759,114.09173 c 0.0406,0.48307 0.0407,2.20343 0.0154,2.74206 -0.17207,-0.0135 -0.3435,-0.0274 -0.51551,-0.0417 -0.0727,-0.46889 -0.19632,-0.91059 -0.2903,-1.25068 -3.6e-4,0.29361 0.006,0.82048 -0.0156,1.22497 -0.0512,-0.004 -0.44038,-0.0378 -0.49156,-0.0421 0.0224,-0.41292 0.0206,-2.19749 -0.0168,-2.56094 0.16402,-0.008 0.32808,-0.0171 0.49213,-0.026 0.12195,0.35343 0.28109,0.90366 0.36275,1.17792 0.001,-0.329 0.006,-0.76983 -0.0328,-1.19595 0.0177,-9.8e-4 0.47458,-0.0266 0.49225,-0.0276 z"
         style="font-style:normal;font-variant:normal;font-weight:normal;font-stretch:normal;font-family:impact;-inkscape-font-specification:impact;fill:#f2f200;fill-opacity:1;stroke:#000000;stroke-width:0.1;stroke-miterlimit:4;stroke-dasharray:none;stroke-opacity:1"
         id="path7756"
         inkscape:original-d="m 104.66567,114.38294 v 2.26277 h -0.51573 l -0.30608,-1.02866 v 1.02866 h -0.49197 v -2.26277 h 0.49197 l 0.32984,1.01888 v -1.01888 z"
         inkscape:connector-curvature="0" />
      <path
         d="m 105.80941,114.02007 c 0.0641,0.39162 0.11742,0.80947 0.15472,1.09696 0.0558,0.43065 0.15965,1.16682 0.19717,1.82404 -0.0708,-0.004 -0.1415,-0.008 -0.21225,-0.0122 -0.10226,-0.006 -0.20445,-0.0122 -0.30667,-0.0186 -1.7e-4,-1e-5 -0.0839,-0.005 -0.084,-0.005 -0.001,-0.21357 -0.008,-0.41053 -0.0156,-0.58828 -0.0702,-0.003 -0.14046,-0.005 -0.21071,-0.008 -0.0132,0.17344 -0.029,0.37087 -0.0491,0.57767 -0.20338,-0.0141 -0.40606,-0.029 -0.60936,-0.0448 0.0718,-0.52933 0.27772,-2.27197 0.28401,-2.7727 0.17268,-0.01 0.49738,-0.0286 0.67007,-0.0385 -0.01,5.5e-4 0.19136,-0.0109 0.18166,-0.0104 z m -0.28134,1.79992 c -0.0437,-0.44485 -0.0436,-0.49469 -0.0917,-1.09282 -0.051,0.53286 -0.0941,0.85646 -0.10923,1.08906 -0.001,-2e-5 0.20219,0.004 0.2009,0.004 z"
         style="font-style:normal;font-variant:normal;font-weight:normal;font-stretch:normal;font-family:impact;-inkscape-font-specification:impact;fill:#f2f200;fill-opacity:1;stroke:#000000;stroke-width:0.1;stroke-miterlimit:4;stroke-dasharray:none;stroke-opacity:1"
         id="path7758"
         inkscape:original-d="m 105.91655,114.38294 0.33684,2.26277 H 105.651 l -0.0293,-0.40671 h -0.21104 l -0.0349,0.40671 h -0.60937 l 0.29909,-2.26277 z m -0.31167,1.45494 q -0.0447,-0.38435 -0.0894,-0.949 -0.0894,0.64851 -0.11181,0.949 z"
         inkscape:connector-curvature="0" />
      <path
         d="m 106.24755,114.00137 c 0.13914,-0.005 0.27827,-0.01 0.41749,-0.0142 0.27874,-0.009 0.46729,0.003 0.56707,0.0354 0.1007,0.0321 0.18378,0.1186 0.24884,0.24986 0.0658,0.12967 0.10018,0.32951 0.10162,0.5728 0.001,0.22007 -0.0209,0.35948 -0.0642,0.43047 -0.0434,0.0713 -0.12922,0.11368 -0.25707,0.12741 0.11585,0.0341 0.19371,0.0796 0.23356,0.1367 0.0399,0.0572 0.0644,0.11022 0.0738,0.15927 0.0101,0.0474 0.0156,0.18023 0.0155,0.4148 -8e-5,0.24888 -7.7e-4,0.55515 -0.006,0.88575 -0.18254,-0.005 -0.36485,-0.0105 -0.5474,-0.0174 0.01,-0.40068 0.01,-0.78455 0.01,-1.07072 3e-5,-0.14835 -0.01,-0.23658 -0.0292,-0.27073 -0.0186,-0.0342 -0.0682,-0.0514 -0.14889,-0.052 -1e-5,0.32391 0.002,0.88936 -0.0109,1.38627 -0.19656,-0.008 -0.39279,-0.0178 -0.58927,-0.0284 0.021,-0.63973 0.0209,-2.35516 -0.0145,-2.9452 z m 0.6093,0.54954 c 0.004,0.21984 0.005,0.4363 0.005,0.62732 0.0658,4e-5 0.11173,-0.0104 0.13768,-0.0314 0.0268,-0.0221 0.0403,-0.092 0.0396,-0.21378 -2.7e-4,-0.0508 -6.3e-4,-0.10272 -0.001,-0.15539 -8.7e-4,-0.0914 -0.0148,-0.15398 -0.0413,-0.18354 -0.0256,-0.0297 -0.0722,-0.0443 -0.1401,-0.0434 0,0 -1e-5,1.4e-4 -1e-5,1.4e-4 z"
         style="font-style:normal;font-variant:normal;font-weight:normal;font-stretch:normal;font-family:impact;-inkscape-font-specification:impact;fill:#f2f200;fill-opacity:1;stroke:#000000;stroke-width:0.1;stroke-miterlimit:4;stroke-dasharray:none;stroke-opacity:1"
         id="path7760"
         inkscape:original-d="m 106.35401,114.38294 h 0.4165 q 0.4165,0 0.56325,0.0321 0.14815,0.0322 0.24039,0.16492 0.0936,0.13138 0.0936,0.42069 0,0.26416 -0.0657,0.355 -0.0657,0.0909 -0.25857,0.10902 0.17471,0.0433 0.23481,0.116 0.0601,0.0727 0.0741,0.13418 0.0154,0.0601 0.0154,0.33403 v 0.59679 h -0.54648 v -0.75193 q 0,-0.18169 -0.0293,-0.22502 -0.028,-0.0433 -0.14955,-0.0433 v 1.02027 h -0.58841 z m 0.58841,0.38714 v 0.50315 q 0.0992,0 0.13837,-0.0266 0.0405,-0.028 0.0405,-0.1775 v -0.12439 q 0,-0.10762 -0.0391,-0.14116 -0.0377,-0.0336 -0.13976,-0.0336 z"
         inkscape:connector-curvature="0" />
      <path
         d="m 109.49021,113.94936 c -0.002,0.24897 -0.003,0.47554 -0.003,0.67575 -0.11569,-3.1e-4 -0.2313,-4.8e-4 -0.34703,-5.2e-4 2.2e-4,0.89016 -7.3e-4,1.26067 0.008,2.38203 -0.1963,0.003 -0.39232,0.005 -0.58877,0.005 3.1e-4,-0.15399 -0.004,-2.46481 -0.004,-2.38646 -0.002,1e-5 -0.34355,0.001 -0.34603,0.002 -0.001,-0.20102 -0.004,-0.42629 -0.0102,-0.67534 0.43147,-0.005 0.8595,-0.006 1.29105,-0.002 z"
         style="font-style:normal;font-variant:normal;font-weight:normal;font-stretch:normal;font-family:impact;-inkscape-font-specification:impact;fill:#f2f200;fill-opacity:1;stroke:#000000;stroke-width:0.1;stroke-miterlimit:4;stroke-dasharray:none;stroke-opacity:1"
         id="path7762"
         inkscape:original-d="m 109.58536,114.38294 v 0.45283 h -0.34941 v 1.80994 h -0.58841 v -1.80994 h -0.34801 v -0.45283 z"
         inkscape:connector-curvature="0" />
      <path
         d="m 110.96741,113.9846 c -0.0301,0.629 -0.0232,1.47656 -0.0211,1.90278 0.001,0.20456 -0.003,0.36699 -0.0123,0.46163 -0.01,0.0944 -0.0405,0.1971 -0.0922,0.31112 -0.0519,0.11271 -0.12119,0.20668 -0.20927,0.27546 -0.0874,0.0673 -0.19139,0.10609 -0.31369,0.1126 -0.13555,0.007 -0.25488,-0.0265 -0.3602,-0.0984 -0.10482,-0.0715 -0.18338,-0.16514 -0.23582,-0.27493 -0.0524,-0.1097 -0.0836,-0.22016 -0.0937,-0.33033 -0.0102,-0.1121 -0.0164,-0.339 -0.0173,-0.64233 -0.001,-0.4339 -0.002,-1.10735 0.005,-1.75154 0.19707,0.002 0.3937,0.006 0.59072,0.0105 -0.0178,0.68803 -0.0139,1.68281 -0.01,2.17506 0.001,0.12868 0.007,0.21721 0.0178,0.25612 0.0116,0.0376 0.0336,0.0563 0.0659,0.0552 0.037,-0.001 0.0602,-0.0234 0.0699,-0.0654 0.0105,-0.0433 0.0148,-0.14314 0.0137,-0.2879 -0.004,-0.47599 -0.008,-1.45418 0.0125,-2.12882 0.19699,0.005 0.39343,0.0117 0.59032,0.0192 z"
         style="font-style:normal;font-variant:normal;font-weight:normal;font-stretch:normal;font-family:impact;-inkscape-font-specification:impact;fill:#f2f200;fill-opacity:1;stroke:#000000;stroke-width:0.1;stroke-miterlimit:4;stroke-dasharray:none;stroke-opacity:1"
         id="path7764"
         inkscape:original-d="m 111.05707,114.38294 v 1.51224 q 0,0.25717 -0.0168,0.36199 -0.0168,0.10343 -0.0992,0.21384 -0.0825,0.10901 -0.21803,0.16632 -0.13417,0.0559 -0.31726,0.0559 -0.20266,0 -0.3578,-0.0671 -0.15513,-0.0671 -0.232,-0.17471 -0.0769,-0.10762 -0.0908,-0.22642 -0.014,-0.12019 -0.014,-0.50315 v -1.33893 h 0.58841 v 1.69673 q 0,0.14815 0.0154,0.19008 0.0168,0.0405 0.0657,0.0405 0.0559,0 0.0713,-0.0447 0.0168,-0.0461 0.0168,-0.21524 v -1.66738 z"
         inkscape:connector-curvature="0" />
      <path
         d="m 112.51262,114.06439 c -0.0485,0.49149 -0.0456,2.22718 -0.0133,2.73549 -0.17098,0.0166 -0.34125,0.0326 -0.5124,0.0479 -0.2017,-0.80003 -0.15064,-0.63463 -0.32783,-1.29671 8.4e-4,0.32144 -7.6e-4,0.84547 0.0235,1.32308 -0.16326,0.0137 -0.32619,0.0265 -0.48963,0.0384 -0.0282,-0.66457 -0.0319,-2.28287 0.003,-2.9188 0.16461,0.007 0.3288,0.0147 0.49332,0.0231 0.0713,0.51714 0.19007,0.92977 0.29672,1.29142 -9.5e-4,-0.33548 -0.005,-0.7996 0.0339,-1.2736 0.16449,0.009 0.32842,0.0192 0.49279,0.0297 z"
         style="font-style:normal;font-variant:normal;font-weight:normal;font-stretch:normal;font-family:impact;-inkscape-font-specification:impact;fill:#f2f200;fill-opacity:1;stroke:#000000;stroke-width:0.1;stroke-miterlimit:4;stroke-dasharray:none;stroke-opacity:1"
         id="path7766"
         inkscape:original-d="m 112.59866,114.38294 v 2.26277 h -0.51572 l -0.30609,-1.02866 v 1.02866 h -0.49197 v -2.26277 h 0.49197 l 0.32985,1.01888 v -1.01888 z"
         inkscape:connector-curvature="0" />
      <path
         d="m 112.7477,114.07978 c 0.33008,0.0221 0.65177,0.0456 0.98134,0.0703 -0.0277,0.19216 -0.0376,0.37412 -0.0411,0.54131 -0.0682,-0.002 -0.32317,-0.008 -0.39134,-0.009 -0.004,0.15929 -0.002,0.32479 -0.001,0.47103 0.003,-1e-5 0.36451,-5.7e-4 0.36789,-5.8e-4 0.002,0.16356 0.003,0.28284 0.003,0.44602 -0.0111,1.9e-4 -0.3574,0.007 -0.36847,0.007 -8e-5,0.17519 -0.002,0.35427 -9.4e-4,0.54666 0.14316,-0.007 0.2872,-0.0139 0.43073,-0.0205 -1e-5,0.1666 0.003,0.35132 0.0174,0.54156 -0.35067,0.0359 -0.66164,0.0686 -1.01249,0.10365 -0.0318,-0.47616 -0.0342,-2.23577 0.0153,-2.69712 z"
         style="font-style:normal;font-variant:normal;font-weight:normal;font-stretch:normal;font-family:impact;-inkscape-font-specification:impact;fill:#f2f200;fill-opacity:1;stroke:#000000;stroke-width:0.1;stroke-miterlimit:4;stroke-dasharray:none;stroke-opacity:1"
         id="path7768"
         inkscape:original-d="m 112.83347,114.38294 h 0.98114 v 0.45283 h -0.39274 v 0.42908 h 0.36758 v 0.43047 h -0.36758 v 0.49756 h 0.43187 v 0.45283 h -1.02027 z"
         inkscape:connector-curvature="0" />
      <path
         d="m 115.15168,114.95387 c -0.1843,-5.7e-4 -0.36897,-0.001 -0.55218,-0.003 -0.001,-0.0569 -0.002,-0.11509 -0.002,-0.17297 -2.5e-4,-0.0815 -0.006,-0.13447 -0.0192,-0.15765 -0.0133,-0.0232 -0.0361,-0.0354 -0.0687,-0.0364 -0.0354,-0.001 -0.0631,0.0137 -0.0826,0.0443 -0.0186,0.0306 -0.0285,0.0773 -0.0286,0.13927 -1.8e-4,0.0794 0.0113,0.13875 0.0324,0.17808 0.0204,0.0395 0.0772,0.0871 0.17087,0.14195 0.27077,0.15923 0.43918,0.2815 0.51073,0.38311 0.071,0.10086 0.10289,0.25878 0.094,0.48324 -0.006,0.16061 -0.0305,0.28432 -0.0683,0.36216 -0.0376,0.0793 -0.10843,0.14954 -0.2124,0.21326 -0.10391,0.0627 -0.22595,0.10401 -0.3683,0.11842 -0.15695,0.0159 -0.29284,-0.005 -0.40948,-0.0662 -0.11497,-0.0613 -0.19115,-0.14689 -0.22749,-0.25164 -0.0367,-0.1058 -0.0531,-0.2509 -0.0512,-0.43313 5.7e-4,-0.054 0.001,-0.10363 0.002,-0.15658 0.18288,-0.004 0.36683,-0.008 0.55082,-0.0107 -0.001,0.094 -0.003,0.18901 -0.005,0.28581 -0.002,0.0896 0.005,0.14799 0.0202,0.17354 0.0158,0.0254 0.0433,0.0372 0.0825,0.0355 0.0392,-0.002 0.0682,-0.0196 0.0873,-0.0529 0.02,-0.0333 0.0308,-0.0819 0.0322,-0.14496 0.003,-0.13887 -0.0127,-0.22657 -0.049,-0.26821 -0.0371,-0.0414 -0.12873,-0.10949 -0.2766,-0.20536 -0.14819,-0.097 -0.24575,-0.16715 -0.29449,-0.21189 -0.0483,-0.0443 -0.0891,-0.10621 -0.12197,-0.18599 -0.0318,-0.0793 -0.0493,-0.18348 -0.0492,-0.31216 1.1e-4,-0.18767 0.0282,-0.33116 0.0798,-0.42412 0.052,-0.092 0.13276,-0.16323 0.23971,-0.21011 0.10761,-0.0482 0.23151,-0.0652 0.37159,-0.0535 0.15277,0.0127 0.27612,0.0521 0.37349,0.11257 0.0984,0.0606 0.16053,0.12941 0.18899,0.20809 0.0283,0.0748 0.0431,0.21077 0.0483,0.38809 9e-4,0.0299 0.002,0.0599 0.003,0.0898 z"
         style="font-style:normal;font-variant:normal;font-weight:normal;font-stretch:normal;font-family:impact;-inkscape-font-specification:impact;fill:#f2f200;fill-opacity:1;stroke:#000000;stroke-width:0.1;stroke-miterlimit:4;stroke-dasharray:none;stroke-opacity:1"
         id="path7770"
         inkscape:original-d="m 115.27095,115.06778 h -0.54648 v -0.16772 q 0,-0.1174 -0.021,-0.14954 -0.021,-0.0322 -0.0699,-0.0322 -0.0531,0 -0.0811,0.0433 -0.0266,0.0433 -0.0266,0.13137 0,0.11321 0.0307,0.17052 0.0294,0.0573 0.16632,0.13836 0.39273,0.23341 0.49476,0.38296 0.10203,0.14954 0.10203,0.48218 0,0.24179 -0.0573,0.3564 -0.0559,0.11461 -0.21803,0.19287 -0.16212,0.0769 -0.37736,0.0769 -0.2362,0 -0.40392,-0.0894 -0.16632,-0.0894 -0.21803,-0.22781 -0.0517,-0.13837 -0.0517,-0.39274 v -0.14815 h 0.54647 v 0.27534 q 0,0.12718 0.0224,0.16352 0.0238,0.0363 0.0825,0.0363 0.0587,0 0.0866,-0.0461 0.0294,-0.0461 0.0294,-0.13697 0,-0.19986 -0.0545,-0.26136 -0.0559,-0.0615 -0.27533,-0.20545 -0.21943,-0.14536 -0.29071,-0.21104 -0.0713,-0.0657 -0.1188,-0.1817 -0.0461,-0.116 -0.0461,-0.2963 0,-0.25996 0.0657,-0.38016 0.0671,-0.12019 0.21523,-0.18728 0.14815,-0.0685 0.3578,-0.0685 0.22921,0 0.38994,0.0741 0.16213,0.0741 0.21384,0.18729 0.0531,0.11181 0.0531,0.38155 z"
         inkscape:connector-curvature="0" />
    </g>
  </g>
</svg>
