<?xml version="1.0" encoding="UTF-8" standalone="no"?>
<!-- Created with Inkscape (http://www.inkscape.org/) -->

<svg
   xmlns:dc="http://purl.org/dc/elements/1.1/"
   xmlns:cc="http://creativecommons.org/ns#"
   xmlns:rdf="http://www.w3.org/1999/02/22-rdf-syntax-ns#"
   xmlns:svg="http://www.w3.org/2000/svg"
   xmlns="http://www.w3.org/2000/svg"
   xmlns:sodipodi="http://sodipodi.sourceforge.net/DTD/sodipodi-0.dtd"
   xmlns:inkscape="http://www.inkscape.org/namespaces/inkscape"
   width="16.261351mm"
   height="16.913118mm"
   viewBox="0 0 16.261351 16.913118"
   version="1.1"
   id="svg6442"
   inkscape:version="0.92.1 r15371"
   sodipodi:docname="planetbball.svg">
  <defs
     id="defs6436">
    <inkscape:path-effect
       effect="envelope"
       id="path-effect7027"
       is_visible="true"
       yy="true"
       xx="true"
       bendpath1="m 81.853792,113.24829 c 8.212196,-0.41243 9.988275,-0.72781 15.727611,0"
       bendpath2="m 97.581403,113.24829 v 2.21404"
       bendpath3="m 81.853792,115.46233 c 6.95062,1.15359 7.078013,1.27022 15.727611,0"
       bendpath4="m 81.853792,113.24829 v 2.21404"
       bendpath1-nodetypes="cc"
       bendpath3-nodetypes="cc" />
  </defs>
  <sodipodi:namedview
     id="base"
     pagecolor="#ffffff"
     bordercolor="#666666"
     borderopacity="1.0"
     inkscape:pageopacity="0.0"
     inkscape:pageshadow="2"
     inkscape:zoom="11.2"
     inkscape:cx="44.357058"
     inkscape:cy="54.028631"
     inkscape:document-units="mm"
     inkscape:current-layer="layer18"
     showgrid="false"
     inkscape:window-width="3440"
     inkscape:window-height="1377"
     inkscape:window-x="1072"
     inkscape:window-y="127"
     inkscape:window-maximized="1" />
  <metadata
     id="metadata6439">
    <rdf:RDF>
      <cc:Work
         rdf:about="">
        <dc:format>image/svg+xml</dc:format>
        <dc:type
           rdf:resource="http://purl.org/dc/dcmitype/StillImage" />
        <dc:title></dc:title>
      </cc:Work>
    </rdf:RDF>
  </metadata>
  <g
     inkscape:groupmode="layer"
     id="layer18"
     inkscape:label="Layer 2"
     style="display:inline"
     transform="translate(-84.476713,-109.16048)">
    <g
       aria-label="PLANET B-BALL"
       transform="matrix(1.0269596,0,0,0.97374813,0.56696428,-0.42522322)"
       style="font-style:normal;font-variant:normal;font-weight:normal;font-stretch:normal;font-size:2.80063891px;line-height:1.25;font-family:impact;-inkscape-font-specification:impact;letter-spacing:0px;word-spacing:0px;display:inline;fill:#f2f200;fill-opacity:1;stroke:#000000;stroke-width:0.1;stroke-miterlimit:4;stroke-dasharray:none;stroke-opacity:1"
       id="text7000"
       inkscape:path-effect="#path-effect7027"
       inkscape:export-xdpi="96"
       inkscape:export-ydpi="96">
      <path
         d="m 81.756787,113.13715 c 0.192659,-0.007 0.384938,-0.0149 0.577701,-0.024 0.156679,-0.007 0.278256,-3.3e-4 0.366814,0.0232 0.08904,0.0234 0.158113,0.0606 0.205906,0.11106 0.04865,0.0503 0.08278,0.11206 0.101114,0.18403 0.01954,0.0722 0.02995,0.17905 0.02871,0.32351 -5.65e-4,0.0655 -0.0018,0.13311 -0.003,0.19749 -0.0027,0.1428 -0.01925,0.24755 -0.04904,0.31204 -0.03005,0.065 -0.0845,0.11461 -0.163867,0.14858 -0.07851,0.034 -0.181219,0.05 -0.308917,0.0486 -0.05225,-6e-4 -0.10449,-0.001 -0.15675,-0.002 0.0021,0.24424 0.0206,0.65866 0.0019,0.92535 -0.192169,-0.0159 -0.383956,-0.0295 -0.57632,-0.0408 0.0015,-0.0265 -0.01941,-2.17794 -0.02429,-2.20748 z m 0.608902,0.37328 c 0.0039,0.17696 -0.004,0.39685 -0.0075,0.56878 0.01662,7.5e-4 0.03094,0.001 0.04296,0.001 0.05361,3e-4 0.09082,-0.0122 0.111704,-0.0377 0.02175,-0.0263 0.03373,-0.0808 0.03556,-0.16334 0.0013,-0.0605 0.0026,-0.12301 0.0031,-0.1843 6.46e-4,-0.0772 -0.01206,-0.12801 -0.03634,-0.15131 -0.02432,-0.0233 -0.07415,-0.0345 -0.149451,-0.0337 0,0 1.9e-5,4e-4 1.9e-5,4e-4 z"
         style="font-style:normal;font-variant:normal;font-weight:normal;font-stretch:normal;font-family:impact;-inkscape-font-specification:impact;fill:#f2f200;fill-opacity:1;stroke:#000000;stroke-width:0.1;stroke-miterlimit:4;stroke-dasharray:none;stroke-opacity:1"
         id="path7002"
         inkscape:original-d="m 81.853792,113.24829 h 0.57982 q 0.23521,0 0.36102,0.0369 0.127177,0.0369 0.190082,0.10667 0.06427,0.0697 0.08615,0.16957 0.02325,0.0985 0.02325,0.30632 v 0.19282 q 0,0.21196 -0.04376,0.30905 -0.04376,0.0971 -0.161365,0.14906 -0.116237,0.052 -0.304952,0.052 h -0.154528 v 0.89161 h -0.575717 z m 0.575717,0.3788 v 0.56341 q 0.02461,0.001 0.04239,0.001 0.07931,0 0.1094,-0.0383 0.03145,-0.0397 0.03145,-0.16274 v -0.18187 q 0,-0.11351 -0.03556,-0.14769 -0.03555,-0.0342 -0.14769,-0.0342 z"
         inkscape:connector-curvature="0" />
      <path
         d="m 83.732686,113.03066 c 0.0649,0.37302 0.05002,1.65135 0.04986,1.94924 0.117496,0.007 0.23481,0.014 0.352149,0.0215 -7.72e-4,0.17379 -0.005,0.37068 -0.02297,0.57887 -0.308609,-0.0411 -0.615381,-0.0795 -0.924386,-0.11394 0.02262,-0.2764 0.01303,-2.16025 -0.02926,-2.39804 0.191585,-0.0117 0.382858,-0.0243 0.574611,-0.0376 z"
         style="font-style:normal;font-variant:normal;font-weight:normal;font-stretch:normal;font-family:impact;-inkscape-font-specification:impact;fill:#f2f200;fill-opacity:1;stroke:#000000;stroke-width:0.1;stroke-miterlimit:4;stroke-dasharray:none;stroke-opacity:1"
         id="path7004"
         inkscape:original-d="m 83.835299,113.24829 v 1.77091 h 0.35008 v 0.44307 h -0.925797 v -2.21398 z"
         inkscape:connector-curvature="0" />
      <path
         d="m 85.288768,112.91091 c 0.125929,0.51901 0.350906,2.22276 0.354365,2.88311 -0.195649,-0.0273 -0.391867,-0.0551 -0.587562,-0.0829 0.0085,-0.21584 0.0055,-0.41305 -0.0011,-0.58768 0.0089,6.8e-4 -0.215654,-0.0164 -0.20678,-0.0158 -0.0138,0.1689 -0.03199,0.36096 -0.06078,0.56547 -0.198424,-0.0279 -0.39619,-0.0554 -0.594726,-0.0821 0.07453,-0.41448 0.290424,-2.2268 0.263249,-2.61352 0.278038,-0.0214 0.554812,-0.0438 0.8333,-0.0666 z m -0.248723,1.73008 c -0.02971,-0.28883 -0.04739,-0.59751 -0.08797,-1.038 -0.04543,0.50735 -0.09571,0.80828 -0.109855,1.02997 0.0057,2.3e-4 0.192122,0.008 0.197829,0.008 z"
         style="font-style:normal;font-variant:normal;font-weight:normal;font-stretch:normal;font-family:impact;-inkscape-font-specification:impact;fill:#f2f200;fill-opacity:1;stroke:#000000;stroke-width:0.1;stroke-miterlimit:4;stroke-dasharray:none;stroke-opacity:1"
         id="path7006"
         inkscape:original-d="m 85.391513,113.24829 0.329568,2.21398 h -0.589393 l -0.02872,-0.39794 h -0.206493 l -0.03419,0.39794 h -0.59623 l 0.292645,-2.21398 z m -0.304952,1.42357 q -0.04376,-0.37606 -0.08752,-0.92853 -0.08752,0.63452 -0.1094,0.92853 z"
         inkscape:connector-curvature="0" />
      <path
         d="m 87.007753,112.7708 c 0.06468,0.66628 0.06265,2.42521 0.015,3.19937 -0.167783,-0.0185 -0.335394,-0.0384 -0.503123,-0.0594 -0.05237,-0.62525 -0.172631,-1.11388 -0.263459,-1.47841 -9.93e-4,0.31001 0.0046,0.8959 -0.03508,1.44014 -0.159961,-0.021 -0.319855,-0.0427 -0.479811,-0.0649 0.04988,-0.63678 0.04931,-2.39203 -0.02369,-2.93214 -0.286778,0.0237 0.769486,-0.0636 0.482708,-0.0399 0.130548,0.41595 0.314232,1.11857 0.378624,1.35705 0.0013,-0.34573 0.0069,-0.83387 -0.05471,-1.38349 0.161113,-0.013 0.322263,-0.0259 0.483545,-0.0384 z"
         style="font-style:normal;font-variant:normal;font-weight:normal;font-stretch:normal;font-family:impact;-inkscape-font-specification:impact;fill:#f2f200;fill-opacity:1;stroke:#000000;stroke-width:0.1;stroke-miterlimit:4;stroke-dasharray:none;stroke-opacity:1"
         id="path7008"
         inkscape:original-d="m 87.10499,113.24829 v 2.21398 H 86.600383 L 86.3009,114.45579 v 1.00648 h -0.481359 v -2.21398 H 86.3009 l 0.32273,0.99691 v -0.99691 z"
         inkscape:connector-curvature="0" />
      <path
         d="m 87.238713,112.75311 c 0.322043,-0.0243 0.643616,-0.047 0.966313,-0.0673 0.01655,0.29529 0.0241,0.5518 0.02783,0.77204 -0.02901,7.8e-4 -0.351875,0.009 -0.380883,0.0102 0.0043,0.20269 0.0049,0.39679 0.0048,0.56812 0.118669,-3.2e-4 0.23713,-7.8e-4 0.35561,-0.001 -9.1e-5,0.14277 -8.47e-4,0.38682 -0.0013,0.53066 -0.1185,-0.001 -0.236984,-0.003 -0.355673,-0.005 -6.29e-4,0.18811 -0.0014,0.44192 -0.0049,0.67895 0.139548,0.006 0.278862,0.0105 0.418237,0.0146 -0.0029,0.23152 -0.0083,0.50731 -0.02058,0.82195 -0.332792,-0.0197 -0.663973,-0.0477 -0.996325,-0.0818 0.04588,-0.79389 0.04825,-2.55568 -0.01317,-3.24149 z"
         style="font-style:normal;font-variant:normal;font-weight:normal;font-stretch:normal;font-family:impact;-inkscape-font-specification:impact;fill:#f2f200;fill-opacity:1;stroke:#000000;stroke-width:0.1;stroke-miterlimit:4;stroke-dasharray:none;stroke-opacity:1"
         id="path7010"
         inkscape:original-d="m 87.33473,113.24829 h 0.959985 v 0.44307 h -0.384268 v 0.41982 H 88.2701 v 0.42119 h -0.359653 v 0.48683 h 0.422558 v 0.44307 H 87.33473 Z"
         inkscape:connector-curvature="0" />
      <path
         d="m 89.54257,112.61797 c 0.0023,0.30953 0.003,0.57855 0.0032,0.80708 -0.0066,1.5e-4 -0.332053,0.008 -0.338627,0.008 0.0019,0.4042 8.48e-4,1.88665 -0.01292,2.67559 -0.036,-2.8e-4 -0.07201,-6.7e-4 -0.108017,-0.001 -0.156051,-0.002 -0.311864,-0.006 -0.46777,-0.0124 0.0241,-0.78097 0.02397,-2.25224 0.01921,-2.64765 -0.01149,3e-4 -0.325595,0.009 -0.337086,0.009 -0.0036,-0.22086 -0.01079,-0.47819 -0.02666,-0.77452 0.271728,-0.0168 0.543094,-0.0317 0.81525,-0.0443 0.151163,-0.007 0.302223,-0.0136 0.453394,-0.0192 z"
         style="font-style:normal;font-variant:normal;font-weight:normal;font-stretch:normal;font-family:impact;-inkscape-font-specification:impact;fill:#f2f200;fill-opacity:1;stroke:#000000;stroke-width:0.1;stroke-miterlimit:4;stroke-dasharray:none;stroke-opacity:1"
         id="path7012"
         inkscape:original-d="m 89.621189,113.24829 v 0.44307 h -0.341875 v 1.77091 h -0.575717 v -1.77091 H 88.36309 v -0.44307 z"
         inkscape:connector-curvature="0" />
      <path
         d="m 90.171195,112.59897 c 0.159856,-0.004 0.319565,-0.006 0.479406,-0.008 0.03324,-3.5e-4 0.06648,-6.4e-4 0.09972,-8.5e-4 0.183493,-0.001 0.320242,0.0304 0.411493,0.0896 0.09236,0.0594 0.162106,0.17702 0.213906,0.33556 0.05129,0.15516 0.07301,0.39461 0.06995,0.66367 -0.0021,0.18213 -0.02233,0.2981 -0.06321,0.36482 -0.03974,0.0663 -0.118725,0.11746 -0.236541,0.15432 0.131126,0.0359 0.220402,0.0977 0.267024,0.18508 0.04681,0.0866 0.06998,0.21959 0.07011,0.41363 6e-5,0.0916 2.23e-4,0.1906 6.7e-4,0.29151 9.85e-4,0.22249 -0.01375,0.41844 -0.04568,0.55292 -0.03125,0.13535 -0.08256,0.23927 -0.155917,0.29973 -0.07302,0.0602 -0.225516,0.10192 -0.456491,0.11725 -0.06333,0.004 -0.126663,0.008 -0.190005,0.0119 -0.158485,0.009 -0.316851,0.0171 -0.475421,0.0232 -0.002,-0.98897 -6.39e-4,-2.55253 0.01099,-3.49429 z m 0.564386,0.70158 c -0.0039,0.26362 -0.0052,0.50493 -0.0058,0.71389 0.02425,-0.001 0.04312,-0.002 0.05659,-0.002 0.05567,-8.9e-4 0.09127,-0.0193 0.106663,-0.0557 0.01557,-0.038 0.02324,-0.14207 0.02507,-0.33169 9.74e-4,-0.10115 -0.0043,-0.17645 -0.01627,-0.21952 -0.01199,-0.0446 -0.02816,-0.0734 -0.04877,-0.0851 -0.01967,-0.0117 -0.05885,-0.0181 -0.11753,-0.019 0,0 2.1e-5,-7e-4 2.1e-5,-7e-4 z m -0.0066,1.15686 c -2.3e-4,0.22623 -5.95e-4,0.58175 5.63e-4,0.88651 0.08015,-0.008 0.130874,-0.0313 0.152348,-0.0693 0.02236,-0.0379 0.03323,-0.12891 0.03303,-0.2608 -6e-6,-0.004 -1.43e-4,-0.29433 -1.37e-4,-0.29003 3.7e-5,-0.12699 -0.0098,-0.2004 -0.02951,-0.22583 -0.01973,-0.0254 -0.07187,-0.0389 -0.156283,-0.0406 0,0 -8e-6,3e-5 -8e-6,3e-5 z"
         style="font-style:normal;font-variant:normal;font-weight:normal;font-stretch:normal;font-family:impact;-inkscape-font-specification:impact;fill:#f2f200;fill-opacity:1;stroke:#000000;stroke-width:0.1;stroke-miterlimit:4;stroke-dasharray:none;stroke-opacity:1"
         id="path7014"
         inkscape:original-d="m 90.244769,113.24829 h 0.57435 q 0.272132,0 0.411617,0.0424 0.140853,0.0424 0.227005,0.17231 0.08615,0.12854 0.08615,0.41572 0,0.19418 -0.06154,0.27076 -0.06017,0.0766 -0.239312,0.11761 0.199655,0.0451 0.270764,0.15042 0.07111,0.10393 0.07111,0.32 v 0.20512 q 0,0.22427 -0.05196,0.33231 -0.0506,0.10803 -0.162732,0.14769 -0.112135,0.0397 -0.45948,0.0397 h -0.665972 z m 0.575717,0.3788 v 0.4923 q 0.03692,-10e-4 0.05743,-10e-4 0.08478,0 0.108033,-0.041 0.02325,-0.0424 0.02325,-0.23932 0,-0.10393 -0.01915,-0.14495 -0.01914,-0.0424 -0.0506,-0.0533 -0.03008,-0.0109 -0.118973,-0.0123 z m 0,0.83691 v 0.61948 q 0.121708,-0.004 0.154528,-0.0383 0.03419,-0.0342 0.03419,-0.16821 v -0.20649 q 0,-0.14222 -0.03008,-0.1723 -0.03008,-0.0301 -0.15863,-0.0342 z"
         inkscape:connector-curvature="0" />
      <path
         d="m 92.342653,114.29733 c 4e-6,-0.006 -1.52e-4,0.47245 -1.55e-4,0.47819 -0.240136,0.01 -0.479478,0.0187 -0.718885,0.0274 -5e-6,-0.006 1.61e-4,-0.4978 1.66e-4,-0.49131 -0.117026,0.002 0.835901,-0.0166 0.718874,-0.0143 z"
         style="font-style:normal;font-variant:normal;font-weight:normal;font-stretch:normal;font-family:impact;-inkscape-font-specification:impact;fill:#f2f200;fill-opacity:1;stroke:#000000;stroke-width:0.1;stroke-miterlimit:4;stroke-dasharray:none;stroke-opacity:1"
         id="path7016"
         inkscape:original-d="m 92.45328,114.36417 v 0.38153 h -0.726142 v -0.38153 z"
         inkscape:connector-curvature="0" />
      <path
         d="m 92.56402,112.64153 c 0.192631,0.0116 0.384841,0.025 0.577165,0.0398 0.182246,0.0141 0.316545,0.0532 0.403801,0.11183 0.08853,0.0589 0.15195,0.16649 0.198273,0.30817 0.04549,0.13737 0.06274,0.35169 0.05891,0.59277 -0.0026,0.16462 -0.02217,0.26947 -0.06352,0.33028 -0.03997,0.0601 -0.119682,0.10624 -0.238716,0.13942 0.132634,0.0338 0.22315,0.0908 0.270406,0.17034 0.04753,0.0789 0.07082,0.19924 0.07045,0.37167 -1.75e-4,0.0807 -2.83e-4,0.16861 1.17e-4,0.25565 8.85e-4,0.19215 -0.01271,0.35887 -0.04266,0.4719 -0.02942,0.11435 -0.0785,0.20302 -0.150399,0.25738 -0.07144,0.0541 -0.223306,0.0982 -0.454,0.12713 -0.22154,0.0278 -0.442786,0.0548 -0.664302,0.0804 -0.03569,-0.72499 -0.03646,-2.4957 0.03447,-3.25674 z m 0.528426,0.68619 c -0.01084,0.24125 -0.0127,0.46841 -0.01325,0.6624 0.02448,-9.1e-4 0.04355,-0.001 0.05715,-0.001 0.05622,-2e-4 0.09216,-0.0169 0.107685,-0.0505 0.01603,-0.0358 0.02297,-0.13077 0.02652,-0.30608 0.0019,-0.093 -0.0021,-0.16208 -0.01334,-0.20189 -0.01121,-0.0412 -0.02676,-0.0681 -0.04719,-0.0797 -0.01947,-0.0115 -0.05869,-0.019 -0.117591,-0.0222 0,0 1.9e-5,-6.5e-4 1.9e-5,-6.5e-4 z m -0.01349,1.07465 c -9.1e-5,0.19872 -0.0014,0.54501 0.0025,0.8016 0.08064,-0.01 0.131576,-0.032 0.15294,-0.066 0.02226,-0.034 0.0327,-0.11424 0.03234,-0.2317 -2.67e-4,-0.0881 -1.89e-4,-0.17903 -9e-5,-0.26091 1.39e-4,-0.11536 -0.0097,-0.18276 -0.02973,-0.20608 -0.01993,-0.0233 -0.07266,-0.0356 -0.157939,-0.0369 0,0 -7e-6,2e-5 -7e-6,2e-5 z"
         style="font-style:normal;font-variant:normal;font-weight:normal;font-stretch:normal;font-family:impact;-inkscape-font-specification:impact;fill:#f2f200;fill-opacity:1;stroke:#000000;stroke-width:0.1;stroke-miterlimit:4;stroke-dasharray:none;stroke-opacity:1"
         id="path7018"
         inkscape:original-d="m 92.618748,113.24829 h 0.574349 q 0.272133,0 0.411618,0.0424 0.140852,0.0424 0.227005,0.17231 0.08615,0.12854 0.08615,0.41572 0,0.19418 -0.06154,0.27076 -0.06017,0.0766 -0.239313,0.11761 0.199655,0.0451 0.270765,0.15042 0.07111,0.10393 0.07111,0.32 v 0.20512 q 0,0.22427 -0.05196,0.33231 -0.0506,0.10803 -0.162732,0.14769 -0.112135,0.0397 -0.45948,0.0397 h -0.665972 z m 0.575717,0.3788 v 0.4923 q 0.03692,-10e-4 0.05744,-10e-4 0.08478,0 0.108032,-0.041 0.02325,-0.0424 0.02325,-0.23932 0,-0.10393 -0.01914,-0.14495 -0.01914,-0.0424 -0.0506,-0.0533 -0.03008,-0.0109 -0.118972,-0.0123 z m 0,0.83691 v 0.61948 q 0.121707,-0.004 0.154527,-0.0383 0.03419,-0.0342 0.03419,-0.16821 v -0.20649 q 0,-0.14222 -0.03008,-0.1723 -0.03008,-0.0301 -0.15863,-0.0342 z"
         inkscape:connector-curvature="0" />
      <path
         d="m 95.111254,112.8729 c -0.03508,0.4915 0.210157,2.2855 0.284404,2.66776 -0.196441,0.0228 -0.392383,0.0465 -0.588706,0.0709 -0.02562,-0.19802 -0.04068,-0.38401 -0.05174,-0.54812 -0.0026,1.6e-4 -0.204079,0.0129 -0.206659,0.013 -0.0094,0.1695 -0.01562,0.36013 -0.01058,0.56894 -0.19867,0.0252 -0.396504,0.0508 -0.595091,0.0765 0.0035,-0.55751 0.208161,-2.36478 0.336052,-2.93784 0.278287,0.0282 0.554735,0.0581 0.83232,0.0888 z m -0.371757,1.72711 c -0.01505,-0.1522 -0.07376,-0.72712 -0.0841,-1.05737 -0.05538,0.39646 -0.10622,0.95948 -0.11351,1.06297 -0.0014,4e-5 0.199017,-0.006 0.19761,-0.006 z"
         style="font-style:normal;font-variant:normal;font-weight:normal;font-stretch:normal;font-family:impact;-inkscape-font-specification:impact;fill:#f2f200;fill-opacity:1;stroke:#000000;stroke-width:0.1;stroke-miterlimit:4;stroke-dasharray:none;stroke-opacity:1"
         id="path7020"
         inkscape:original-d="m 95.16093,113.24829 0.329567,2.21398 h -0.589392 l -0.02872,-0.39794 h -0.206492 l -0.03419,0.39794 h -0.596229 l 0.292644,-2.21398 z m -0.304953,1.42357 q -0.04376,-0.37606 -0.08752,-0.92853 -0.08752,0.63452 -0.1094,0.92853 z"
         inkscape:connector-curvature="0" />
      <path
         d="m 96.111716,112.98469 c -0.07126,0.37241 -0.05694,1.71873 -0.05875,1.95902 0.117598,-0.005 0.235177,-0.009 0.352952,-0.0127 -0.002,0.15626 -0.0014,0.32831 0.01376,0.50243 -0.309258,0.0284 -0.616745,0.0607 -0.925638,0.0959 -0.03015,-0.34918 -0.02811,-2.2032 0.04418,-2.60878 -0.415053,-0.0466 0.988545,0.1107 0.573492,0.0641 z"
         style="font-style:normal;font-variant:normal;font-weight:normal;font-stretch:normal;font-family:impact;-inkscape-font-specification:impact;fill:#f2f200;fill-opacity:1;stroke:#000000;stroke-width:0.1;stroke-miterlimit:4;stroke-dasharray:none;stroke-opacity:1"
         id="path7022"
         inkscape:original-d="m 96.164674,113.24829 v 1.77091 h 0.35008 v 0.44307 h -0.925797 v -2.21398 z"
         inkscape:connector-curvature="0" />
      <path
         d="m 97.172164,113.09573 c -0.135568,0.64734 -0.02688,1.2114 -0.04218,1.81659 0.118128,-0.002 0.236211,-0.004 0.354497,-0.005 -0.0047,0.1454 -0.008,0.30014 0.0032,0.44667 -0.309771,0.0175 -0.617692,0.0401 -0.927029,0.0672 -0.01713,-0.1978 -0.0074,-2.14992 0.03949,-2.38313 0.190757,0.0202 0.381524,0.0397 0.572072,0.058 z"
         style="font-style:normal;font-variant:normal;font-weight:normal;font-stretch:normal;font-family:impact;-inkscape-font-specification:impact;fill:#f2f200;fill-opacity:1;stroke:#000000;stroke-width:0.1;stroke-miterlimit:4;stroke-dasharray:none;stroke-opacity:1"
         id="path7024"
         inkscape:original-d="m 97.231323,113.24829 v 1.77091 h 0.35008 v 0.44307 h -0.925797 v -2.21398 z"
         inkscape:connector-curvature="0" />
    </g>
    <ellipse
       style="display:inline;opacity:1;fill:#ff9400;fill-opacity:1;stroke:#000000;stroke-width:0.37200001;stroke-miterlimit:4;stroke-dasharray:none;stroke-opacity:1;paint-order:fill markers stroke"
       id="path7029"
       cx="92.450188"
       cy="119.58314"
       rx="6.7207618"
       ry="6.2948012"
       inkscape:export-xdpi="96"
       inkscape:export-ydpi="96" />
  </g>
  <g
     inkscape:groupmode="layer"
     id="layer17"
     inkscape:label="bbal lines"
     style="display:inline"
     transform="translate(-84.476713,-109.16048)">
    <path
       style="opacity:1;fill:none;fill-opacity:1;stroke:#000000;stroke-width:1.47779524;stroke-miterlimit:4;stroke-dasharray:none;stroke-opacity:1;paint-order:fill markers stroke"
       d="m 360.18164,438.56641 a 28.775293,25.80797 0 0 0 -28.77344,25.80664 28.775293,25.80797 0 0 0 0.52344,4.8125 25.401304,23.791375 0 0 0 17.48633,6.57422 25.401304,23.791375 0 0 0 25.40234,-23.79297 25.401304,23.791375 0 0 0 -3,-11.17578 28.775293,25.80797 0 0 0 -11.63867,-2.22461 z"
       transform="scale(0.26458333)"
       id="path7029-9"
       inkscape:connector-curvature="0"
       inkscape:export-xdpi="96"
       inkscape:export-ydpi="96" />
    <path
       style="opacity:1;fill:none;fill-opacity:1;stroke:#000000;stroke-width:1.75370085;stroke-miterlimit:4;stroke-dasharray:none;stroke-opacity:1;paint-order:fill markers stroke"
       d="m 336.8125,432.14648 a 20.818125,26.520232 57.562966 0 0 -1.57812,0.10743 25.401304,23.791375 0 0 0 -11.2168,19.71289 25.401304,23.791375 0 0 0 16.04687,22.09765 20.818125,26.520232 57.562966 0 0 15.80078,-30.65429 20.818125,26.520232 57.562966 0 0 -19.05273,-11.26368 z"
       transform="scale(0.26458333)"
       id="path7029-3"
       inkscape:connector-curvature="0"
       inkscape:export-xdpi="96"
       inkscape:export-ydpi="96" />
    <path
       style="opacity:1;fill:none;fill-opacity:1;stroke:#000000;stroke-width:1.432441;stroke-miterlimit:4;stroke-dasharray:none;stroke-opacity:1;paint-order:fill markers stroke"
       d="m 342.27344,429.15234 a 25.401304,23.791375 0 0 0 -18.25586,22.81446 25.401304,23.791375 0 0 0 25.40039,23.79297 25.401304,23.791375 0 0 0 0.24609,-0.008 24.41697,26.817438 62.595031 0 0 15.03125,-26.84961 24.41697,26.817438 62.595031 0 0 -22.42187,-19.75 z"
       transform="scale(0.26458333)"
       id="path7029-5"
       inkscape:connector-curvature="0"
       inkscape:export-xdpi="96"
       inkscape:export-ydpi="96" />
  </g>
</svg>
