<?xml version="1.0" encoding="UTF-8" standalone="no"?>
<!-- Created with Inkscape (http://www.inkscape.org/) -->

<svg
   xmlns:dc="http://purl.org/dc/elements/1.1/"
   xmlns:cc="http://creativecommons.org/ns#"
   xmlns:rdf="http://www.w3.org/1999/02/22-rdf-syntax-ns#"
   xmlns:svg="http://www.w3.org/2000/svg"
   xmlns="http://www.w3.org/2000/svg"
   xmlns:sodipodi="http://sodipodi.sourceforge.net/DTD/sodipodi-0.dtd"
   xmlns:inkscape="http://www.inkscape.org/namespaces/inkscape"
   width="34.557648mm"
   height="13.92882mm"
   viewBox="0 0 34.557648 13.92882"
   version="1.1"
   id="svg7989"
   inkscape:version="0.92.1 r15371"
   sodipodi:docname="pressboxshuttle.svg">
  <defs
     id="defs7983">
    <inkscape:path-effect
       bendpath3-nodetypes="cc"
       bendpath1-nodetypes="cc"
       bendpath4="m 155.9308,248.15668 v 2.18413"
       bendpath3="m 155.9308,250.34081 c 0,0 14.10157,1.8126 20.42687,0"
       bendpath2="m 176.35767,248.15668 v 2.18413"
       bendpath1="m 155.9308,248.15668 c 4.40969,-0.18139 13.90279,-0.88274 20.42687,0"
       xx="true"
       yy="true"
       is_visible="true"
       id="path-effect4656"
       effect="envelope" />
  </defs>
  <sodipodi:namedview
     id="base"
     pagecolor="#ffffff"
     bordercolor="#666666"
     borderopacity="1.0"
     inkscape:pageopacity="0.0"
     inkscape:pageshadow="2"
     inkscape:zoom="3.959798"
     inkscape:cx="32.985337"
     inkscape:cy="19.543798"
     inkscape:document-units="mm"
     inkscape:current-layer="layer1"
     showgrid="false"
     inkscape:window-width="3440"
     inkscape:window-height="1377"
     inkscape:window-x="1072"
     inkscape:window-y="127"
     inkscape:window-maximized="1" />
  <metadata
     id="metadata7986">
    <rdf:RDF>
      <cc:Work
         rdf:about="">
        <dc:format>image/svg+xml</dc:format>
        <dc:type
           rdf:resource="http://purl.org/dc/dcmitype/StillImage" />
        <dc:title></dc:title>
      </cc:Work>
    </rdf:RDF>
  </metadata>
  <g
     inkscape:label="Layer 1"
     inkscape:groupmode="layer"
     id="layer1"
     transform="translate(-56.048557,-104.82726)">
    <g
       id="g8642"
       transform="translate(56.048557,104.82726)">
      <g
         transform="translate(-147.849,-229.8483)"
         inkscape:label="red 1"
         id="layer7" />
      <g
         transform="translate(-147.849,-229.8483)"
         style="display:inline;opacity:1"
         inkscape:label="red"
         id="layer2">
        <path
           inkscape:export-ydpi="96"
           inkscape:export-xdpi="96"
           sodipodi:nodetypes="ccccccccccccccccccccccccccccccccccccccccccc"
           inkscape:connector-curvature="0"
           id="path4496"
           d="m 148.08402,242.00929 c -0.418,0.44996 -0.1064,0.93526 0.23386,0.81851 0.66,-0.6487 2.04198,-1.01048 2.30687,-0.84023 -1.21444,0.96474 -2.7643,2.04934 1.25116,0.7233 1.43762,2.56808 5.92163,0.23865 9.83886,-4.2262 l -0.25057,-0.4009 c 0.37922,0.0191 0.71681,-0.12838 1.05237,-0.28397 -0.33908,0.49565 -1.60064,1.35003 -0.50113,1.28623 1.69956,-0.06 2.97206,-0.66988 4.62711,-1.35305 l 0.0668,-1.11919 c 0.89647,-0.0445 2.51354,0.2737 2.6894,-0.13364 l 0.10022,0.13364 c -1.14145,0.49973 -0.9613,0.80688 -0.15033,0.81851 0.50399,-0.008 1.92757,-0.0638 2.63927,-0.58466 1.33037,-0.99994 0.38527,-0.63608 -0.28396,-0.68487 l -0.80181,0.0167 c -0.23394,-0.18708 -0.13185,-0.44136 -0.16705,-0.66818 l 0.7517,-0.41761 c 1.69434,0.82895 1.24221,-0.0286 1.1526,-0.60135 l 1.90429,-0.81852 c 0.54993,-0.52949 0.90577,-1.13662 1.23612,-1.75395 -1.56971,0.0642 -3.0794,0.48854 -4.56028,1.08578 -0.21022,-0.3251 -0.43847,-0.51925 -0.36749,-1.28623 0.38759,-0.0183 0.50774,-0.09 0.68487,-0.15035 2.0771,-1.02436 1.69166,-1.26941 -0.55124,-1.08577 -0.88682,0.1043 -1.65717,0.49212 -2.32191,0.81851 -1.24679,0.70899 -1.24756,0.9948 -0.13363,0.90203 0.11677,0.20594 0.0377,0.31396 -0.0167,0.43431 -0.68837,0.10143 -1.04784,0.614 -1.38647,1.1526 -1.36419,-0.0385 -2.72837,-0.25934 -4.09256,0.20045 -0.30551,-0.0466 -0.21836,-0.22418 -0.28397,-0.35079 0.37767,-0.35616 0.79045,-0.40118 1.5535,-0.63477 -0.61319,-0.31877 -1.43103,-0.30637 -1.98782,0.25057 -1.17866,-0.53038 -1.2568,-1.45151 -1.67043,-2.3219 2.24674,-0.8513 2.39024,-1.20222 -0.20045,-1.05237 -0.6932,0.0402 -1.48123,0.27212 -2.26344,0.62391 -1.30589,0.71686 -1.01899,1.19633 -0.0585,1.04652 l 1.05238,-0.26727 c -0.06,0.32901 -0.15079,0.64572 -0.51784,0.85192 -1.85909,0.26567 -3.59811,0.68503 -4.35983,2.35532 -6.1676,1.74326 -5.87731,4.49011 -5.61266,7.23298 -0.33683,-0.008 -0.42697,0.16976 -0.60134,0.28398 z"
           style="opacity:1;vector-effect:none;fill:#ff020c;fill-opacity:1;stroke:none;stroke-width:0.26458332px;stroke-linecap:butt;stroke-linejoin:miter;stroke-miterlimit:4;stroke-dasharray:none;stroke-dashoffset:0;stroke-opacity:1" />
        <text
           id="text4618"
           y="241.20079"
           x="161.76154"
           style="font-style:normal;font-weight:normal;font-size:10.58333302px;line-height:1.25;font-family:sans-serif;letter-spacing:0px;word-spacing:0px;fill:#000000;fill-opacity:1;stroke:none;stroke-width:0.26458332"
           xml:space="preserve"><tspan
             style="stroke-width:0.26458332"
             y="250.85629"
             x="161.76154"
             id="tspan4616"
             sodipodi:role="line" /></text>
      </g>
      <g
         transform="translate(-147.849,-229.8483)"
         style="display:inline"
         inkscape:label="white "
         id="layer3">
        <path
           inkscape:export-ydpi="96"
           inkscape:export-xdpi="96"
           inkscape:connector-curvature="0"
           id="path4501"
           d="m 152.6109,239.40341 8.4524,-2.40542 -0.60136,0.88533 -8.00138,2.10475 -0.40091,-0.86863 0.51784,-0.51784 11.60952,-3.24064 -0.11693,0.61806 -11.55941,3.14042 z"
           style="opacity:1;vector-effect:none;fill:#ffffff;fill-opacity:1;stroke:none;stroke-width:0.26458332px;stroke-linecap:butt;stroke-linejoin:miter;stroke-miterlimit:4;stroke-dasharray:none;stroke-dashoffset:0;stroke-opacity:1" />
        <path
           inkscape:export-ydpi="96"
           inkscape:export-xdpi="96"
           sodipodi:nodetypes="ccccc"
           inkscape:connector-curvature="0"
           id="path4503"
           d="m 167.74503,234.67608 c 0.27321,0.12978 0.56794,0.22942 0.91874,0.25057 0.35637,-0.0724 0.69264,-0.18493 1.00226,-0.35079 0.13489,-0.18357 0.13457,-0.38645 0.16705,-0.58465 -0.75708,0.0985 -1.45569,0.32132 -2.08805,0.68487 z"
           style="opacity:1;vector-effect:none;fill:#ffffff;fill-opacity:1;stroke:none;stroke-width:0.26458332px;stroke-linecap:butt;stroke-linejoin:miter;stroke-miterlimit:4;stroke-dasharray:none;stroke-dashoffset:0;stroke-opacity:1" />
        <path
           inkscape:export-ydpi="96"
           inkscape:export-xdpi="96"
           sodipodi:nodetypes="ccccc"
           inkscape:connector-curvature="0"
           id="path4505"
           d="m 169.08138,231.33521 c -0.3356,0.22037 -0.53731,0.41712 0.18375,0.45102 0.65199,-0.12163 1.28761,-0.20274 2.03793,-0.56795 0.45813,-0.30383 0.45124,-0.47649 -0.31738,-0.43431 -0.64724,0.10893 -1.28829,0.25496 -1.9043,0.55124 z"
           style="opacity:1;vector-effect:none;fill:#ffffff;fill-opacity:1;stroke:none;stroke-width:0.26458332px;stroke-linecap:butt;stroke-linejoin:miter;stroke-miterlimit:4;stroke-dasharray:none;stroke-dashoffset:0;stroke-opacity:1" />
        <path
           inkscape:export-ydpi="96"
           inkscape:export-xdpi="96"
           sodipodi:nodetypes="ccccc"
           inkscape:connector-curvature="0"
           id="path4505-6"
           d="m 169.32005,236.80042 c -0.31131,0.22089 -0.49842,0.41812 0.17045,0.45209 0.60482,-0.12192 1.19444,-0.20322 1.89045,-0.5693 0.42498,-0.30455 0.41859,-0.47762 -0.2944,-0.43534 -0.60041,0.10919 -1.19506,0.25556 -1.7665,0.55255 z"
           style="opacity:1;vector-effect:none;fill:#ffffff;fill-opacity:1;stroke:none;stroke-width:0.25513238px;stroke-linecap:butt;stroke-linejoin:miter;stroke-miterlimit:4;stroke-dasharray:none;stroke-dashoffset:0;stroke-opacity:1" />
        <path
           inkscape:export-ydpi="96"
           inkscape:export-xdpi="96"
           sodipodi:nodetypes="cccccc"
           inkscape:connector-curvature="0"
           id="path4528"
           d="m 174.25973,233.54019 c -0.38333,0.23386 -0.33961,0.46772 -0.0334,0.70158 0.37852,0.19761 1.28794,-0.32642 1.45194,-0.45892 0.19777,-0.2315 -0.0158,-0.0967 -0.38759,-0.35008 -0.26227,0.0712 -0.81439,0.0453 -1.03094,0.10739 z"
           style="opacity:1;vector-effect:none;fill:#ffffff;fill-opacity:1;stroke:none;stroke-width:0.26458332px;stroke-linecap:butt;stroke-linejoin:miter;stroke-miterlimit:4;stroke-dasharray:none;stroke-dashoffset:0;stroke-opacity:1" />
        <path
           inkscape:export-ydpi="96"
           inkscape:export-xdpi="96"
           sodipodi:nodetypes="ccccccc"
           inkscape:connector-curvature="0"
           id="path4530"
           d="m 153.5881,240.70635 0.20881,0.95215 3.24064,-0.99391 0.60971,-0.4009 c 0.31775,-0.47362 0.1527,-0.79868 -0.54289,-0.9605 -0.74995,0.31418 -1.45938,0.36096 -2.17157,0.42596 z"
           style="opacity:1;vector-effect:none;fill:#ffffff;fill-opacity:0.9906977;stroke:none;stroke-width:0.26458332px;stroke-linecap:butt;stroke-linejoin:miter;stroke-miterlimit:4;stroke-dasharray:none;stroke-dashoffset:0;stroke-opacity:1" />
        <path
           inkscape:export-ydpi="96"
           inkscape:export-xdpi="96"
           sodipodi:nodetypes="cccccccc"
           inkscape:connector-curvature="0"
           id="path4532"
           d="m 150.08019,237.76305 c -0.2086,0.68404 0.0688,0.73362 0.53788,0.26894 2.86925,-2.86864 4.43579,-2.69239 6.8989,-3.30914 -2.25061,0.81047 -4.30643,1.78062 -6.43118,3.61315 -1.03323,1.2678 -1.84035,1.67382 -1.94105,0.0819 0.0532,-2.37985 4.09458,-3.62079 4.44337,-3.70669 -0.97931,0.79048 -2.8893,1.67857 -3.50792,3.05187 z"
           style="opacity:1;vector-effect:none;fill:#ffffff;fill-opacity:1;stroke:none;stroke-width:0.26458332px;stroke-linecap:butt;stroke-linejoin:miter;stroke-miterlimit:4;stroke-dasharray:none;stroke-dashoffset:0;stroke-opacity:1" />
        <path
           inkscape:export-ydpi="96"
           inkscape:export-xdpi="96"
           sodipodi:nodetypes="ccccccc"
           inkscape:connector-curvature="0"
           id="path4535"
           d="m 149.02782,239.72748 c -0.18805,-0.67625 -0.0317,-1.25411 -0.0126,-1.87116 -0.30522,0.67842 -0.48076,1.37898 -0.3359,2.13424 0.23116,0.89543 1.15669,0.67746 1.62884,0.28112 3.94877,-3.44392 9.04577,-5.71121 12.93978,-5.86218 -4.33208,-0.78397 -8.95195,1.72272 -13.19609,5.45703 -0.57484,0.36811 -0.88983,0.27498 -1.02403,-0.13905 z"
           style="opacity:1;vector-effect:none;fill:#ffffff;fill-opacity:1;stroke:none;stroke-width:0.26458332px;stroke-linecap:butt;stroke-linejoin:miter;stroke-miterlimit:4;stroke-dasharray:none;stroke-dashoffset:0;stroke-opacity:1" />
        <path
           inkscape:export-ydpi="96"
           inkscape:export-xdpi="96"
           sodipodi:nodetypes="ccccc"
           inkscape:connector-curvature="0"
           id="path4505-9"
           d="m 158.18532,230.6872 c -0.3356,0.22037 -0.53731,0.41712 0.18375,0.45102 0.65199,-0.12163 1.28761,-0.20274 2.03793,-0.56795 0.45813,-0.30383 0.45124,-0.47649 -0.31738,-0.43431 -0.64724,0.10893 -1.28829,0.25496 -1.9043,0.55124 z"
           style="opacity:1;vector-effect:none;fill:#ffffff;fill-opacity:1;stroke:none;stroke-width:0.26458332px;stroke-linecap:butt;stroke-linejoin:miter;stroke-miterlimit:4;stroke-dasharray:none;stroke-dashoffset:0;stroke-opacity:1" />
      </g>
      <g
         transform="translate(-147.849,-229.8483)"
         style="display:inline"
         inkscape:label="green"
         id="layer4">
        <path
           inkscape:export-ydpi="96"
           inkscape:export-xdpi="96"
           sodipodi:nodetypes="cccccccccccccc"
           inkscape:connector-curvature="0"
           id="path4553"
           d="m 170.46116,235.43613 0.37418,0.3391 0.59634,-0.11693 c 1.02784,-1.08604 1.87999,-1.05202 2.79465,-1.41653 -0.14894,-0.24387 -0.0619,-0.473 0.0334,-0.70161 l -7.34741,2.22337 c -0.007,-0.38022 -0.0822,-0.67686 -0.52035,-0.96467 -0.36854,0.17588 -0.82629,0.25933 -1.21023,0.32741 0.43449,0.46322 0.36097,0.72473 0.23386,1.04652 0.3605,0.23258 0.56205,0.64871 0.3508,1.11084 0.3964,-0.10651 0.80465,-0.22226 1.24531,-0.18125 l -0.0702,-0.45603 0.5788,-0.0292 c 0.41412,-0.84492 2.65912,-1.11812 2.94084,-1.18102 z"
           style="opacity:1;vector-effect:none;fill:#0a970b;fill-opacity:1;stroke:none;stroke-width:0.26458332px;stroke-linecap:butt;stroke-linejoin:miter;stroke-miterlimit:4;stroke-dasharray:none;stroke-dashoffset:0;stroke-opacity:1" />
        <path
           inkscape:export-ydpi="96"
           inkscape:export-xdpi="96"
           sodipodi:nodetypes="cccccccc"
           inkscape:connector-curvature="0"
           id="path4555"
           d="m 148.68536,241.72531 3.1254,-0.85776 c 0.48516,0.15301 1.1944,0.21681 1.19853,-0.71327 -0.003,-0.5909 -0.0589,-0.99594 -0.51448,-1.32717 -0.22692,-0.14944 -1.19354,-0.64838 -0.99391,0.66066 -0.72831,0.49888 -1.07201,0.98022 -2.26846,1.28623 -0.40318,-0.68647 -0.58787,-0.85054 -1.01144,-0.63142 -0.36166,0.20955 -0.26578,1.18101 0.46436,1.58273 z"
           style="opacity:1;vector-effect:none;fill:#0a970b;fill-opacity:1;stroke:none;stroke-width:0.26458332px;stroke-linecap:butt;stroke-linejoin:miter;stroke-miterlimit:4;stroke-dasharray:none;stroke-dashoffset:0;stroke-opacity:1" />
        <path
           inkscape:export-ydpi="96"
           inkscape:export-xdpi="96"
           sodipodi:nodetypes="cccccccccccccccsccccccc"
           inkscape:connector-curvature="0"
           id="path4559"
           d="m 153.67048,241.66817 c 0.18102,-0.24345 -0.21806,-0.45118 -0.0797,-0.82531 0.18968,-0.0934 0.007,-0.29999 0.34592,-0.37508 0.27199,0.082 0.65708,0.27528 0.69386,0.3653 0.11823,0.18137 0.0245,0.42539 -0.15584,0.6724 -0.24593,0.30547 -0.60097,0.33726 -0.8761,0.45291 0.17047,0.0995 0.34738,0.19738 0.96738,0.19017 0.73591,-0.17559 1.4636,-0.3654 2.00091,-0.8847 0.28471,-0.21564 0.33051,-0.69841 0.0661,-1.08314 -0.27054,-0.36761 -0.52546,-0.58418 -1.57097,-0.5705 -0.27234,-0.0155 -1.2573,0.0697 -2.01845,0.88027 -0.26155,0.26385 -0.31562,0.73775 -0.0321,1.18678 0.26024,0.30226 0.63065,0.44648 0.99966,0.42245 1.86347,-1.19122 -0.41925,-0.40652 -0.76815,-0.5134 -0.14047,-0.32116 -0.0462,-0.62851 -0.0661,-0.94257 0.3156,-0.10893 0.59121,-0.10524 1.04451,-0.30402 0.38484,-0.16876 0.86894,-0.52288 0.86894,-0.52288 0.17454,-0.15973 1.08893,-0.10487 1.30289,0.46309 0.0427,0.26613 0.004,0.47144 -0.25632,0.51263 l -1.05833,0.11576 c -0.0733,-0.45694 -0.4109,-0.63671 -0.96738,-0.58705 -0.79731,-0.1093 -0.58925,0.11653 -0.88387,0.1748 -0.38521,0.3465 -0.36989,1.39196 0.44309,1.17209 z"
           style="opacity:1;vector-effect:none;fill:#0a970b;fill-opacity:1;stroke:none;stroke-width:0.26458332px;stroke-linecap:butt;stroke-linejoin:miter;stroke-miterlimit:4;stroke-dasharray:none;stroke-dashoffset:0;stroke-opacity:1" />
        <path
           inkscape:export-ydpi="96"
           inkscape:export-xdpi="96"
           sodipodi:nodetypes="ccccccccccc"
           inkscape:connector-curvature="0"
           id="path4561"
           d="m 156.88551,240.95381 0.12816,0.28318 c 0.11738,-0.0553 0.64039,-0.38735 0.88057,-0.94464 0.0261,-0.0657 0.38411,-0.99653 -0.72347,-1.03973 -0.22515,-0.0101 -0.71934,0.15512 -1.11415,0.32865 0.8729,0.33018 0.81336,0.83101 0.88264,1.26091 0.0369,-0.42797 0.24838,-0.89377 -0.339,-1.18649 l 0.48162,-0.0641 c 0.14208,-0.009 0.75987,-3.5e-4 0.46096,0.49815 -0.27404,0.16037 -0.41062,0.21077 -0.58137,0.2885 -0.0249,0.19374 3.1e-4,0.59769 -0.076,0.57554 z"
           style="opacity:1;vector-effect:none;fill:#0a970b;fill-opacity:1;stroke:none;stroke-width:0.26458332px;stroke-linecap:butt;stroke-linejoin:miter;stroke-miterlimit:4;stroke-dasharray:none;stroke-dashoffset:0;stroke-opacity:1" />
        <path
           inkscape:export-ydpi="96"
           inkscape:export-xdpi="96"
           sodipodi:nodetypes="ccccccc"
           inkscape:connector-curvature="0"
           id="path4658"
           d="m 148.31788,242.8278 c 1.48221,-1.10985 2.30687,-0.84023 5.69327,-0.72808 l -0.76815,-0.5134 c -3.30263,0.49852 -3.40565,-0.1059 -4.94455,1.1331 -0.37522,0.11226 -0.40953,-0.18036 -0.40448,-0.3155 -0.14231,0.19037 0.0678,0.54349 0.42387,0.42387 z"
           style="opacity:1;vector-effect:none;fill:#0a970b;fill-opacity:1;stroke:none;stroke-width:0.26458332px;stroke-linecap:butt;stroke-linejoin:miter;stroke-miterlimit:4;stroke-dasharray:none;stroke-dashoffset:0;stroke-opacity:1" />
      </g>
      <g
         transform="translate(-147.849,-229.8483)"
         inkscape:label="black"
         id="layer5">
        <path
           inkscape:export-ydpi="96"
           inkscape:export-xdpi="96"
           sodipodi:nodetypes="ccccc"
           inkscape:connector-curvature="0"
           id="path4564"
           d="m 155.38298,239.61055 c 0.54412,0.0504 1.45981,0.17816 1.36809,1.31254 0.11138,0.0217 0.25244,0.29894 0.2626,0.3139 0.18019,-1.52802 -1.14304,-1.86341 -1.63069,-1.62646 z"
           style="opacity:1;vector-effect:none;fill:#000000;fill-opacity:1;stroke:none;stroke-width:0.26458332px;stroke-linecap:butt;stroke-linejoin:miter;stroke-miterlimit:4;stroke-dasharray:none;stroke-dashoffset:0;stroke-opacity:1" />
        <path
           inkscape:export-ydpi="96"
           inkscape:export-xdpi="96"
           sodipodi:nodetypes="cccccccccccc"
           inkscape:connector-curvature="0"
           id="path4566"
           d="m 156.66337,239.14283 c 0.39736,0.0308 0.70226,-0.12337 1.21023,0.12862 l 0.94129,0.0526 0.12278,0.26894 2.05213,-0.90622 -0.5028,-0.16369 c 0.49938,-0.27809 0.42889,-0.28773 0.9772,-0.43933 0.35079,0.0471 0.70158,-0.11781 1.05237,-0.28397 -0.25414,0.18999 -0.39707,0.39851 -0.56263,0.60326 l 3.06013,-0.9395 -0.7657,-0.34208 z"
           style="opacity:1;vector-effect:none;fill:#000202;fill-opacity:1;stroke:none;stroke-width:0.26458332px;stroke-linecap:butt;stroke-linejoin:miter;stroke-miterlimit:4;stroke-dasharray:none;stroke-dashoffset:0;stroke-opacity:1" />
      </g>
      <g
         transform="translate(-147.849,-229.8483)"
         inkscape:label="orange"
         id="layer6">
        <path
           inkscape:export-ydpi="96"
           inkscape:export-xdpi="96"
           sodipodi:nodetypes="cccc"
           inkscape:connector-curvature="0"
           id="path4569"
           d="m 154.99622,234.31028 5.38262,-1.51308 0.0331,-0.71934 c -0.87695,0.14874 -4.07827,0.54024 -5.41567,2.23242 z"
           style="opacity:1;vector-effect:none;fill:#ff0202;fill-opacity:0.55813958;stroke:none;stroke-width:0.26458332px;stroke-linecap:butt;stroke-linejoin:miter;stroke-miterlimit:4;stroke-dasharray:none;stroke-dashoffset:0;stroke-opacity:1" />
        <path
           inkscape:export-ydpi="96"
           inkscape:export-xdpi="96"
           sodipodi:nodetypes="cccc"
           inkscape:connector-curvature="0"
           id="path4571"
           d="m 161.00515,229.85947 c 0.0791,0.30182 0.0556,0.71635 -0.04,0.95352 l 0.30719,-0.12608 c 2.4496,-0.9863 0.33664,-0.81388 -0.26716,-0.82744 z"
           style="opacity:1;vector-effect:none;fill:#ff8a02;fill-opacity:1;stroke:none;stroke-width:0.26458332px;stroke-linecap:butt;stroke-linejoin:miter;stroke-miterlimit:4;stroke-dasharray:none;stroke-dashoffset:0;stroke-opacity:1" />
        <path
           inkscape:export-ydpi="96"
           inkscape:export-xdpi="96"
           sodipodi:nodetypes="ccccc"
           inkscape:connector-curvature="0"
           id="path4571-2"
           d="m 171.63891,230.65688 c 0.0791,0.30182 -0.006,0.67501 -0.10201,0.91218 l 0.30719,-0.12608 c 2.91262,-1.21781 0.20021,-1.16115 -0.3209,-1.00107 0.0386,0.0664 0.0771,0.10881 0.11572,0.21497 z"
           style="opacity:1;vector-effect:none;fill:#ff8a02;fill-opacity:1;stroke:none;stroke-width:0.26458332px;stroke-linecap:butt;stroke-linejoin:miter;stroke-miterlimit:4;stroke-dasharray:none;stroke-dashoffset:0;stroke-opacity:1" />
        <path
           inkscape:export-ydpi="96"
           inkscape:export-xdpi="96"
           sodipodi:nodetypes="ccccc"
           inkscape:connector-curvature="0"
           id="path4593"
           d="m 174.95714,233.47755 c 0.15496,0.15566 0.0614,0.54624 -0.27894,0.78025 0.37236,0.0125 0.74478,-0.0119 1.17811,-0.19582 0.54854,-0.25397 0.52688,-0.49077 0.001,-0.6384 -0.33103,-0.012 -0.49893,-0.0598 -0.90036,0.054 z"
           style="opacity:1;vector-effect:none;fill:#ff8a02;fill-opacity:1;stroke:none;stroke-width:0.26458332px;stroke-linecap:butt;stroke-linejoin:miter;stroke-miterlimit:4;stroke-dasharray:none;stroke-dashoffset:0;stroke-opacity:1" />
        <path
           inkscape:export-ydpi="96"
           inkscape:export-xdpi="96"
           sodipodi:nodetypes="ccccc"
           inkscape:connector-curvature="0"
           id="path4571-2-1"
           d="m 171.34009,236.37807 c 0.0791,0.30182 -0.0119,0.58439 -0.10786,0.82156 l 0.30427,-0.0969 c 2.78033,-1.41625 -0.29674,-1.03253 -0.31213,-0.93968 0.0386,0.0664 0.0771,0.10881 0.11572,0.21497 z"
           style="opacity:1;vector-effect:none;fill:#ff8a02;fill-opacity:1;stroke:none;stroke-width:0.26458332px;stroke-linecap:butt;stroke-linejoin:miter;stroke-miterlimit:4;stroke-dasharray:none;stroke-dashoffset:0;stroke-opacity:1" />
        <ellipse
           inkscape:export-ydpi="96"
           inkscape:export-xdpi="96"
           transform="matrix(0.98381148,-0.17920651,0.21864805,0.97580379,0,0)"
           ry="0.76585895"
           rx="0.4161365"
           cy="263.38742"
           cx="96.022194"
           id="path4610"
           style="fill:#ff8a02;fill-opacity:1;stroke:#1a1a1f;stroke-width:0;stroke-miterlimit:4;stroke-dasharray:none;stroke-opacity:0;paint-order:fill markers stroke" />
        <ellipse
           inkscape:export-ydpi="96"
           inkscape:export-xdpi="96"
           transform="rotate(-17.730238)"
           ry="0.68419594"
           rx="0.35966796"
           cy="274.6824"
           cx="68.176025"
           id="path4612"
           style="fill:#ff8a02;fill-opacity:1;stroke:#1a1a1f;stroke-width:0;stroke-miterlimit:4;stroke-dasharray:none;stroke-opacity:0;paint-order:fill markers stroke" />
        <ellipse
           inkscape:export-ydpi="96"
           inkscape:export-xdpi="96"
           transform="matrix(0.96222783,-0.27224547,0.1687418,0.98566029,0,0)"
           ry="0.64243442"
           rx="0.80351394"
           cy="275.4649"
           cx="111.86048"
           id="path4614"
           style="fill:#ff8a02;fill-opacity:1;stroke:#1a1a1f;stroke-width:0;stroke-miterlimit:4;stroke-dasharray:none;stroke-opacity:0;paint-order:fill markers stroke" />
        <path
           inkscape:export-ydpi="96"
           inkscape:export-xdpi="96"
           sodipodi:nodetypes="cccc"
           inkscape:connector-curvature="0"
           id="path4660"
           d="m 149.35814,243.30555 c 0.31679,0.12809 2.07254,-0.65714 3.53175,-1.25414 -0.80413,-0.0497 -1.56566,-0.0747 -2.26514,-0.0638 -0.43461,0.32769 -1.67136,1.22682 -1.26661,1.31794 z"
           style="opacity:1;vector-effect:none;fill:#ff8a02;fill-opacity:1;stroke:none;stroke-width:0.26458332px;stroke-linecap:butt;stroke-linejoin:miter;stroke-miterlimit:4;stroke-dasharray:none;stroke-dashoffset:0;stroke-opacity:1" />
      </g>
      <g
         transform="translate(-147.849,-229.8483)"
         inkscape:label="text"
         id="layer8">
        <g
           inkscape:export-ydpi="96"
           inkscape:export-xdpi="96"
           inkscape:path-effect="#path-effect4656"
           id="text4623"
           style="font-style:normal;font-variant:normal;font-weight:normal;font-stretch:normal;font-size:2.65142751px;line-height:1.25;font-family:impact;-inkscape-font-specification:impact;letter-spacing:0px;word-spacing:0px;fill:#f2f200;fill-opacity:1;stroke:#1a1a1f;stroke-width:0.10566597;stroke-miterlimit:4;stroke-dasharray:none;stroke-opacity:0.98139535"
           transform="matrix(1.0341519,0,0,0.96697596,0.08185129,0.17539563)"
           aria-label="PRESS BOX SHUTTLE">
          <path
             inkscape:connector-curvature="0"
             inkscape:original-d="m 155.9308,248.20073 h 0.54893 q 0.22268,0 0.34179,0.035 0.1204,0.035 0.17995,0.10098 0.0608,0.066 0.0816,0.16054 0.022,0.0932 0.022,0.29 v 0.18254 q 0,0.20067 -0.0414,0.29259 -0.0414,0.0919 -0.15276,0.14112 -0.11005,0.0492 -0.28871,0.0492 h -0.14629 v 0.8441 h -0.54505 z m 0.54505,0.35861 v 0.5334 q 0.0233,0.001 0.0401,0.001 0.0751,0 0.10357,-0.0362 0.0298,-0.0375 0.0298,-0.15406 v -0.17219 q 0,-0.10745 -0.0337,-0.13982 -0.0337,-0.0324 -0.13982,-0.0324 z"
             id="path4625"
             style="font-style:normal;font-variant:normal;font-weight:normal;font-stretch:normal;font-family:impact;-inkscape-font-specification:impact;fill:#f2f200;fill-opacity:1;stroke:#1a1a1f;stroke-width:0.10566597;stroke-miterlimit:4;stroke-dasharray:none;stroke-opacity:0.98139535"
             d="m 155.74584,247.95734 c 0.0702,-0.002 0.13566,-0.005 0.2024,-0.008 0,0 0,0 0,0 -5.8e-4,3e-5 0.12267,-0.005 0.12209,-0.005 0,0 0,0 0,0 0.0757,-0.003 0.1514,-0.006 0.22707,-0.01 0.0921,-0.004 0.17138,-0.003 0.23847,0.004 0,0 0,0 0,0 0.041,0.004 0.0773,0.0102 0.10888,0.0185 0.084,0.0218 0.14899,0.0562 0.19392,0.10278 0.0457,0.0465 0.078,0.10387 0.0957,0.17103 0.0187,0.0669 0.0296,0.16793 0.0298,0.30412 8e-5,0.0624 -5e-4,0.1254 -0.001,0.18684 -0.002,0.13524 -0.0176,0.23413 -0.0459,0.29503 -0.0285,0.0614 -0.0802,0.10834 -0.15512,0.14089 -0.0535,0.0235 -0.11896,0.0384 -0.19643,0.0446 0,0 0,0 0,0 0,0 0,0 0,0 -0.0298,0.002 -0.0613,0.004 -0.0947,0.003 8.5e-4,1e-5 -0.14829,-4.9e-4 -0.14744,-4.9e-4 -8.4e-4,0.2815 0.0115,0.56466 0.009,0.85579 -0.0746,-0.002 -0.14936,-0.005 -0.224,-0.007 -0.002,-5e-5 -0.12078,-0.004 -0.12251,-0.004 0,0 0,0 0,0 -0.0676,-0.002 -0.1336,-0.004 -0.18995,-0.005 -0.0204,-0.68992 0.0889,-1.39569 -0.0499,-2.08814 z m 0.58348,0.34939 c 0.006,0.1744 0.002,0.36796 -0.001,0.53855 0.0156,6.9e-4 0.0291,0.001 0.0403,0.001 0.0504,7e-5 0.0854,-0.012 0.1049,-0.0362 0.0204,-0.025 0.0315,-0.0767 0.0325,-0.155 7.5e-4,-0.0577 0.001,-0.11635 9.3e-4,-0.1746 -3.5e-4,-0.073 -0.013,-0.12092 -0.0362,-0.14279 -0.0232,-0.0219 -0.0703,-0.0323 -0.14118,-0.0313 0,0 6e-5,2.7e-4 6e-5,2.7e-4 z" />
          <path
             inkscape:connector-curvature="0"
             inkscape:original-d="m 157.26169,248.20073 h 0.38581 q 0.3858,0 0.52174,0.0298 0.13723,0.0298 0.22268,0.15277 0.0867,0.1217 0.0867,0.38969 0,0.24469 -0.0608,0.32884 -0.0609,0.0841 -0.23951,0.10098 0.16183,0.0401 0.2175,0.10746 0.0557,0.0673 0.0686,0.12428 0.0142,0.0557 0.0142,0.30942 v 0.55281 h -0.50621 v -0.69651 q 0,-0.16831 -0.0272,-0.20844 -0.0259,-0.0401 -0.13853,-0.0401 v 0.94509 h -0.54505 z m 0.54505,0.35861 v 0.46607 q 0.0919,0 0.12817,-0.0246 0.0375,-0.0259 0.0375,-0.16442 v -0.11523 q 0,-0.0997 -0.0362,-0.13076 -0.035,-0.0311 -0.12946,-0.0311 z"
             id="path4627"
             style="font-style:normal;font-variant:normal;font-weight:normal;font-stretch:normal;font-family:impact;-inkscape-font-specification:impact;fill:#f2f200;fill-opacity:1;stroke:#1a1a1f;stroke-width:0.10566597;stroke-miterlimit:4;stroke-dasharray:none;stroke-opacity:0.98139535"
             d="m 157.07825,247.89585 c 0.12846,-0.007 0.25686,-0.0143 0.38533,-0.0219 0.25788,-0.0152 0.43157,-0.0142 0.52661,0.006 0.095,0.0195 0.17782,0.0799 0.24402,0.17804 0.006,0.009 0.0119,0.018 0.0175,0.0277 0,0 0,0 0,0 0.0565,0.0981 0.088,0.24115 0.0902,0.42058 0.002,0.17764 -0.0209,0.2937 -0.0614,0.35108 -0.003,0.005 -0.007,0.009 -0.011,0.014 -0.0438,0.0498 -0.12072,0.0796 -0.23058,0.0898 0.10817,0.0278 0.18069,0.065 0.21768,0.11143 0.004,0.005 0.008,0.01 0.0111,0.0144 0,0 0,0 0,0 0.0305,0.0409 0.0496,0.0789 0.0572,0.1141 0.009,0.0382 0.0139,0.1445 0.0151,0.32343 0.001,0.18167 0.004,0.41556 -8.5e-4,0.62654 2.5e-4,2e-5 -0.0721,-0.004 -0.0718,-0.004 -0.14503,-0.008 -0.29029,-0.0152 -0.43534,-0.0224 0.005,-0.22768 -9.7e-4,-0.56422 -0.002,-0.75841 -4.7e-4,-0.11546 -0.009,-0.18605 -0.0273,-0.21351 -0.0172,-0.0274 -0.0636,-0.0413 -0.13911,-0.0417 -0.002,0.31977 0.009,0.64059 0.002,1.00555 -0.18192,-0.009 -0.36421,-0.0172 -0.54617,-0.025 0.004,-0.23692 0.001,-1.93092 -0.0415,-2.19536 z m 0.58407,0.3858 c 0.008,0.16851 0.007,0.34038 0.005,0.49628 0.0616,-5e-5 0.10456,-0.009 0.129,-0.0256 0.0251,-0.0178 0.0386,-0.0748 0.0383,-0.17255 -1e-4,-0.0407 -4.2e-4,-0.082 -0.001,-0.12361 -0.001,-0.0721 -0.0151,-0.12047 -0.0401,-0.14295 -0.0243,-0.0226 -0.068,-0.0331 -0.13109,-0.0316 0,0 0,5e-5 0,5e-5 z" />
          <path
             inkscape:connector-curvature="0"
             inkscape:original-d="m 158.69098,248.20073 h 0.90884 v 0.41946 h -0.3638 v 0.39746 h 0.34049 v 0.39875 h -0.34049 v 0.46089 h 0.40005 v 0.41946 h -0.94509 z"
             id="path4629"
             style="font-style:normal;font-variant:normal;font-weight:normal;font-stretch:normal;font-family:impact;-inkscape-font-specification:impact;fill:#f2f200;fill-opacity:1;stroke:#1a1a1f;stroke-width:0.10566597;stroke-miterlimit:4;stroke-dasharray:none;stroke-opacity:0.98139535"
             d="m 158.50605,247.80707 c 0.30306,-0.0208 0.60525,-0.0427 0.90854,-0.0653 0.0268,0.20491 0.0395,0.39316 0.0459,0.56367 0.004,-1.3e-4 -0.36855,0.0102 -0.36417,0.0101 0.006,0.15634 0.006,0.31027 0.006,0.45091 8.2e-4,0 0.34064,-0.001 0.34146,-0.001 -2.4e-4,0.13243 -0.002,0.29514 -0.002,0.42757 0.0429,4.2e-4 -0.38471,-0.004 -0.3418,-0.003 -5.2e-4,0.19147 4.1e-4,0.29502 0.001,0.49808 0.0116,3.2e-4 0.38968,0.0108 0.40131,0.0111 4.6e-4,0.15592 4.6e-4,0.33537 -0.004,0.51772 -0.31487,-0.0185 -0.63148,-0.0367 -0.94647,-0.054 0.008,-0.33434 0.0117,-1.95225 -0.0458,-2.35504 z" />
          <path
             inkscape:connector-curvature="0"
             inkscape:original-d="m 160.94884,248.8351 h -0.50621 v -0.15536 q 0,-0.10875 -0.0194,-0.13852 -0.0194,-0.0298 -0.0647,-0.0298 -0.0492,0 -0.0751,0.0401 -0.0246,0.0401 -0.0246,0.12169 0,0.10487 0.0285,0.15795 0.0272,0.0531 0.15407,0.12817 0.36379,0.2162 0.4583,0.35473 0.0945,0.13853 0.0945,0.44665 0,0.22397 -0.0531,0.33013 -0.0518,0.10617 -0.20197,0.17867 -0.15017,0.0712 -0.34955,0.0712 -0.21879,0 -0.37415,-0.0829 -0.15406,-0.0829 -0.20197,-0.21102 -0.0479,-0.12817 -0.0479,-0.3638 v -0.13723 h 0.50621 v 0.25504 q 0,0.11782 0.0207,0.15148 0.022,0.0337 0.0764,0.0337 0.0544,0 0.0803,-0.0427 0.0272,-0.0427 0.0272,-0.12688 0,-0.18513 -0.0505,-0.2421 -0.0518,-0.057 -0.25504,-0.19031 -0.20326,-0.13464 -0.26929,-0.19549 -0.066,-0.0608 -0.11004,-0.1683 -0.0427,-0.10746 -0.0427,-0.27447 0,-0.2408 0.0608,-0.35214 0.0621,-0.11134 0.19938,-0.17348 0.13723,-0.0634 0.33142,-0.0634 0.21233,0 0.36121,0.0686 0.15018,0.0686 0.19808,0.17348 0.0492,0.10357 0.0492,0.35343 z"
             id="path4631"
             style="font-style:normal;font-variant:normal;font-weight:normal;font-stretch:normal;font-family:impact;-inkscape-font-specification:impact;fill:#f2f200;fill-opacity:1;stroke:#1a1a1f;stroke-width:0.10566597;stroke-miterlimit:4;stroke-dasharray:none;stroke-opacity:0.98139535"
             d="m 160.81699,248.5395 c 0.0154,-2.5e-4 -0.52205,0.009 -0.50661,0.008 -7.8e-4,-0.0618 -0.002,-0.12562 -0.004,-0.19107 -0.003,-0.092 -0.0123,-0.15385 -0.0265,-0.17993 -0.0143,-0.0263 -0.0366,-0.0389 -0.0668,-0.0377 -0.0329,0.001 -0.0567,0.0205 -0.0723,0.0566 -0.0147,0.036 -0.0205,0.0893 -0.0185,0.15762 0.003,0.0878 0.0129,0.15028 0.0326,0.19221 0.0187,0.0418 0.0705,0.0911 0.15544,0.14805 0.24345,0.16397 0.39554,0.29506 0.45858,0.39824 0.0627,0.10257 0.0943,0.26709 0.0947,0.50601 2.7e-4,0.17588 -0.0176,0.31626 -0.054,0.40902 -0.0354,0.0924 -0.10414,0.17237 -0.20599,0.23562 -0.10235,0.0623 -0.21911,0.0896 -0.35266,0.081 -0.14637,-0.009 -0.2691,-0.0574 -0.37144,-0.13806 -0.1011,-0.0803 -0.16742,-0.17478 -0.19896,-0.28043 -0.0314,-0.1052 -0.0482,-0.24983 -0.0487,-0.42199 -1.6e-4,-0.0511 -2.7e-4,-0.0996 -3e-4,-0.14965 0.0647,9.2e-4 0.44304,0.006 0.50774,0.007 2e-5,0.0431 5.6e-4,0.24337 5.8e-4,0.28651 2.2e-4,0.0908 0.007,0.15218 0.0209,0.17982 0.0147,0.0278 0.0401,0.0425 0.0765,0.0438 0.0364,0.001 0.0632,-0.0154 0.0805,-0.0496 0.0182,-0.0341 0.0273,-0.0849 0.0271,-0.15067 -2.8e-4,-0.14366 -0.0174,-0.23354 -0.0512,-0.27607 -0.0348,-0.0428 -0.11978,-0.11364 -0.25555,-0.21116 -0.13626,-0.0988 -0.22464,-0.16805 -0.26923,-0.2127 -0.0439,-0.044 -0.0804,-0.10478 -0.10971,-0.18381 -0.0286,-0.0797 -0.0426,-0.18078 -0.0452,-0.3132 -0.004,-0.18931 0.007,-0.34745 0.0392,-0.45029 0.0332,-0.10394 0.0903,-0.19307 0.17427,-0.26274 0.084,-0.0711 0.18915,-0.11469 0.31909,-0.12555 0.14223,-0.0119 0.26672,0.0156 0.37488,0.0824 0.10837,0.0664 0.18306,0.1538 0.22264,0.25645 0.0406,0.10203 0.0667,0.27065 0.0712,0.48236 7.3e-4,0.035 0.001,0.0694 0.002,0.10325 z" />
          <path
             inkscape:connector-curvature="0"
             inkscape:original-d="m 162.32116,248.8351 h -0.50621 v -0.15536 q 0,-0.10875 -0.0194,-0.13852 -0.0194,-0.0298 -0.0647,-0.0298 -0.0492,0 -0.0751,0.0401 -0.0246,0.0401 -0.0246,0.12169 0,0.10487 0.0285,0.15795 0.0272,0.0531 0.15407,0.12817 0.36379,0.2162 0.4583,0.35473 0.0945,0.13853 0.0945,0.44665 0,0.22397 -0.0531,0.33013 -0.0518,0.10617 -0.20197,0.17867 -0.15017,0.0712 -0.34955,0.0712 -0.21879,0 -0.37415,-0.0829 -0.15406,-0.0829 -0.20196,-0.21102 -0.0479,-0.12817 -0.0479,-0.3638 v -0.13723 h 0.50621 v 0.25504 q 0,0.11782 0.0207,0.15148 0.022,0.0337 0.0764,0.0337 0.0544,0 0.0803,-0.0427 0.0272,-0.0427 0.0272,-0.12688 0,-0.18513 -0.0505,-0.2421 -0.0518,-0.057 -0.25504,-0.19031 -0.20326,-0.13464 -0.26929,-0.19549 -0.066,-0.0608 -0.11004,-0.1683 -0.0427,-0.10746 -0.0427,-0.27447 0,-0.2408 0.0609,-0.35214 0.0621,-0.11134 0.19938,-0.17348 0.13723,-0.0634 0.33142,-0.0634 0.21233,0 0.36121,0.0686 0.15018,0.0686 0.19808,0.17348 0.0492,0.10357 0.0492,0.35343 z"
             id="path4633"
             style="font-style:normal;font-variant:normal;font-weight:normal;font-stretch:normal;font-family:impact;-inkscape-font-specification:impact;fill:#f2f200;fill-opacity:1;stroke:#1a1a1f;stroke-width:0.10566597;stroke-miterlimit:4;stroke-dasharray:none;stroke-opacity:0.98139535"
             d="m 162.18919,248.51573 c -0.15441,0.003 -0.35157,0.006 -0.50597,0.009 -9.4e-4,-0.0661 -0.002,-0.13464 -0.004,-0.20538 -0.003,-0.0994 -0.0124,-0.16701 -0.0266,-0.19553 -0.0143,-0.0287 -0.0366,-0.0426 -0.0668,-0.0414 -0.0329,0.001 -0.0567,0.0223 -0.0723,0.0617 -0.0147,0.0393 -0.0205,0.0974 -0.0183,0.17139 0.003,0.095 0.0133,0.16202 0.033,0.20685 0.0188,0.0447 0.0707,0.0973 0.15566,0.15758 0.24372,0.17382 0.3955,0.31034 0.45874,0.4185 0.0627,0.10727 0.0944,0.27878 0.0946,0.52989 1.3e-4,0.18502 -0.0179,0.33487 -0.0543,0.43437 -0.0354,0.0992 -0.10408,0.18599 -0.20583,0.25552 -0.10229,0.0686 -0.21891,0.0996 -0.35247,0.0915 -0.14644,-0.009 -0.26893,-0.0606 -0.37122,-0.14807 -0.10094,-0.0871 -0.16696,-0.18955 -0.19815,-0.30309 -0.0311,-0.11315 -0.0473,-0.26737 -0.0476,-0.44845 2e-5,0.0174 -1.8e-4,-0.17451 -1.6e-4,-0.15708 -0.0163,-2.3e-4 0.52317,0.007 0.50681,0.007 3e-5,0.0807 2.6e-4,0.22065 2.8e-4,0.30135 6e-5,0.0961 0.007,0.16139 0.0206,0.19082 0.0146,0.0296 0.04,0.0453 0.0763,0.0465 0.0363,0.001 0.0631,-0.0167 0.0805,-0.0532 0.0182,-0.0364 0.0274,-0.0904 0.0274,-0.15994 -5e-5,-0.15175 -0.0172,-0.24587 -0.0508,-0.29038 -0.0348,-0.0449 -0.11951,-0.1188 -0.25517,-0.22066 -0.13621,-0.10329 -0.22444,-0.17556 -0.26915,-0.22246 -0.0439,-0.0461 -0.0806,-0.10999 -0.11013,-0.19349 -0.0289,-0.0842 -0.0432,-0.19168 -0.0464,-0.33435 -0.005,-0.2043 0.006,-0.37875 0.0386,-0.49314 0.0333,-0.11546 0.0907,-0.21522 0.17515,-0.29294 0.0845,-0.0794 0.18998,-0.12739 0.32019,-0.13814 0.1425,-0.0118 0.26676,0.0208 0.37449,0.0963 0.10793,0.075 0.18206,0.17245 0.22119,0.28538 0.0402,0.11216 0.0658,0.29685 0.0705,0.52373 7.3e-4,0.0375 0.001,0.0743 0.002,0.11042 z" />
          <path
             inkscape:connector-curvature="0"
             inkscape:original-d="m 163.00473,248.20073 h 0.54375 q 0.25763,0 0.38969,0.0401 0.13334,0.0401 0.21491,0.16313 0.0816,0.12169 0.0816,0.39357 0,0.18384 -0.0583,0.25634 -0.057,0.0725 -0.22656,0.11134 0.18901,0.0427 0.25634,0.14241 0.0673,0.0984 0.0673,0.30294 v 0.1942 q 0,0.21232 -0.0492,0.3146 -0.0479,0.10227 -0.15406,0.13982 -0.10616,0.0375 -0.435,0.0375 h -0.63049 z m 0.54504,0.35861 v 0.46607 q 0.035,-0.001 0.0544,-0.001 0.0803,0 0.10227,-0.0388 0.022,-0.0401 0.022,-0.22656 0,-0.0984 -0.0181,-0.13723 -0.0181,-0.0401 -0.0479,-0.0505 -0.0285,-0.0103 -0.11264,-0.0117 z m 0,0.79232 v 0.58648 q 0.11523,-0.004 0.1463,-0.0362 0.0324,-0.0324 0.0324,-0.15924 v -0.19549 q 0,-0.13465 -0.0285,-0.16313 -0.0285,-0.0285 -0.15018,-0.0324 z"
             id="path4635"
             style="font-style:normal;font-variant:normal;font-weight:normal;font-stretch:normal;font-family:impact;-inkscape-font-specification:impact;fill:#f2f200;fill-opacity:1;stroke:#1a1a1f;stroke-width:0.10566597;stroke-miterlimit:4;stroke-dasharray:none;stroke-opacity:0.98139535"
             d="m 162.82477,247.48398 c 0.18185,-0.0126 0.36367,-0.0249 0.54561,-0.0366 0.17208,-0.0111 0.30326,0.008 0.39547,0.0559 4e-4,2.1e-4 8e-4,4.2e-4 0.001,6.3e-4 0.0929,0.0483 0.17091,0.1524 0.23238,0.29882 0.0614,0.14481 0.0961,0.36848 0.0998,0.62856 0.002,0.1741 -0.0169,0.28553 -0.0553,0.34772 -0.0376,0.0624 -0.11302,0.1093 -0.22575,0.14175 0.1258,0.0351 0.21114,0.0941 0.25595,0.17571 0.0448,0.0806 0.0672,0.2035 0.0674,0.37391 4e-4,0.29434 -6e-5,-0.0434 3.4e-4,0.25092 1.8e-4,0.18884 -0.0165,0.34493 -0.05,0.45027 -0.0327,0.10537 -0.0847,0.18141 -0.15611,0.22083 -0.0308,0.017 -0.0754,0.0296 -0.13377,0.0376 -0.077,0.0105 -0.17744,0.0131 -0.30214,0.007 -0.21027,-0.009 -0.42027,-0.0195 -0.63057,-0.0299 0.011,-0.5472 0.018,-2.16976 -0.0446,-2.92352 z m 0.58204,0.6039 c 0.008,0.2427 0.0108,0.46505 0.0116,0.65875 0.0233,-0.001 0.0414,-0.002 0.0543,-0.002 0.0534,-4e-4 0.0874,-0.0171 0.10183,-0.0509 0.0142,-0.0343 0.0216,-0.133 0.0185,-0.3091 -0.002,-0.0943 -0.01,-0.16425 -0.0227,-0.20391 -0.0132,-0.0411 -0.03,-0.0673 -0.0503,-0.0777 -0.0194,-0.0103 -0.0571,-0.0154 -0.11318,-0.015 0,0 -4e-5,-4.4e-4 -4e-5,-4.4e-4 z m 0.0121,1.06016 c 0,-0.0174 2.9e-4,0.72208 2.9e-4,0.73954 0.0768,-0.002 0.12544,-0.0174 0.14619,-0.0463 0.0216,-0.0291 0.0324,-0.10129 0.0323,-0.21025 -1.3e-4,-0.12326 -1.4e-4,-0.12156 -2.7e-4,-0.24483 -9e-5,-0.10971 -0.01,-0.17533 -0.0285,-0.19838 -0.019,-0.0231 -0.0689,-0.0363 -0.14994,-0.0397 0,0 -2e-5,-3e-5 -2e-5,-3e-5 z" />
          <path
             inkscape:connector-curvature="0"
             inkscape:original-d="m 165.71571,249.42805 q 0,0.31589 -0.0155,0.44794 -0.0142,0.13076 -0.0932,0.23951 -0.0777,0.10875 -0.21103,0.16701 -0.13335,0.0583 -0.31071,0.0583 -0.16831,0 -0.30295,-0.0544 -0.13335,-0.0557 -0.21491,-0.16572 -0.0816,-0.11004 -0.0971,-0.23951 -0.0155,-0.12946 -0.0155,-0.45312 v -0.35862 q 0,-0.31589 0.0142,-0.44665 0.0155,-0.13205 0.0932,-0.2408 0.079,-0.10875 0.21232,-0.16701 0.13335,-0.0583 0.31072,-0.0583 0.1683,0 0.30165,0.0557 0.13464,0.0544 0.21621,0.16442 0.0816,0.11004 0.0971,0.23951 0.0155,0.12946 0.0155,0.45312 z m -0.54505,-0.68875 q 0,-0.1463 -0.0168,-0.18643 -0.0155,-0.0414 -0.066,-0.0414 -0.0427,0 -0.066,0.0337 -0.022,0.0324 -0.022,0.1942 v 0.97875 q 0,0.18254 0.0142,0.22527 0.0155,0.0427 0.0699,0.0427 0.0557,0 0.0712,-0.0492 0.0155,-0.0492 0.0155,-0.23433 z"
             id="path4637"
             style="font-style:normal;font-variant:normal;font-weight:normal;font-stretch:normal;font-family:impact;-inkscape-font-specification:impact;fill:#f2f200;fill-opacity:1;stroke:#1a1a1f;stroke-width:0.10566597;stroke-miterlimit:4;stroke-dasharray:none;stroke-opacity:0.98139535"
             d="m 165.57946,249.25046 c 3.5e-4,0.2624 -0.004,0.46406 -0.0141,0.5892 -0.009,0.12334 -0.04,0.24398 -0.0928,0.35971 -0.0288,0.0642 -0.0634,0.12216 -0.10373,0.17243 0,0 0,0 0,0 0,0 0,0 0,0 0,0 0,0 0,0 0,0 0,0 0,0 0,0 0,0 0,0 0,0 0,0 0,0 -0.0324,0.0404 -0.0685,0.0758 -0.10828,0.10551 -0.0898,0.0672 -0.19291,0.1 -0.31161,0.096 -0.11259,-0.004 -0.2124,-0.041 -0.30178,-0.10798 -0.0882,-0.0682 -0.15876,-0.16487 -0.2125,-0.28182 -0.0537,-0.11684 -0.0859,-0.23536 -0.0962,-0.35493 -0.0103,-0.11889 -0.016,-0.32137 -0.0162,-0.58331 -1e-4,-0.13036 -9e-5,-0.31014 -5.3e-4,-0.44765 -8.3e-4,-0.26119 6.6e-4,-0.50451 0.006,-0.63443 0.007,-0.13998 0.0332,-0.28 0.0791,-0.41672 0.0469,-0.13705 0.11152,-0.25361 0.19626,-0.33981 0.0851,-0.0866 0.18575,-0.1355 0.30527,-0.14133 0.11341,-0.006 0.21617,0.0316 0.30989,0.10856 0.0451,0.0358 0.0862,0.0804 0.12348,0.13275 0,0 0,0 0,0 0,0 0,0 0,0 0,0 0,0 0,0 0,0 0,0 0,0 0,0 0,0 0,0 0,0 0,0 0,0 0.0405,0.0569 0.0762,0.12284 0.10704,0.19597 0.0592,0.14033 0.0952,0.28354 0.10809,0.42596 0.0133,0.14638 0.0209,0.37654 0.0216,0.66403 2.5e-4,0.0921 4e-4,0.36584 6.4e-4,0.45789 z m -0.54762,-0.91929 c -0.002,-0.14854 -0.0103,-0.2536 -0.0227,-0.29867 -0.0115,-0.0468 -0.0342,-0.0704 -0.0679,-0.0695 -0.0285,7.1e-4 -0.0498,0.0209 -0.0643,0.0595 -0.0137,0.0372 -0.018,0.14732 -0.0155,0.31129 0.005,0.33585 0.004,1.01086 0.005,1.28268 3.1e-4,0.16007 0.005,0.26868 0.0146,0.30985 0.0103,0.0414 0.0335,0.063 0.0697,0.0637 0.0371,6.9e-4 0.0607,-0.0233 0.071,-0.0707 0.0103,-0.0474 0.0153,-0.15921 0.0149,-0.3215 -5.7e-4,-0.27132 -1e-5,-0.92933 -0.005,-1.26661 z" />
          <path
             inkscape:connector-curvature="0"
             inkscape:original-d="m 167.02459,248.20073 -0.19031,0.92696 0.28741,1.16906 h -0.50491 q -0.0906,-0.3133 -0.16571,-0.76254 -0.0207,0.19808 -0.057,0.42076 l -0.0518,0.34178 h -0.53081 l 0.19679,-1.16906 -0.19679,-0.92696 h 0.52692 q 0.0142,0.0867 0.057,0.2887 0.0337,0.15406 0.0557,0.28223 l 0.11651,-0.57093 z"
             id="path4639"
             style="font-style:normal;font-variant:normal;font-weight:normal;font-stretch:normal;font-family:impact;-inkscape-font-specification:impact;fill:#f2f200;fill-opacity:1;stroke:#1a1a1f;stroke-width:0.10566597;stroke-miterlimit:4;stroke-dasharray:none;stroke-opacity:0.98139535"
             d="m 166.86517,247.2992 c -0.0453,0.69476 -0.10952,1.16665 -0.17126,1.56751 0.0895,0.47781 0.19911,0.97844 0.29159,1.66552 -0.1682,-8.7e-4 -0.33631,-0.002 -0.50456,-0.004 -0.0527,-0.33883 -0.12456,-0.81155 -0.16811,-1.14067 -0.0133,0.16883 -0.0316,0.35402 -0.055,0.57393 -0.0169,0.17123 -0.0334,0.35225 -0.0513,0.56283 -0.17693,-0.003 -0.35376,-0.006 -0.53074,-0.0104 0.0817,-0.83 0.11481,-1.01259 0.19489,-1.64502 -0.0771,-0.47096 -0.12165,-0.78958 -0.22654,-1.53594 0.17662,-0.006 0.35324,-0.0119 0.53004,-0.017 0.0137,0.1247 0.0406,0.34045 0.0735,0.58169 0.0261,0.18581 0.0466,0.33988 0.0622,0.46966 0.0361,-0.28969 0.07,-0.63062 0.095,-1.05757 0.15338,-0.004 0.30676,-0.007 0.46026,-0.0101 z" />
          <path
             inkscape:connector-curvature="0"
             inkscape:original-d="m 168.82026,248.8351 h -0.5062 v -0.15536 q 0,-0.10875 -0.0194,-0.13852 -0.0194,-0.0298 -0.0647,-0.0298 -0.0492,0 -0.0751,0.0401 -0.0246,0.0401 -0.0246,0.12169 0,0.10487 0.0285,0.15795 0.0272,0.0531 0.15406,0.12817 0.3638,0.2162 0.4583,0.35473 0.0945,0.13853 0.0945,0.44665 0,0.22397 -0.0531,0.33013 -0.0518,0.10617 -0.20196,0.17867 -0.15018,0.0712 -0.34955,0.0712 -0.2188,0 -0.37416,-0.0829 -0.15406,-0.0829 -0.20196,-0.21102 -0.0479,-0.12817 -0.0479,-0.3638 v -0.13723 h 0.5062 v 0.25504 q 0,0.11782 0.0207,0.15148 0.022,0.0337 0.0764,0.0337 0.0544,0 0.0803,-0.0427 0.0272,-0.0427 0.0272,-0.12688 0,-0.18513 -0.0505,-0.2421 -0.0518,-0.057 -0.25505,-0.19031 -0.20326,-0.13464 -0.26928,-0.19549 -0.066,-0.0608 -0.11005,-0.1683 -0.0427,-0.10746 -0.0427,-0.27447 0,-0.2408 0.0609,-0.35214 0.0621,-0.11134 0.19937,-0.17348 0.13723,-0.0634 0.33143,-0.0634 0.21232,0 0.3612,0.0686 0.15018,0.0686 0.19808,0.17348 0.0492,0.10357 0.0492,0.35343 z"
             id="path4641"
             style="font-style:normal;font-variant:normal;font-weight:normal;font-stretch:normal;font-family:impact;-inkscape-font-specification:impact;fill:#f2f200;fill-opacity:1;stroke:#1a1a1f;stroke-width:0.10566597;stroke-miterlimit:4;stroke-dasharray:none;stroke-opacity:0.98139535"
             d="m 168.67137,248.45795 c -0.16806,-6.3e-4 -0.33595,-0.001 -0.50407,-0.001 0,0.004 10e-6,-0.23827 10e-6,-0.24194 -3e-5,-0.11866 -0.007,-0.20095 -0.0196,-0.23646 -0.013,-0.0356 -0.0345,-0.0539 -0.0648,-0.054 -0.0329,-7e-5 -0.0577,0.0244 -0.0749,0.072 -0.0163,0.0474 -0.0243,0.11823 -0.0241,0.20745 1.8e-4,0.11422 0.01,0.19403 0.0286,0.2469 0.0181,0.0529 0.0692,0.11516 0.15337,0.18529 0.24239,0.20288 0.39194,0.3483 0.45588,0.46714 0.0629,0.11683 0.0943,0.30007 0.096,0.57458 0.001,0.20209 -0.0146,0.37199 -0.0486,0.48667 -0.0331,0.1146 -0.099,0.21959 -0.19775,0.30913 -0.0994,0.0885 -0.21407,0.13636 -0.34745,0.13797 -0.14642,0.002 -0.27005,-0.051 -0.37487,-0.15102 -0.1032,-0.0994 -0.17118,-0.22082 -0.20384,-0.3555 -0.0327,-0.13473 -0.0498,-0.31562 -0.0507,-0.52378 0,-2e-5 -6.7e-4,-0.1795 -6.7e-4,-0.17952 0.001,0 0.50245,-0.002 0.50379,-0.002 3.6e-4,0.10978 8.8e-4,0.22055 0.002,0.33914 6.5e-4,0.1093 0.008,0.18448 0.0221,0.2179 0.0149,0.0335 0.0403,0.0505 0.0765,0.0502 0.0362,-3.2e-4 0.0625,-0.0224 0.0795,-0.0649 0.0177,-0.0425 0.0263,-0.10449 0.0258,-0.1829 -0.001,-0.17095 -0.0182,-0.27447 -0.0519,-0.32337 -0.035,-0.0495 -0.11894,-0.12902 -0.25441,-0.24178 -0.13563,-0.11403 -0.22376,-0.1962 -0.26822,-0.24958 -0.0437,-0.0525 -0.0805,-0.12608 -0.10967,-0.22376 -0.0285,-0.0981 -0.0427,-0.22647 -0.0433,-0.40031 -9.3e-4,-0.25108 0.0174,-0.47266 0.0565,-0.61966 0.04,-0.14741 0.10502,-0.27371 0.19622,-0.36745 0.0916,-0.0961 0.20166,-0.14693 0.33307,-0.14665 0.14372,3.1e-4 0.2644,0.0559 0.36502,0.16013 0.10088,0.10356 0.16674,0.22878 0.19826,0.36698 0.0324,0.13653 0.0478,0.35924 0.0471,0.61826 0,-2.6e-4 -4.6e-4,0.1261 -4.6e-4,0.12585 z" />
          <path
             inkscape:connector-curvature="0"
             inkscape:original-d="m 170.29098,248.20073 v 2.09602 h -0.54505 v -0.88035 h -0.16312 v 0.88035 h -0.54505 v -2.09602 h 0.54505 v 0.74959 h 0.16312 v -0.74959 z"
             id="path4643"
             style="font-style:normal;font-variant:normal;font-weight:normal;font-stretch:normal;font-family:impact;-inkscape-font-specification:impact;fill:#f2f200;fill-opacity:1;stroke:#1a1a1f;stroke-width:0.10566597;stroke-miterlimit:4;stroke-dasharray:none;stroke-opacity:0.98139535"
             d="m 170.15967,247.33745 c -0.0371,1.04307 -0.0302,2.38872 -0.0118,3.13657 -0.18112,0.008 -0.36205,0.0144 -0.54325,0.0206 -0.0102,-0.49979 -0.0125,-0.93783 -0.0132,-1.26786 5.9e-4,-1e-5 -0.16278,0.001 -0.16218,0.001 7.2e-4,0.33411 0.003,0.76751 0.0128,1.27212 -0.18121,0.006 -0.36227,0.0107 -0.54357,0.015 -0.0147,-0.96095 -0.0147,-1.95427 -0.003,-3.21725 0.18337,0.003 0.36658,0.008 0.54994,0.0132 -0.011,0.54711 -0.0144,0.98677 -0.0156,1.31566 -7e-5,0 0.16231,8.3e-4 0.16224,8.3e-4 0.001,-0.32803 0.005,-0.76589 0.018,-1.31131 0.18336,0.006 0.36652,0.0132 0.54984,0.0214 z" />
          <path
             inkscape:connector-curvature="0"
             inkscape:original-d="m 171.74745,248.20073 v 1.4008 q 0,0.23821 -0.0155,0.33531 -0.0155,0.0958 -0.0919,0.19808 -0.0764,0.10098 -0.20196,0.15407 -0.12429,0.0518 -0.29389,0.0518 -0.18772,0 -0.33142,-0.0621 -0.14371,-0.0621 -0.21491,-0.16183 -0.0712,-0.0997 -0.0842,-0.20973 -0.0129,-0.11134 -0.0129,-0.46608 v -1.24026 h 0.54504 v 1.57169 q 0,0.13723 0.0142,0.17607 0.0155,0.0376 0.0608,0.0376 0.0518,0 0.066,-0.0414 0.0155,-0.0427 0.0155,-0.19937 v -1.54451 z"
             id="path4645"
             style="font-style:normal;font-variant:normal;font-weight:normal;font-stretch:normal;font-family:impact;-inkscape-font-specification:impact;fill:#f2f200;fill-opacity:1;stroke:#1a1a1f;stroke-width:0.10566597;stroke-miterlimit:4;stroke-dasharray:none;stroke-opacity:0.98139535"
             d="m 171.62699,247.42602 c -0.0563,0.8097 -0.0457,1.60175 -0.0438,2.00395 8.9e-4,0.18908 -0.003,0.33872 -0.0119,0.42644 -0.009,0.0875 -0.038,0.1827 -0.0862,0.28948 -0.0483,0.10549 -0.11265,0.19421 -0.19414,0.25929 -0.081,0.0638 -0.17689,0.10054 -0.29003,0.10673 -0.12538,0.007 -0.23579,-0.025 -0.33385,-0.093 -0.0798,-0.0554 -0.14353,-0.12459 -0.19107,-0.2045 0,0 0,0 0,0 0,0 0,0 0,0 0,0 0,0 0,0 -0.0105,-0.0177 -0.0202,-0.036 -0.0292,-0.0547 -0.0492,-0.10307 -0.0786,-0.2062 -0.0883,-0.30874 -0.01,-0.1048 -0.0159,-0.31367 -0.0166,-0.59961 -0.001,-0.40689 -0.003,-1.09163 0.0294,-1.90382 0.0421,0.002 0.0843,0.004 0.12639,0.006 0.14088,0.007 0.28167,0.0155 0.4226,0.0241 -0.0464,0.89396 -0.0374,1.83269 -0.0339,2.27867 9.4e-4,0.11891 0.007,0.20102 0.0166,0.23716 0.0108,0.0351 0.0312,0.0525 0.0613,0.0515 0.0344,-0.001 0.0559,-0.0217 0.0649,-0.0607 0.01,-0.0401 0.0138,-0.13268 0.0128,-0.26629 -0.003,-0.43583 -0.0127,-1.35232 0.036,-2.23029 0.18311,0.0117 0.36599,0.0243 0.54915,0.038 z" />
          <path
             inkscape:connector-curvature="0"
             inkscape:original-d="m 173.05633,248.20073 v 0.41946 h -0.32366 v 1.67656 h -0.54504 v -1.67656 h -0.32237 v -0.41946 z"
             id="path4647"
             style="font-style:normal;font-variant:normal;font-weight:normal;font-stretch:normal;font-family:impact;-inkscape-font-specification:impact;fill:#f2f200;fill-opacity:1;stroke:#1a1a1f;stroke-width:0.10566597;stroke-miterlimit:4;stroke-dasharray:none;stroke-opacity:0.98139535"
             d="m 172.94577,247.54124 c -0.0303,0.26072 -0.0453,0.48971 -0.0532,0.6882 0.006,2.6e-4 -0.32776,-0.0138 -0.32179,-0.0135 -0.0141,0.38212 -0.0108,1.66626 0.009,2.12266 -0.18088,0.0126 -0.36093,0.0245 -0.54205,0.036 -0.0203,-0.51872 -0.0232,-1.73875 -0.009,-2.18003 -0.10695,-0.004 -0.21384,-0.008 -0.32084,-0.0117 0.006,-0.21346 0.0171,-0.46208 0.0379,-0.74775 0.40122,0.031 0.79887,0.0664 1.20009,0.10617 z" />
          <path
             inkscape:connector-curvature="0"
             inkscape:original-d="m 174.27847,248.20073 v 0.41946 h -0.32366 v 1.67656 h -0.54504 v -1.67656 h -0.32237 v -0.41946 z"
             id="path4649"
             style="font-style:normal;font-variant:normal;font-weight:normal;font-stretch:normal;font-family:impact;-inkscape-font-specification:impact;fill:#f2f200;fill-opacity:1;stroke:#1a1a1f;stroke-width:0.10566597;stroke-miterlimit:4;stroke-dasharray:none;stroke-opacity:0.98139535"
             d="m 174.1766,247.67439 c -0.0413,0.22682 -0.0603,0.42991 -0.0695,0.60935 -0.50098,-0.0228 0.17937,0.008 -0.32162,-0.0146 -0.0103,0.21295 -0.007,1.70216 0.007,1.97783 -0.1807,0.0146 -0.3596,0.0287 -0.5405,0.0425 -0.0176,-0.36504 -0.0213,-1.74843 -0.008,-2.04469 0.009,4e-4 -0.32927,-0.0144 -0.32041,-0.014 0.008,-0.19805 0.0231,-0.42646 0.0536,-0.68642 0.40189,0.04 0.79801,0.0834 1.19953,0.13004 z" />
          <path
             inkscape:connector-curvature="0"
             inkscape:original-d="m 174.9478,248.20073 v 1.67656 h 0.33143 v 0.41946 h -0.87647 v -2.09602 z"
             id="path4651"
             style="font-style:normal;font-variant:normal;font-weight:normal;font-stretch:normal;font-family:impact;-inkscape-font-specification:impact;fill:#f2f200;fill-opacity:1;stroke:#1a1a1f;stroke-width:0.10566597;stroke-miterlimit:4;stroke-dasharray:none;stroke-opacity:0.98139535"
             d="m 174.85003,247.75467 c -0.11824,0.50819 -0.0763,1.60545 -0.0796,1.91215 0.1103,-0.004 0.22103,-0.007 0.33158,-0.0104 -0.003,0.14678 -0.005,0.31538 0.003,0.48281 -0.15628,0.0126 -0.71181,0.0589 -0.86808,0.0715 -0.0183,-0.35773 -0.0326,-2.00912 0.0651,-2.52167 0.1832,0.0215 0.36528,0.0434 0.54833,0.0657 z" />
          <path
             inkscape:connector-curvature="0"
             inkscape:original-d="m 175.41258,248.20073 h 0.90884 v 0.41946 h -0.3638 v 0.39746 h 0.34049 v 0.39875 h -0.34049 v 0.46089 h 0.40005 v 0.41946 h -0.94509 z"
             id="path4653"
             style="font-style:normal;font-variant:normal;font-weight:normal;font-stretch:normal;font-family:impact;-inkscape-font-specification:impact;fill:#f2f200;fill-opacity:1;stroke:#1a1a1f;stroke-width:0.10566597;stroke-miterlimit:4;stroke-dasharray:none;stroke-opacity:0.98139535"
             d="m 175.31722,247.8121 c 0.29813,0.0369 0.61475,0.0764 0.91221,0.11254 -0.0598,0.15141 -0.082,0.30042 -0.0892,0.44315 -0.12096,-0.004 -0.24195,-0.008 -0.36276,-0.0128 -0.008,0.13955 -0.003,0.28281 0.002,0.41436 -0.002,-10e-6 0.34532,0.001 0.34325,0.001 0.007,0.14245 0.013,0.25648 0.0149,0.39846 -0.11548,4.1e-4 -0.23095,9.7e-4 -0.34591,0.002 0.002,0.16528 -0.002,0.29763 -0.008,0.46823 0.1343,-0.003 0.26919,-0.005 0.40415,-0.007 -0.007,0.13566 -0.0154,0.2903 -0.013,0.42839 -0.31121,0.0198 -0.62783,0.0437 -0.93789,0.0684 -0.0108,-0.24781 -0.0132,-1.97803 0.0804,-2.31649 z" />
        </g>
      </g>
    </g>
    <path
       style="opacity:1;vector-effect:none;fill:#ff8a02;fill-opacity:1;stroke:none;stroke-width:0.26458332px;stroke-linecap:butt;stroke-linejoin:miter;stroke-miterlimit:4;stroke-dasharray:none;stroke-dashoffset:0;stroke-opacity:1"
       d="m 63.195776,109.28924 5.170667,-1.11197 -0.04725,-1.02762 c -1.752078,0.57149 -4.223943,0.4313 -5.123421,2.13959 z"
       id="path8644"
       inkscape:connector-curvature="0"
       sodipodi:nodetypes="cccc" />
    <ellipse
       style="opacity:1;fill:#ff8a02;fill-opacity:1;stroke:none;stroke-width:0.1;stroke-miterlimit:4;stroke-dasharray:none;stroke-opacity:1;paint-order:fill markers stroke"
       id="path8646"
       cx="64.704796"
       cy="112.03381"
       rx="0.25985864"
       ry="0.2657645" />
    <ellipse
       style="opacity:1;fill:#ff8a02;fill-opacity:1;stroke:none;stroke-width:0.1;stroke-miterlimit:4;stroke-dasharray:none;stroke-opacity:1;paint-order:fill markers stroke"
       id="path8646-8"
       cx="65.779655"
       cy="111.75623"
       rx="0.25985864"
       ry="0.2657645" />
    <ellipse
       style="opacity:1;fill:#ff8a02;fill-opacity:1;stroke:none;stroke-width:0.1;stroke-miterlimit:4;stroke-dasharray:none;stroke-opacity:1;paint-order:fill markers stroke"
       id="path8646-3"
       cx="66.996284"
       cy="111.4137"
       rx="0.25985864"
       ry="0.2657645" />
    <ellipse
       style="opacity:1;fill:#ff8a02;fill-opacity:1;stroke:none;stroke-width:0.1;stroke-miterlimit:4;stroke-dasharray:none;stroke-opacity:1;paint-order:fill markers stroke"
       id="path8646-2"
       cx="68.153824"
       cy="111.13022"
       rx="0.25985864"
       ry="0.2657645" />
    <ellipse
       style="opacity:1;fill:#ff8a02;fill-opacity:1;stroke:none;stroke-width:0.1;stroke-miterlimit:4;stroke-dasharray:none;stroke-opacity:1;paint-order:fill markers stroke"
       id="path8646-4"
       cx="69.394058"
       cy="110.83491"
       rx="0.25985864"
       ry="0.2657645" />
  </g>
</svg>
