<?xml version="1.0" encoding="UTF-8" standalone="no"?>
<!-- Created with Inkscape (http://www.inkscape.org/) -->

<svg
   xmlns:dc="http://purl.org/dc/elements/1.1/"
   xmlns:cc="http://creativecommons.org/ns#"
   xmlns:rdf="http://www.w3.org/1999/02/22-rdf-syntax-ns#"
   xmlns:svg="http://www.w3.org/2000/svg"
   xmlns="http://www.w3.org/2000/svg"
   xmlns:xlink="http://www.w3.org/1999/xlink"
   xmlns:sodipodi="http://sodipodi.sourceforge.net/DTD/sodipodi-0.dtd"
   xmlns:inkscape="http://www.inkscape.org/namespaces/inkscape"
   width="21.664652mm"
   height="22.093611mm"
   viewBox="0 0 21.664651 22.093611"
   version="1.1"
   id="svg9303"
   inkscape:version="0.92.1 r15371"
   sodipodi:docname="stellarsouvenirs.svg">
  <defs
     id="defs9297">
    <inkscape:path-effect
       effect="envelope"
       id="path-effect10114"
       is_visible="true"
       yy="true"
       xx="true"
       bendpath1="m 20.391297,-14.02535 c 0.33392,-0.267403 17.013865,-0.935911 21.605266,0"
       bendpath2="m 41.996563,-14.02535 v 2.284004"
       bendpath3="m 20.391297,-11.741346 c 0.434096,0.752071 20.987514,0.417817 21.605266,0"
       bendpath4="m 20.391297,-14.02535 v 2.284004"
       bendpath1-nodetypes="cc"
       bendpath3-nodetypes="cc" />
    <linearGradient
       inkscape:collect="always"
       id="linearGradient10063">
      <stop
         style="stop-color:#ebefef;stop-opacity:1"
         offset="0"
         id="stop10059" />
      <stop
         id="stop10067"
         offset="0.47332725"
         style="stop-color:#2af0f0;stop-opacity:1" />
      <stop
         style="stop-color:#08bdbd;stop-opacity:1"
         offset="1"
         id="stop10061" />
    </linearGradient>
    <inkscape:path-effect
       effect="envelope"
       id="path-effect10042"
       is_visible="true"
       yy="true"
       xx="true"
       bendpath1="m 47.876288,-8.9369193 c 1.629464,-0.5080794 14.989599,-0.6735006 17.56368,0"
       bendpath2="m 65.439968,-8.9369193 v 2.2533959"
       bendpath3="m 47.876288,-6.6835234 c 0.129885,-0.094526 14.753444,0.9807114 17.56368,0"
       bendpath4="m 47.876288,-8.9369193 v 2.2533959"
       bendpath1-nodetypes="cc"
       bendpath3-nodetypes="cc" />
    <inkscape:path-effect
       effect="envelope"
       id="path-effect9983"
       is_visible="true"
       yy="true"
       xx="true"
       bendpath1="m 21.146618,-9.467366 c 0.922879,-0.2775601 20.978611,-0.783699 25.114475,0"
       bendpath2="m 46.261093,-9.467366 v 2.2800631"
       bendpath3="m 21.146618,-7.1873029 c 0.854517,0.2775601 19.713926,0.8326803 25.114475,0"
       bendpath4="m 21.146618,-9.467366 v 2.2800631"
       bendpath1-nodetypes="cc"
       bendpath3-nodetypes="cc" />
    <inkscape:path-effect
       effect="envelope"
       id="path-effect9900"
       is_visible="true"
       yy="true"
       xx="true"
       bendpath1="m 111.8702,135.43954 c 0,0 9.37132,-0.7956 15.6784,0"
       bendpath2="m 127.5486,135.43954 v 2.36884"
       bendpath3="m 111.8702,137.80838 c 0,0 12.49049,1.14469 15.6784,0"
       bendpath4="m 111.8702,135.43954 v 2.36884"
       bendpath1-nodetypes="cc"
       bendpath3-nodetypes="cc" />
    <radialGradient
       inkscape:collect="always"
       xlink:href="#linearGradient10063"
       id="radialGradient10075"
       cx="11.173824"
       cy="0.26104546"
       fx="11.173824"
       fy="0.26104546"
       r="6.8771949"
       gradientTransform="matrix(1.3231152,0,0,1.3279516,16.599484,-2.1172324)"
       gradientUnits="userSpaceOnUse" />
  </defs>
  <sodipodi:namedview
     id="base"
     pagecolor="#ffffff"
     bordercolor="#666666"
     borderopacity="1.0"
     inkscape:pageopacity="0.0"
     inkscape:pageshadow="2"
     inkscape:zoom="3.959798"
     inkscape:cx="122.07536"
     inkscape:cy="19.414362"
     inkscape:document-units="mm"
     inkscape:current-layer="layer1"
     showgrid="false"
     inkscape:window-width="3440"
     inkscape:window-height="1377"
     inkscape:window-x="1072"
     inkscape:window-y="127"
     inkscape:window-maximized="1" />
  <metadata
     id="metadata9300">
    <rdf:RDF>
      <cc:Work
         rdf:about="">
        <dc:format>image/svg+xml</dc:format>
        <dc:type
           rdf:resource="http://purl.org/dc/dcmitype/StillImage" />
        <dc:title></dc:title>
      </cc:Work>
    </rdf:RDF>
  </metadata>
  <g
     inkscape:label="Layer 1"
     inkscape:groupmode="layer"
     id="layer1"
     transform="translate(-129.07321,-124.26905)" />
  <g
     inkscape:groupmode="layer"
     id="layer26"
     inkscape:label="planet"
     style="display:inline"
     transform="translate(-20.369113,14.5191)">
    <ellipse
       style="opacity:1;fill:url(#radialGradient10075);fill-opacity:1;stroke:#006f6f;stroke-width:0.55297351;stroke-miterlimit:4;stroke-dasharray:none;stroke-opacity:1;paint-order:fill markers stroke"
       id="path10057"
       cx="31.383741"
       cy="-1.7705766"
       rx="9.033164"
       ry="9.0685997" />
  </g>
  <g
     inkscape:groupmode="layer"
     id="layer29"
     inkscape:label="text"
     transform="translate(-20.369113,14.5191)">
    <g
       aria-label="STELLAR SOUVENIRS"
       transform="scale(1.0004997,0.9995005)"
       style="font-style:normal;font-variant:normal;font-weight:normal;font-stretch:normal;font-size:2.77275085px;line-height:1.25;font-family:impact;-inkscape-font-specification:impact;letter-spacing:0px;word-spacing:0px;fill:#f2f200;fill-opacity:1;stroke:#121212;stroke-width:0.09503026;stroke-miterlimit:4;stroke-dasharray:none;stroke-opacity:1"
       id="text10079"
       inkscape:path-effect="#path-effect10114">
      <path
         d="m 21.63731,-13.305346 c 5.18e-4,-3e-6 -0.17095,8.91e-4 -0.170432,8.88e-4 -0.02931,1.24e-4 -0.190041,8.78e-4 -0.219356,0.001 -0.0019,1e-5 -0.136787,6.28e-4 -0.138735,6.38e-4 0.0011,-0.05437 0.0023,-0.111636 0.0031,-0.167023 0.0012,-0.07879 -0.0054,-0.129856 -0.01871,-0.15163 -0.01334,-0.02178 -0.0356,-0.03236 -0.06662,-0.0317 -0.03371,7.15e-4 -0.05922,0.01612 -0.07708,0.0458 -0.01693,0.0296 -0.02586,0.07407 -0.02713,0.132559 -0.0016,0.07539 0.0064,0.130873 0.02517,0.16852 0.0178,0.03747 0.06997,0.08249 0.157292,0.135313 0.04997,0.03035 0.0964,0.05963 0.139276,0.08787 0,0 0,0 0,0 0.08858,0.0584 0.161533,0.1122 0.218863,0.161681 0.05384,0.04651 0.09362,0.08902 0.119312,0.127525 0.06525,0.09779 0.101279,0.260203 0.100671,0.494191 -4.49e-4,0.172965 -0.02246,0.307989 -0.06377,0.39667 -0.03353,0.0736 -0.09183,0.137742 -0.174462,0.189744 0,0 0,0 0,0 -0.01623,0.0102 -0.03339,0.01993 -0.05147,0.02919 -0.05536,0.02778 -0.11453,0.04707 -0.1774,0.05757 -0.06231,0.0104 -0.127845,0.0121 -0.196708,0.0052 -0.116605,-0.0117 -0.215724,-0.04459 -0.298763,-0.09398 -0.02536,-0.01509 -0.04899,-0.03155 -0.07107,-0.0495 -0.0014,-0.0011 -0.0027,-0.0022 -0.0041,-0.0034 0,0 0,0 0,0 -0.0471,-0.0391 -0.08206,-0.07985 -0.108378,-0.123193 -0.01134,-0.0194 -0.02019,-0.03717 -0.02731,-0.05484 0,0 0,0 0,0 0,0 0,0 0,0 0,0 0,0 0,0 0,0 0,0 0,0 0,0 0,0 0,0 0,0 0,0 0,0 -0.0093,-0.0232 -0.01536,-0.04543 -0.01977,-0.06856 -0.01614,-0.08474 -0.03259,-0.205101 -0.05732,-0.380478 -0.0073,-0.05181 -0.0143,-0.10141 -0.02069,-0.152824 0.02476,-0.0041 0.05026,-0.0071 0.07735,-0.0078 0.01195,-3.05e-4 0.0242,-1.56e-4 0.03678,5.68e-4 0.04295,1.65e-4 0.08733,3.59e-4 0.130865,6.53e-4 0,0 0,0 0,0 0.0277,2.05e-4 0.0557,4.75e-4 0.0837,8.49e-4 0.01208,1.39e-4 0.175617,0.0021 0.187692,0.0022 0.0018,0.08781 0.0042,0.188088 0.0052,0.279349 9.22e-4,0.08772 0.0073,0.146088 0.02101,0.172448 0.01459,0.02646 0.04021,0.04076 0.07735,0.04237 0.03713,0.0016 0.06505,-0.01397 0.0834,-0.0466 0.01921,-0.03255 0.02912,-0.08137 0.02904,-0.145155 -1.71e-4,-0.13937 -0.01986,-0.228283 -0.05514,-0.269568 -0.03656,-0.04173 -0.126129,-0.111368 -0.269621,-0.206379 -0.03017,-0.02017 -0.0581,-0.039 -0.08405,-0.05673 0,0 0,0 0,0 -0.03176,-0.02171 -0.06014,-0.04151 -0.08538,-0.05961 -0.05235,-0.03748 -0.09085,-0.06754 -0.115471,-0.09018 -0.0064,-0.0059 -0.0126,-0.01204 -0.01866,-0.01852 -0.01337,-0.01443 -0.02586,-0.03017 -0.03737,-0.04727 -0.02113,-0.03139 -0.03914,-0.06764 -0.05228,-0.10733 -0.02445,-0.07675 -0.0188,-0.150998 0.0019,-0.260023 0.02886,-0.152156 0.03826,-0.293086 0.05996,-0.389181 0.0059,-0.02567 0.01347,-0.04865 0.0239,-0.06989 0,0 0,0 0,0 0.008,-0.0162 0.01747,-0.03063 0.02902,-0.0433 0,0 0,0 0,0 0,0 0,0 0,0 0,0 0,0 0,0 0,0 0,0 0,0 0,0 0,0 0,0 0.0292,-0.0378 0.06572,-0.07041 0.112512,-0.09904 6.28e-4,-3.92e-4 0.0013,-7.82e-4 0.0019,-0.0012 0.02406,-0.01489 0.05008,-0.02807 0.0781,-0.03955 0.0724,-0.0298 0.156804,-0.04828 0.25353,-0.05401 0.09006,-0.0053 0.172837,3.63e-4 0.248265,0.01728 0.04817,0.01081 0.09314,0.02619 0.134938,0.04613 0.0339,0.01602 0.06427,0.03372 0.09111,0.05302 0,0 0,0 0,0 0.05861,0.04218 0.10012,0.09191 0.124353,0.148044 0.03662,0.08172 0.0545,0.217141 0.05265,0.400729 -7e-5,0.0069 -9.31e-4,0.08341 -0.001,0.09036 z"
         style="fill:#f2f200;fill-opacity:1;stroke:#121212;stroke-width:0.09503026;stroke-miterlimit:4;stroke-dasharray:none;stroke-opacity:1"
         id="path10081"
         inkscape:original-d="m 21.646346,-13.315907 h -0.529368 v -0.162465 q 0,-0.113727 -0.02031,-0.144866 -0.02031,-0.03114 -0.06769,-0.03114 -0.05145,0 -0.07853,0.04197 -0.02572,0.04197 -0.02572,0.127265 0,0.109665 0.02979,0.165174 0.02843,0.05551 0.161112,0.134034 0.380441,0.226098 0.479274,0.370964 0.09883,0.144865 0.09883,0.467089 0,0.234222 -0.05551,0.34524 -0.05416,0.111019 -0.211206,0.186836 -0.15705,0.07446 -0.365548,0.07446 -0.228806,0 -0.391272,-0.08665 -0.161112,-0.08665 -0.211206,-0.220683 -0.05009,-0.134034 -0.05009,-0.380441 v -0.143511 h 0.529368 v 0.266715 q 0,0.123203 0.02166,0.158404 0.02302,0.0352 0.07988,0.0352 0.05686,0 0.08394,-0.04468 0.02843,-0.04468 0.02843,-0.132681 0,-0.193605 -0.0528,-0.253176 -0.05416,-0.05957 -0.266715,-0.199021 -0.21256,-0.140803 -0.281608,-0.204436 -0.06905,-0.06363 -0.11508,-0.176004 -0.04468,-0.112373 -0.04468,-0.287023 0,-0.251823 0.06363,-0.368256 0.06499,-0.116434 0.208497,-0.181421 0.143512,-0.06634 0.346594,-0.06634 0.222037,0 0.377733,0.07176 0.157051,0.07176 0.207144,0.18142 0.05145,0.108311 0.05145,0.36961 z"
         inkscape:connector-curvature="0" />
      <path
         d="m 22.998811,-14.107762 c 0.0082,0.193878 0.01064,0.377108 0.01131,0.541882 -0.0017,3.3e-5 -0.335826,0.0063 -0.33756,0.0063 9.4e-4,0.286774 0.0031,1.535473 -0.03113,1.995726 -0.190242,-0.01103 -0.378378,-0.02268 -0.568358,-0.03528 0.03271,-0.380644 0.03175,-1.725697 0.03154,-1.950575 0.0036,-6.1e-5 -0.339446,0.0055 -0.335812,0.0054 2.25e-4,-0.155761 -0.0019,-0.326378 -0.01326,-0.502877 0.150373,-0.0075 1.092903,-0.05308 1.243276,-0.06057 z"
         style="fill:#f2f200;fill-opacity:1;stroke:#121212;stroke-width:0.09503026;stroke-miterlimit:4;stroke-dasharray:none;stroke-opacity:1"
         id="path10083"
         inkscape:original-d="m 23.02189,-13.979309 v 0.438658 h -0.33847 v 1.753277 h -0.569985 v -1.753277 h -0.337116 v -0.438658 z"
         inkscape:connector-curvature="0" />
      <path
         d="m 23.128666,-14.11403 c -0.0058,2.82e-4 0.145517,-0.0071 0.139674,-0.0068 -1.439536,0.06993 2.065157,-0.100285 0.625622,-0.03036 -0.0051,2.48e-4 0.189845,-0.0092 0.184699,-0.0089 0.0072,0.20689 0.0096,0.400019 0.01055,0.572282 0.0033,-7e-5 -0.187869,0.0039 -0.18455,0.0039 0.02283,-4.73e-4 -0.218424,0.0045 -0.195595,0.004 7.76e-4,0.154602 2.66e-4,0.324704 -1.47e-4,0.465562 0.0087,-4.1e-5 0.187007,-9.17e-4 0.195707,-9.58e-4 5.59e-4,-3e-6 0.159734,-8.4e-4 0.160293,-8.42e-4 6.98e-4,-0.263864 -0.002,0.71678 -0.0013,0.452916 -5.14e-4,-3e-6 -0.159754,-0.001 -0.160268,-0.001 0.01693,1.14e-4 -0.212609,-0.0014 -0.195674,-0.0013 -5.46e-4,0.167814 -0.0014,0.364297 -0.0053,0.556505 0.01351,3.14e-4 0.181981,0.0042 0.195486,0.0045 -0.0019,-4.4e-5 0.224196,0.0051 0.222302,0.005 -0.0037,0.18228 -0.01023,0.386434 -0.02342,0.609645 -0.0012,-5.4e-5 -0.221394,-0.01036 -0.222563,-0.01042 -0.210202,-0.01 -0.415402,-0.01987 -0.625473,-0.03059 0.0015,7.7e-5 -0.141136,-0.0073 -0.139623,-0.0072 0.03454,-0.510416 0.03721,-2.146427 0.01959,-2.575927 z"
         style="fill:#f2f200;fill-opacity:1;stroke:#121212;stroke-width:0.09503026;stroke-miterlimit:4;stroke-dasharray:none;stroke-opacity:1"
         id="path10085"
         inkscape:original-d="m 23.151863,-13.979309 h 0.950425 v 0.438658 h -0.380441 v 0.415642 h 0.356072 v 0.416996 h -0.356072 v 0.481982 h 0.41835 v 0.438657 h -0.988334 z"
         inkscape:connector-curvature="0" />
      <path
         d="m 24.851615,-14.196726 c 0.01534,0.518242 0.01042,1.712826 0.0025,2.112699 -0.0021,-4.1e-5 0.348104,0.0067 0.346027,0.0066 -0.0037,0.188414 -0.0099,0.400133 -0.02163,0.633389 -0.306122,-0.01177 -0.610703,-0.02456 -0.916634,-0.03835 0.0349,-0.604301 0.03747,-2.157622 0.01984,-2.687462 -0.02344,0.0011 0.593356,-0.02804 0.569919,-0.02692 z"
         style="fill:#f2f200;fill-opacity:1;stroke:#121212;stroke-width:0.09503026;stroke-miterlimit:4;stroke-dasharray:none;stroke-opacity:1"
         id="path10087"
         inkscape:original-d="m 24.875355,-13.979309 v 1.753278 h 0.346594 v 0.438657 h -0.916578 v -2.191935 z"
         inkscape:connector-curvature="0" />
      <path
         d="m 25.907804,-14.244103 c 0.01334,0.583272 0.0089,1.733964 6.5e-4,2.178811 -8.22e-4,-1.3e-5 0.346909,0.0051 0.346088,0.0051 -0.0035,0.193463 -0.0091,0.411162 -0.01928,0.652312 -0.306206,-0.0091 -0.61123,-0.01943 -0.917264,-0.03086 0.03328,-0.675635 0.03582,-2.170859 0.01968,-2.780297 0.190141,-0.0086 0.379941,-0.01694 0.570117,-0.0251 z"
         style="fill:#f2f200;fill-opacity:1;stroke:#121212;stroke-width:0.09503026;stroke-miterlimit:4;stroke-dasharray:none;stroke-opacity:1"
         id="path10089"
         inkscape:original-d="m 25.931384,-13.979309 v 1.753278 h 0.346593 v 0.438657 h -0.916578 v -2.191935 z"
         inkscape:connector-curvature="0" />
      <path
         d="m 27.449397,-14.304618 c 0.125385,1.199435 0.238595,1.675647 0.308464,2.932355 -0.194928,-0.0033 -0.389628,-0.0071 -0.584502,-0.01132 -0.0016,-0.222591 -0.0064,-0.42281 -0.01257,-0.604302 -2.8e-5,0 -0.204193,-0.0023 -0.204221,-0.0023 -0.01428,0.177699 -0.03111,0.382517 -0.05032,0.6005 -0.197122,-0.0048 -0.393966,-0.01001 -0.591024,-0.01576 0.08572,-0.707242 0.26672,-2.202887 0.309094,-2.868208 0.275212,-0.0109 0.549796,-0.02122 0.825076,-0.03092 z m -0.29882,1.816291 c -0.02702,-0.304206 -0.05437,-0.630442 -0.08395,-1.094765 -0.06305,0.606523 -0.08871,0.775245 -0.110706,1.094158 1.18e-4,0 0.194542,6.06e-4 0.19466,6.07e-4 z"
         style="fill:#f2f200;fill-opacity:1;stroke:#121212;stroke-width:0.09503026;stroke-miterlimit:4;stroke-dasharray:none;stroke-opacity:1"
         id="path10091"
         inkscape:original-d="m 27.472101,-13.979309 0.326286,2.191935 h -0.583524 l -0.02843,-0.393979 h -0.204436 l -0.03385,0.393979 h -0.590293 l 0.289731,-2.191935 z m -0.301916,1.409392 q -0.04332,-0.372318 -0.08665,-0.919287 -0.08665,0.628202 -0.108311,0.919287 z"
         inkscape:connector-curvature="0" />
      <path
         d="m 27.873525,-14.319045 c 0.134629,-0.0044 0.269204,-0.0087 0.403847,-0.01275 0.269501,-0.0082 0.451222,0.0045 0.546538,0.03688 0.09627,0.03233 0.173855,0.119456 0.234113,0.250984 0.06089,0.12954 0.09137,0.329927 0.0912,0.57076 -1.51e-4,0.218295 -0.0217,0.354916 -0.06422,0.42531 -0.04249,0.07036 -0.126108,0.112556 -0.250509,0.127111 0.112567,0.03256 0.188203,0.07663 0.226744,0.132304 0.03857,0.05571 0.06224,0.107481 0.07102,0.15545 0.0096,0.04628 0.01422,0.176335 0.01212,0.4059 -0.0023,0.249582 -0.0061,0.538277 -0.01354,0.870303 -0.176905,-0.001 -0.353678,-0.0024 -0.530553,-0.0042 0.01057,-0.412111 0.01465,-0.764861 0.01679,-1.058678 0.0011,-0.145673 -0.0081,-0.232231 -0.02685,-0.265532 -0.01787,-0.03336 -0.06605,-0.04981 -0.144462,-0.04957 -0.0015,0.363069 -0.0046,0.829019 -0.01914,1.371934 -0.190447,-0.0022 -0.380706,-0.0048 -0.571109,-0.0078 0.02462,-0.807457 0.02678,-2.180484 0.018,-2.948396 z m 0.573504,0.556488 c 4.66e-4,0.217359 2.82e-4,0.438058 -7e-5,0.623638 0.06399,-5.04e-4 0.108655,-0.01113 0.133919,-0.03202 0.02617,-0.02199 0.03939,-0.09097 0.03948,-0.211745 -1e-6,0.001 4.8e-5,-0.153293 4.8e-5,-0.154302 -1.3e-5,-0.09096 -0.01273,-0.153402 -0.03802,-0.182842 -0.02444,-0.02951 -0.06947,-0.0439 -0.13536,-0.04272 0,0 4e-6,-1.1e-5 4e-6,-1.1e-5 z"
         style="fill:#f2f200;fill-opacity:1;stroke:#121212;stroke-width:0.09503026;stroke-miterlimit:4;stroke-dasharray:none;stroke-opacity:1"
         id="path10093"
         inkscape:original-d="m 27.895866,-13.979309 h 0.403457 q 0.403457,0 0.545615,0.03114 0.143511,0.03114 0.232868,0.159758 0.09071,0.127265 0.09071,0.407519 0,0.255884 -0.06363,0.343886 -0.06363,0.088 -0.250468,0.105603 0.169235,0.04197 0.227452,0.112372 0.05822,0.0704 0.07176,0.129973 0.01489,0.05822 0.01489,0.323578 v 0.578107 h -0.529368 v -0.728388 q 0,-0.176005 -0.02843,-0.217975 -0.02708,-0.04197 -0.144865,-0.04197 v 0.988334 h -0.569985 z m 0.569985,0.375025 v 0.487398 q 0.09613,0 0.134034,-0.02572 0.03926,-0.02708 0.03926,-0.171943 v -0.120495 q 0,-0.104249 -0.03791,-0.136742 -0.03655,-0.03249 -0.135388,-0.03249 z"
         inkscape:connector-curvature="0" />
      <path
         d="m 31.064669,-13.406002 c -0.0061,3.6e-5 -0.522865,0.0035 -0.528966,0.0035 10e-7,-4.22e-4 3.81e-4,-0.213696 3.82e-4,-0.214118 1.75e-4,-0.103165 -0.0065,-0.172759 -0.01998,-0.202627 -0.01352,-0.02992 -0.03601,-0.04496 -0.06761,-0.04461 -0.03434,3.79e-4 -0.06045,0.02128 -0.07859,0.06177 -0.01719,0.04038 -0.02584,0.100677 -0.02595,0.178024 -1.44e-4,0.09917 0.0097,0.170286 0.02941,0.217586 0.01886,0.04733 0.0724,0.103354 0.160654,0.167643 0.253779,0.185652 0.411489,0.329253 0.477718,0.446337 0.0654,0.115615 0.09786,0.301097 0.09611,0.583247 -0.0013,0.207565 -0.02128,0.380095 -0.05943,0.49548 -0.03724,0.115351 -0.108895,0.219402 -0.214932,0.307129 -0.106569,0.08661 -0.228413,0.132389 -0.368378,0.13289 -0.153683,5.5e-4 -0.282285,-0.05185 -0.38985,-0.151188 -0.106018,-0.09875 -0.174599,-0.219804 -0.206225,-0.355485 -0.03161,-0.135607 -0.04626,-0.318965 -0.04473,-0.530566 3.1e-5,-0.0043 0.0011,-0.177267 0.0012,-0.181579 0.01027,-3.2e-5 0.518705,-0.0018 0.528979,-0.0019 -5.62e-4,0.110119 -0.0013,0.224919 -0.0022,0.344792 -8.87e-4,0.111376 0.0056,0.187575 0.01967,0.221551 0.01504,0.03402 0.04143,0.05129 0.07938,0.05116 0.03796,-1.34e-4 0.0661,-0.0223 0.08461,-0.06545 0.01936,-0.04304 0.02941,-0.106056 0.03003,-0.185996 0.0014,-0.174453 -0.01577,-0.279983 -0.05064,-0.329535 -0.03599,-0.04983 -0.124093,-0.131345 -0.265407,-0.243062 -0.142018,-0.113368 -0.233843,-0.192234 -0.280553,-0.243692 -0.04578,-0.05043 -0.08407,-0.120562 -0.114461,-0.211395 -0.02957,-0.09107 -0.04423,-0.208765 -0.04406,-0.361355 2.45e-4,-0.22027 0.02143,-0.403525 0.06378,-0.52447 0.04329,-0.121058 0.112658,-0.223172 0.2084,-0.299232 0.09613,-0.07792 0.210994,-0.119979 0.347051,-0.12226 0.148829,-0.0025 0.273857,0.03891 0.378161,0.120393 0.104677,0.08106 0.173496,0.181306 0.206611,0.29517 0.03402,0.112426 0.05068,0.298691 0.05016,0.528856 -1.6e-5,0.0073 -2.27e-4,0.105638 -2.43e-4,0.112963 z"
         style="fill:#f2f200;fill-opacity:1;stroke:#121212;stroke-width:0.09503026;stroke-miterlimit:4;stroke-dasharray:none;stroke-opacity:1"
         id="path10095"
         inkscape:original-d="m 31.085613,-13.315907 h -0.529368 v -0.162465 q 0,-0.113727 -0.02031,-0.144866 -0.02031,-0.03114 -0.06769,-0.03114 -0.05145,0 -0.07853,0.04197 -0.02572,0.04197 -0.02572,0.127265 0,0.109665 0.02978,0.165174 0.02843,0.05551 0.161112,0.134034 0.380441,0.226098 0.479275,0.370964 0.09883,0.144865 0.09883,0.467089 0,0.234222 -0.05551,0.34524 -0.05416,0.111019 -0.211206,0.186836 -0.15705,0.07446 -0.365548,0.07446 -0.228806,0 -0.391272,-0.08665 -0.161112,-0.08665 -0.211206,-0.220683 -0.05009,-0.134034 -0.05009,-0.380441 v -0.143511 h 0.529368 v 0.266715 q 0,0.123203 0.02166,0.158404 0.02302,0.0352 0.07988,0.0352 0.05686,0 0.08394,-0.04468 0.02843,-0.04468 0.02843,-0.132681 0,-0.193605 -0.0528,-0.253176 -0.05416,-0.05957 -0.266715,-0.199021 -0.21256,-0.140803 -0.281608,-0.204436 -0.06905,-0.06363 -0.11508,-0.176004 -0.04468,-0.112373 -0.04468,-0.287023 0,-0.251823 0.06363,-0.368256 0.06499,-0.116434 0.208498,-0.181421 0.143511,-0.06634 0.346593,-0.06634 0.222037,0 0.377734,0.07176 0.15705,0.07176 0.207144,0.18142 0.05145,0.108311 0.05145,0.36961 z"
         inkscape:connector-curvature="0" />
      <path
         d="m 32.5909,-12.656148 c -7.63e-4,0.264121 -0.007,0.472511 -0.01828,0.599979 -0.01038,0.12627 -0.04334,0.249939 -0.09888,0.36913 -0.0547,0.119328 -0.128653,0.218236 -0.222234,0.28964 -0.09391,0.07165 -0.202007,0.109882 -0.32645,0.111513 -0.118101,0.0015 -0.223015,-0.03143 -0.316944,-0.09653 -0.09273,-0.06649 -0.166698,-0.163958 -0.222677,-0.284885 -0.05587,-0.120711 -0.08874,-0.245042 -0.0987,-0.371193 -0.0099,-0.126016 -0.01405,-0.339425 -0.01307,-0.611352 1.27e-4,-0.03502 0.0012,-0.416872 0.0013,-0.451888 6.36e-4,-0.266267 0.006,-0.474702 0.01633,-0.602594 0.01117,-0.128599 0.04405,-0.254085 0.09864,-0.374141 0.05557,-0.12022 0.129958,-0.219585 0.223483,-0.290882 0.09386,-0.07155 0.201832,-0.109071 0.326107,-0.109487 0.11794,-3.95e-4 0.222218,0.03475 0.315113,0.10267 0.09353,0.06613 0.167912,0.164003 0.223982,0.285801 0.05597,0.121567 0.08904,0.246402 0.09924,0.37278 0.01015,0.125679 0.01485,0.340463 0.01418,0.611282 0.0013,-0.526958 -0.0024,0.977111 -0.0012,0.450154 z m -0.56689,-0.885123 c 4.4e-4,-0.136114 -0.005,-0.229701 -0.01657,-0.270126 -0.01067,-0.04183 -0.03352,-0.06319 -0.06874,-0.06308 -0.0298,8.8e-5 -0.05282,0.01755 -0.06923,0.05173 -0.01547,0.0328 -0.02354,0.131281 -0.024,0.28202 -0.0042,1.378768 2.92e-4,-0.110492 -0.0039,1.268276 -7.87e-4,0.166744 0.0035,0.279314 0.01318,0.322086 0.01061,0.04283 0.0348,0.06458 0.07274,0.06424 0.03885,-3.46e-4 0.06376,-0.02588 0.07488,-0.0752 0.01109,-0.04915 0.01714,-0.165634 0.01787,-0.333456 0.0013,-0.297802 0.0025,-0.94869 0.0038,-1.246492 z"
         style="fill:#f2f200;fill-opacity:1;stroke:#121212;stroke-width:0.09503026;stroke-miterlimit:4;stroke-dasharray:none;stroke-opacity:1"
         id="path10097"
         inkscape:original-d="m 32.6155,-12.695829 q 0,0.330348 -0.01625,0.468444 -0.01489,0.136742 -0.09748,0.250468 -0.08123,0.113726 -0.220683,0.174651 -0.13945,0.06092 -0.324932,0.06092 -0.176005,0 -0.316808,-0.05686 -0.13945,-0.05822 -0.224745,-0.173297 -0.08529,-0.11508 -0.101541,-0.250468 -0.01625,-0.135388 -0.01625,-0.473859 v -0.375025 q 0,-0.330347 0.01489,-0.467089 0.01625,-0.138096 0.09748,-0.251822 0.08259,-0.113727 0.222036,-0.174651 0.13945,-0.06092 0.324932,-0.06092 0.176005,0 0.315455,0.05822 0.140803,0.05686 0.226098,0.171943 0.0853,0.11508 0.101541,0.250468 0.01625,0.135389 0.01625,0.473859 z m -0.569985,-0.720265 q 0,-0.152989 -0.0176,-0.194959 -0.01625,-0.04332 -0.06905,-0.04332 -0.04468,0 -0.06905,0.0352 -0.02302,0.03385 -0.02302,0.203082 v 1.023535 q 0,0.190897 0.01489,0.235576 0.01625,0.04468 0.07311,0.04468 0.05822,0 0.07446,-0.05145 0.01625,-0.05145 0.01625,-0.245052 z"
         inkscape:connector-curvature="0" />
      <path
         d="m 34.110487,-14.381645 c -0.01208,0.650354 -0.01182,1.530639 -0.01255,1.937776 -3.68e-4,0.203844 -0.0059,0.363499 -0.01656,0.457814 -0.01075,0.09343 -0.04256,0.194415 -0.09544,0.305759 -0.05294,0.11006 -0.122825,0.20057 -0.210294,0.265428 -0.08682,0.06348 -0.188778,0.09797 -0.307708,0.100758 -0.131765,0.0031 -0.246863,-0.03283 -0.347833,-0.10498 -0.100528,-0.07183 -0.175432,-0.164119 -0.224947,-0.271655 -0.04948,-0.107465 -0.07851,-0.215176 -0.0872,-0.322559 -0.0087,-0.109189 -0.01241,-0.330186 -0.01158,-0.627483 0.0012,-0.414254 0.0015,-1.106409 0.0089,-1.755511 0.190281,9.19e-4 0.380408,0.0024 0.570669,0.0043 -0.0096,0.665644 -0.01044,1.75176 -0.01137,2.181803 -2.74e-4,0.126139 0.0046,0.212834 0.01445,0.251144 0.01081,0.03709 0.03196,0.05578 0.06357,0.05533 0.03613,-5.12e-4 0.0591,-0.0218 0.06908,-0.06286 0.01086,-0.04225 0.01637,-0.140203 0.01665,-0.282391 8.49e-4,-0.426407 0.0014,-1.476147 0.01164,-2.141197 0.190262,0.0023 0.38035,0.0051 0.570586,0.0085 z"
         style="fill:#f2f200;fill-opacity:1;stroke:#121212;stroke-width:0.09503026;stroke-miterlimit:4;stroke-dasharray:none;stroke-opacity:1"
         id="path10099"
         inkscape:original-d="m 34.125079,-13.979309 v 1.464901 q 0,0.249114 -0.01625,0.350655 -0.01625,0.100187 -0.09613,0.207144 -0.07988,0.105603 -0.211206,0.161112 -0.129972,0.05415 -0.307331,0.05415 -0.196313,0 -0.346594,-0.06499 -0.150281,-0.06499 -0.224744,-0.169235 -0.07446,-0.104249 -0.088,-0.219329 -0.01354,-0.116434 -0.01354,-0.487398 v -1.297019 h 0.569984 v 1.643613 q 0,0.143512 0.01489,0.184128 0.01625,0.03926 0.06363,0.03926 0.05416,0 0.06905,-0.04333 0.01625,-0.04468 0.01625,-0.208497 v -1.615182 z"
         inkscape:connector-curvature="0" />
      <path
         d="m 35.686232,-14.341591 c -0.06499,0.604639 -0.261942,2.312628 -0.298351,2.894089 -0.289202,0.0096 -0.577801,0.0186 -0.867068,0.02685 -0.123774,-1.221747 -0.233892,-1.694635 -0.319529,-2.959345 0.200636,0.0037 0.401045,0.008 0.601647,0.01297 0.04611,1.034094 0.105134,1.482419 0.134561,1.997914 0.02465,-0.427559 0.06759,-0.998338 0.0977,-1.36868 0.01361,-0.171698 0.03208,-0.407058 0.04955,-0.621934 0.200596,0.0055 0.400929,0.01152 0.601485,0.01814 z"
         style="fill:#f2f200;fill-opacity:1;stroke:#121212;stroke-width:0.09503026;stroke-miterlimit:4;stroke-dasharray:none;stroke-opacity:1"
         id="path10101"
         inkscape:original-d="m 35.699644,-13.979309 -0.289731,2.191935 h -0.865131 l -0.328993,-2.191935 h 0.601124 q 0.104249,0.905747 0.148927,1.531241 0.04468,-0.632263 0.09342,-1.123722 l 0.03926,-0.407519 z"
         inkscape:connector-curvature="0" />
      <path
         d="m 35.783759,-14.338327 c 0.3143,0.01066 0.627422,0.02265 0.941617,0.03591 2.4e-5,10e-7 0.0091,3.84e-4 0.0091,3.85e-4 -0.0082,0.234102 -0.0119,0.447546 -0.01387,0.636359 1.7e-5,0 -0.0091,-1.99e-4 -0.0091,-1.98e-4 0.0027,5.7e-5 -0.373502,-0.0076 -0.370798,-0.0076 -0.0018,0.177648 -0.0023,0.356086 -0.0027,0.511665 0.0025,1.9e-5 0.353067,0.0027 0.355614,0.0027 -1.67e-4,0.08979 -5.38e-4,0.382138 -7.05e-4,0.471925 -6.44e-4,2e-6 -0.355031,0.001 -0.355675,0.001 -2.51e-4,0.171469 -5.61e-4,0.383347 4.72e-4,0.578706 0.006,-1.05e-4 0.365055,-0.0065 0.371029,-0.0066 1.5e-4,-3e-6 0.04694,-8.18e-4 0.04709,-8.21e-4 0.0011,0.183723 0.0036,0.390897 0.0102,0.61661 5.4e-5,-2e-6 -0.04715,0.0019 -0.0471,0.0019 -0.314693,0.01252 -0.628279,0.02436 -0.943074,0.0355 -0.01253,-0.59134 -0.01024,-2.249253 0.0079,-2.877485 z"
         style="fill:#f2f200;fill-opacity:1;stroke:#121212;stroke-width:0.09503026;stroke-miterlimit:4;stroke-dasharray:none;stroke-opacity:1"
         id="path10103"
         inkscape:original-d="m 35.797123,-13.979309 h 0.950426 v 0.438658 h -0.380441 v 0.415642 h 0.356071 v 0.416996 h -0.356071 v 0.481982 h 0.418349 v 0.438657 h -0.988334 z"
         inkscape:connector-curvature="0" />
      <path
         d="m 38.21187,-14.237521 c -0.02238,0.517782 -0.02381,2.204901 -0.0058,2.678029 0.01438,-6.42e-4 -0.514535,0.02269 -0.500159,0.02205 -0.131188,-0.560168 -0.192068,-0.801894 -0.308029,-1.235729 -4.68e-4,0.31562 -0.0031,0.796132 0.0111,1.248471 0.0073,-3.1e-4 -0.484715,0.02014 -0.477392,0.01983 -0.01593,-0.541519 -0.01423,-2.207042 0.0062,-2.788611 -0.62529,-0.02618 1.102448,0.04624 0.477158,0.02006 0.08528,0.510537 0.200389,0.919238 0.30277,1.270692 3.47e-4,-0.31719 -0.001,-0.790625 0.01715,-1.256818 0.159384,0.0071 0.317732,0.01433 0.477032,0.02203 z"
         style="fill:#f2f200;fill-opacity:1;stroke:#121212;stroke-width:0.09503026;stroke-miterlimit:4;stroke-dasharray:none;stroke-opacity:1"
         id="path10105"
         inkscape:original-d="m 38.22328,-13.979309 v 2.191935 h -0.499583 l -0.2965,-0.996457 v 0.996457 h -0.476566 v -2.191935 h 0.476566 l 0.319516,0.98698 v -0.98698 z"
         inkscape:connector-curvature="0" />
      <path
         d="m 39.009237,-14.195195 c -0.02379,0.449755 -0.025,2.192717 -0.0052,2.599558 -0.05839,0.0027 -0.511949,0.02323 -0.570338,0.02591 -0.01852,-0.456076 -0.01714,-2.155658 0.0057,-2.656511 0.190529,0.0097 0.379554,0.01994 0.569801,0.03104 z"
         style="fill:#f2f200;fill-opacity:1;stroke:#121212;stroke-width:0.09503026;stroke-miterlimit:4;stroke-dasharray:none;stroke-opacity:1"
         id="path10107"
         inkscape:original-d="m 39.020716,-13.979309 v 2.191935 h -0.569984 v -2.191935 z"
         inkscape:connector-curvature="0" />
      <path
         d="m 39.235012,-14.181664 c 0.134416,0.0083 0.268239,0.01691 0.402482,0.02598 0.26745,0.01807 0.448839,0.0463 0.540531,0.08 0.09354,0.03411 0.165464,0.108565 0.220798,0.215912 0.05546,0.104768 0.0838,0.267784 0.08533,0.467981 0.0014,0.183961 -0.01791,0.300242 -0.06049,0.361051 -0.04206,0.06008 -0.125762,0.09577 -0.250233,0.107133 0.112814,0.02955 0.18875,0.06834 0.227393,0.11652 0.03868,0.04822 0.06229,0.09259 0.07097,0.133431 0.01008,0.042 0.01281,0.148028 0.0113,0.33832 -0.0016,0.200343 -0.001,0.429841 0.01898,0.666289 -0.17703,0.0093 -0.351667,0.01826 -0.52881,0.0271 -0.02123,-0.304478 -0.01878,-0.606138 -0.01705,-0.849427 8.85e-4,-0.124341 -0.008,-0.199388 -0.02687,-0.228606 -0.01787,-0.02908 -0.0661,-0.04372 -0.144506,-0.04386 -0.0011,0.29163 -0.01005,0.743411 0.01523,1.130465 -0.190906,0.0094 -0.378845,0.01834 -0.569875,0.02726 -0.02027,-0.384093 -0.01917,-2.150216 0.0048,-2.575554 z m 0.550317,0.516931 c -0.0025,0.18156 -0.0012,0.383849 -6.01e-4,0.544002 0.06395,7.41e-4 0.108564,-0.0078 0.133684,-0.02566 0.02611,-0.01886 0.03872,-0.07907 0.03831,-0.184143 -1.69e-4,-0.04365 -2.83e-4,-0.08844 -2.58e-4,-0.133367 4.3e-5,-0.07812 -0.01207,-0.131631 -0.03694,-0.157822 -0.02398,-0.02617 -0.06865,-0.0407 -0.134202,-0.043 0,0 4e-6,-10e-6 4e-6,-10e-6 z"
         style="fill:#f2f200;fill-opacity:1;stroke:#121212;stroke-width:0.09503026;stroke-miterlimit:4;stroke-dasharray:none;stroke-opacity:1"
         id="path10109"
         inkscape:original-d="m 39.246815,-13.979309 h 0.403457 q 0.403457,0 0.545615,0.03114 0.143511,0.03114 0.232867,0.159758 0.09071,0.127265 0.09071,0.407519 0,0.255884 -0.06363,0.343886 -0.06363,0.088 -0.250468,0.105603 0.169235,0.04197 0.227452,0.112372 0.05822,0.0704 0.07176,0.129973 0.01489,0.05822 0.01489,0.323578 v 0.578107 h -0.529367 v -0.728388 q 0,-0.176005 -0.02843,-0.217975 -0.02708,-0.04197 -0.144865,-0.04197 v 0.988334 h -0.569985 z m 0.569985,0.375025 v 0.487398 q 0.09613,0 0.134034,-0.02572 0.03926,-0.02708 0.03926,-0.171943 v -0.120495 q 0,-0.104249 -0.03791,-0.136742 -0.03655,-0.03249 -0.135388,-0.03249 z"
         inkscape:connector-curvature="0" />
      <path
         d="m 41.912271,-13.301613 c -0.01669,-6.88e-4 -0.03431,-8.59e-4 -0.05302,-3.61e-4 0,0 0,0 0,0 -0.08207,-7.94e-4 -0.144031,-0.0015 -0.226099,-0.0023 0,0 0,0 0,0 -0.08306,-8.48e-4 -0.165615,-0.0018 -0.248509,-0.0029 -0.0015,-0.0547 -0.003,-0.112241 -0.0041,-0.167882 -0.0016,-0.07902 -0.0086,-0.130604 -0.02199,-0.153131 -0.01344,-0.02257 -0.03568,-0.03462 -0.06697,-0.03585 -0.03397,-0.0013 -0.06001,0.01273 -0.07794,0.04227 -0.01702,0.02954 -0.02534,0.07483 -0.02448,0.134998 0.0011,0.07712 0.01241,0.13472 0.03304,0.173123 0.01979,0.03852 0.07455,0.08515 0.164537,0.139005 0.09895,0.05946 0.183322,0.113243 0.254624,0.163466 0.112384,0.07908 0.189434,0.148094 0.230481,0.206921 0,0 0,0 0,0 0,0 0,0 0,0 0,0 0,0 0,0 8.28e-4,0.0012 0.0016,0.0023 0.0024,0.0035 0.07124,0.103589 0.08722,0.245645 0.06906,0.472465 -0.01179,0.147264 -0.02747,0.283144 -0.05153,0.347361 -0.0091,0.02483 -0.02159,0.04853 -0.03948,0.07322 -0.03405,0.04916 -0.08238,0.09456 -0.147848,0.136716 -0.01842,0.01166 -0.03756,0.02245 -0.05749,0.0324 -0.08459,0.04226 -0.182425,0.06878 -0.295034,0.07646 -0.152912,0.01043 -0.287006,-0.01602 -0.40149,-0.07974 -0.02043,-0.01147 -0.03962,-0.02363 -0.05757,-0.03644 0,0 0,0 0,0 -0.08133,-0.0581 -0.136948,-0.12975 -0.166389,-0.212277 -0.03633,-0.101857 -0.05294,-0.240294 -0.05074,-0.413974 4.03e-4,-0.03187 0.0016,-0.117619 0.002,-0.149486 0.0013,-4e-6 0.205611,-6.4e-4 0.206924,-6.44e-4 0.05352,-1.71e-4 0.269878,-7.69e-4 0.323399,-9.4e-4 -0.0018,0.08511 -0.0043,0.187721 -0.0056,0.275582 -0.0013,0.08638 0.0061,0.143048 0.02056,0.168046 0.0154,0.02498 0.04198,0.03704 0.07957,0.03614 0.03762,-9.06e-4 0.06507,-0.01765 0.08293,-0.04971 0.01873,-0.03203 0.02844,-0.07902 0.02957,-0.140107 0.0025,-0.13473 -0.01159,-0.219275 -0.04632,-0.260135 -0.03524,-0.04039 -0.122561,-0.107295 -0.263865,-0.201473 -0.09289,-0.06251 -0.164961,-0.113461 -0.217205,-0.153823 -0.02727,-0.02108 -0.04887,-0.03909 -0.06481,-0.05402 -0.04625,-0.04331 -0.08515,-0.103438 -0.116645,-0.180888 -0.03048,-0.07717 -0.04706,-0.177655 -0.04817,-0.302534 -0.0016,-0.181735 0.02108,-0.32096 0.0669,-0.410547 0.03819,-0.07319 0.09497,-0.132663 0.169587,-0.176235 0,0 0,0 0,0 0.01584,-0.0092 0.03247,-0.01777 0.04988,-0.02556 0.100056,-0.04582 0.216989,-0.0611 0.351804,-0.0482 0.136458,0.01306 0.250579,0.04838 0.343498,0.100996 0.0071,0.004 0.01414,0.0082 0.02102,0.01241 0.09558,0.05842 0.155336,0.123601 0.185537,0.197711 8.1e-4,0.0017 0.0016,0.0035 0.0024,0.0052 0.03025,0.06639 0.04838,0.20759 0.05836,0.374452 0.0017,0.02799 0.0036,0.05874 0.0052,0.08673 z"
         style="fill:#f2f200;fill-opacity:1;stroke:#121212;stroke-width:0.09503026;stroke-miterlimit:4;stroke-dasharray:none;stroke-opacity:1"
         id="path10111"
         inkscape:original-d="m 41.949164,-13.315907 h -0.529368 v -0.162465 q 0,-0.113727 -0.02031,-0.144866 -0.02031,-0.03114 -0.06769,-0.03114 -0.05145,0 -0.07852,0.04197 -0.02572,0.04197 -0.02572,0.127265 0,0.109665 0.02979,0.165174 0.02843,0.05551 0.161112,0.134034 0.380441,0.226098 0.479275,0.370964 0.09883,0.144865 0.09883,0.467089 0,0.234222 -0.05551,0.34524 -0.05416,0.111019 -0.211206,0.186836 -0.15705,0.07446 -0.365548,0.07446 -0.228806,0 -0.391272,-0.08665 -0.161112,-0.08665 -0.211205,-0.220683 -0.05009,-0.134034 -0.05009,-0.380441 v -0.143511 H 41.2411 v 0.266715 q 0,0.123203 0.02166,0.158404 0.02302,0.0352 0.07988,0.0352 0.05686,0 0.08394,-0.04468 0.02843,-0.04468 0.02843,-0.132681 0,-0.193605 -0.0528,-0.253176 -0.05416,-0.05957 -0.266715,-0.199021 -0.212559,-0.140803 -0.281607,-0.204436 -0.06905,-0.06363 -0.11508,-0.176004 -0.04468,-0.112373 -0.04468,-0.287023 0,-0.251823 0.06363,-0.368256 0.06499,-0.116434 0.208498,-0.181421 0.143511,-0.06634 0.346594,-0.06634 0.222036,0 0.377733,0.07176 0.15705,0.07176 0.207144,0.18142 0.05145,0.108311 0.05145,0.36961 z"
         inkscape:connector-curvature="0" />
    </g>
  </g>
</svg>
