<?xml version="1.0" encoding="UTF-8" standalone="no"?>
<!-- Created with Inkscape (http://www.inkscape.org/) -->

<svg
   xmlns:dc="http://purl.org/dc/elements/1.1/"
   xmlns:cc="http://creativecommons.org/ns#"
   xmlns:rdf="http://www.w3.org/1999/02/22-rdf-syntax-ns#"
   xmlns:svg="http://www.w3.org/2000/svg"
   xmlns="http://www.w3.org/2000/svg"
   xmlns:xlink="http://www.w3.org/1999/xlink"
   xmlns:sodipodi="http://sodipodi.sourceforge.net/DTD/sodipodi-0.dtd"
   xmlns:inkscape="http://www.inkscape.org/namespaces/inkscape"
   width="16.5912mm"
   height="13.801594mm"
   viewBox="0 0 16.5912 13.801594"
   version="1.1"
   id="svg7106"
   sodipodi:docname="thelineup.svg"
   inkscape:version="0.92.1 r15371"
   inkscape:export-filename="D:\Documents\Projects\website\personalsite\haondt.github.io\pages\spacejam\home\images\thelineup.png"
   inkscape:export-xdpi="96"
   inkscape:export-ydpi="96">
  <defs
     id="defs7100">
    <inkscape:path-effect
       effect="envelope"
       id="path-effect7871"
       is_visible="true"
       yy="true"
       xx="true"
       bendpath1="m 6.3461058,3.8070261 c 0.9791252,-0.2861171 7.7319932,-0.7522239 12.6106872,0"
       bendpath2="M 18.956793,3.8070261 V 6.1978352"
       bendpath3="m 6.3461058,6.1978352 c 2.4452822,0.305591 7.1147372,0.6464424 12.6106872,0"
       bendpath4="M 6.3461058,3.8070261 V 6.1978352"
       bendpath1-nodetypes="cc"
       bendpath3-nodetypes="cc" />
    <linearGradient
       inkscape:collect="always"
       id="linearGradient7843">
      <stop
         style="stop-color:#ff7483;stop-opacity:1"
         offset="0"
         id="stop7839" />
      <stop
         style="stop-color:#f20032;stop-opacity:1"
         offset="1"
         id="stop7841" />
    </linearGradient>
    <inkscape:path-effect
       effect="envelope"
       id="path-effect7773"
       is_visible="true"
       yy="true"
       xx="true"
       bendpath1="m 100.69637,114.33538 c 0,0 9.06633,-0.611 14.62331,0"
       bendpath2="m 115.31968,114.33538 v 2.35785"
       bendpath3="m 100.69637,116.69323 c 0,0 8.23516,1.36299 14.62331,0"
       bendpath4="m 100.69637,114.33538 v 2.35785"
       bendpath1-nodetypes="cc"
       bendpath3-nodetypes="cc" />
    <radialGradient
       inkscape:collect="always"
       xlink:href="#linearGradient7843"
       id="radialGradient7845"
       cx="106.16896"
       cy="127.55077"
       fx="106.16896"
       fy="127.55077"
       r="5.3090196"
       gradientTransform="matrix(1,0,0,0.96447769,0,4.4703082)"
       gradientUnits="userSpaceOnUse" />
  </defs>
  <sodipodi:namedview
     id="base"
     pagecolor="#ffffff"
     bordercolor="#666666"
     borderopacity="1.0"
     inkscape:pageopacity="0.0"
     inkscape:pageshadow="2"
     inkscape:zoom="7.9195959"
     inkscape:cx="-17.304424"
     inkscape:cy="50.787678"
     inkscape:document-units="mm"
     inkscape:current-layer="layer20"
     showgrid="false"
     inkscape:window-width="3440"
     inkscape:window-height="1377"
     inkscape:window-x="1072"
     inkscape:window-y="127"
     inkscape:window-maximized="1" />
  <metadata
     id="metadata7103">
    <rdf:RDF>
      <cc:Work
         rdf:about="">
        <dc:format>image/svg+xml</dc:format>
        <dc:type
           rdf:resource="http://purl.org/dc/dcmitype/StillImage" />
        <dc:title></dc:title>
      </cc:Work>
    </rdf:RDF>
  </metadata>
  <g
     inkscape:groupmode="layer"
     id="layer20"
     inkscape:label="planet"
     style="display:inline"
     transform="translate(-99.121709,-117.85287)">
    <ellipse
       transform="scale(0.99476713,1.0052604)"
       style="font-style:normal;font-variant:normal;font-weight:normal;font-stretch:normal;font-size:2.86236405px;line-height:1.25;font-family:impact;-inkscape-font-specification:impact;letter-spacing:0px;word-spacing:0px;opacity:1;fill:url(#radialGradient7845);fill-opacity:1;stroke:none;stroke-width:0.145;stroke-miterlimit:4;stroke-dasharray:none;stroke-opacity:1;paint-order:fill markers stroke"
       id="ellipse7814"
       cx="107.54592"
       cy="125.8451"
       rx="5.3090196"
       ry="5.1204309" />
  </g>
  <g
     inkscape:groupmode="layer"
     id="layer19"
     inkscape:label="ring"
     transform="translate(-99.121709,-117.85287)">
    <path
       style="font-style:normal;font-variant:normal;font-weight:normal;font-stretch:normal;font-size:2.86236405px;line-height:1.25;font-family:impact;-inkscape-font-specification:impact;letter-spacing:0px;word-spacing:0px;opacity:1;fill:#00f2e0;fill-opacity:1;stroke:none;stroke-width:0.80297488;stroke-miterlimit:4;stroke-dasharray:none;stroke-opacity:1;paint-order:fill markers stroke"
       d="m 26.384766,26.701172 a 34.222215,11.37704 25.134914 0 0 -9.267578,3.908203 34.222215,11.37704 25.134914 0 0 9.642578,14.119141 19.960585,19.454613 0 0 1 0.06641,-1.275391 19.960585,19.454613 0 0 1 0.298828,-1.923828 19.960585,19.454613 0 0 1 0.0957,-0.367188 26.605859,8.7595603 24.724066 0 1 -3.539062,-7.326171 26.605859,8.7595603 24.724066 0 1 7.226562,-3.001954 26.605859,8.7595603 24.724066 0 1 2.382813,0.167969 26.605859,8.7595603 24.724066 0 1 17.05664,4.953125 26.605859,8.7595603 24.724066 0 1 16.279297,9.859375 26.605859,8.7595603 24.724066 0 1 5.71875,9.371094 26.605859,8.7595603 24.724066 0 1 -10.388672,2.740234 19.960585,19.454613 0 0 1 -0.002,0.002 19.960585,19.454613 0 0 1 -1.361328,1.421875 19.960585,19.454613 0 0 1 -1.416016,1.212891 A 34.222215,11.37704 25.134914 0 0 79.542923,58.412156 34.222215,11.37704 25.134914 0 0 66.255813,41.642625 34.222215,11.37704 25.134914 0 0 51.32222,33.369188 34.222215,11.37704 25.134914 0 0 37.09761,28.357469 34.222215,11.37704 25.134914 0 0 26.38472,26.701219 Z"
       transform="matrix(0.26458333,0,0,0.26458333,94.63028,114.4965)"
       id="path7836"
       inkscape:connector-curvature="0" />
  </g>
  <g
     inkscape:groupmode="layer"
     id="layer22"
     inkscape:label="text"
     transform="translate(-4.4914285,-3.3563684)">
    <g
       aria-label="THE LINEUP"
       transform="scale(0.99506788,1.0049566)"
       style="font-style:normal;font-variant:normal;font-weight:normal;font-stretch:normal;font-size:2.96211529px;line-height:1.25;font-family:impact;-inkscape-font-specification:impact;letter-spacing:0px;word-spacing:0px;fill:#f2f200;fill-opacity:1;stroke:#070707;stroke-width:0.1;stroke-miterlimit:4;stroke-dasharray:none;stroke-opacity:1"
       id="text7850"
       inkscape:path-effect="#path-effect7871">
      <path
         d="m 7.6617024,3.6670357 c 0.02043,0.195962 0.026955,0.3841623 0.028955,0.5569794 -0.094944,0.00308 -0.2661336,0.00839 -0.3610775,0.01147 7.298e-4,0.09013 -0.00551,1.8461872 -0.017188,1.971603 C 7.110403,6.1920457 6.9085754,6.1777354 6.7070325,6.1648849 6.7926381,5.5001042 6.7203037,4.9077716 6.725707,4.2565241 c -0.1112543,0.00416 -0.2457016,0.0093 -0.3576374,0.013268 0.0049,-0.1544569 0.00277,-0.3142968 -0.028969,-0.4656081 0.4819857,-0.069916 0.831049,-0.099069 1.3226021,-0.137148 z"
         style="font-style:normal;font-variant:normal;font-weight:normal;font-stretch:normal;font-family:impact;-inkscape-font-specification:impact;fill:#f2f200;fill-opacity:1;stroke:#070707;stroke-width:0.1;stroke-miterlimit:4;stroke-dasharray:none;stroke-opacity:1"
         id="path7852"
         inkscape:original-d="M 7.6767435,3.8070261 V 4.275642 H 7.3151572 V 6.1486592 H 6.7062458 V 4.275642 h -0.36014 V 3.8070261 Z"
         inkscape:connector-curvature="0" />
      <path
         d="m 9.2001157,3.5383032 c 0.041923,0.5277508 0.041064,2.3385434 0.00867,2.8154162 -0.2032055,-0.014903 -0.4046033,-0.030367 -0.6077072,-0.046262 0.031245,-0.3941854 0.024284,-0.8349161 0.023322,-1.1423344 0.00267,1.38e-5 -0.1850754,-9.254e-4 -0.1824097,-9.116e-4 0.00113,0.3046735 0.0091,0.7427902 -0.022737,1.1289488 C 8.3293559,6.286064 8.146338,6.2715406 8.056443,6.2644444 7.9682577,6.2575676 7.8994962,6.2521857 7.8113109,6.2453089 7.8358723,5.9547857 7.8355835,3.9950319 7.8007302,3.65618 c 0.081586,-0.00646 0.163815,-0.013188 0.2451756,-0.020459 0.1213083,-0.010847 0.2418613,-0.021529 0.3632446,-0.032092 0.035614,0.3632736 0.034298,0.7230111 0.033407,1.0075357 -0.02013,3.341e-4 0.2023523,-0.00335 0.1822226,-0.00302 5.817e-4,-0.2868966 0.0012,-0.6501459 -0.033528,-1.0202122 0.2033991,-0.017345 0.4052542,-0.033904 0.608864,-0.049633 z"
         style="font-style:normal;font-variant:normal;font-weight:normal;font-stretch:normal;font-family:impact;-inkscape-font-specification:impact;fill:#f2f200;fill-opacity:1;stroke:#070707;stroke-width:0.1;stroke-miterlimit:4;stroke-dasharray:none;stroke-opacity:1"
         id="path7854"
         inkscape:original-d="M 9.215655,3.8070261 V 6.1486592 H 8.6067436 V 5.1651444 H 8.4245041 V 6.1486592 H 7.8155927 V 3.8070261 h 0.6089114 v 0.837434 h 0.1822395 v -0.837434 z"
         inkscape:connector-curvature="0" />
      <path
         d="m 9.4432554,3.5199965 c 0.3401118,-0.024922 0.6763326,-0.046586 1.0169026,-0.064827 0.01221,0.245619 0.01778,0.4711739 0.02066,0.6722036 -0.134794,0.00347 -0.269269,0.00719 -0.4041,0.011167 0.003,0.1841075 0.0035,0.3708805 0.0037,0.5345111 -8.54e-4,8.4e-6 0.378889,-0.00351 0.378035,-0.0035 3e-6,0.00165 2.37e-4,0.5078053 2.34e-4,0.5061562 -0.01438,-7.53e-5 -0.363664,-0.00202 -0.378047,-0.00209 5.6e-5,0.1798679 1.64e-4,0.401784 -0.0022,0.602376 0.148187,0.00415 0.295965,0.00804 0.444094,0.011635 -0.0021,0.194957 -0.0063,0.4131006 -0.01635,0.6486769 -0.353162,-0.018301 -0.7020274,-0.040327 -1.0548167,-0.065145 0.0318,-0.5028785 0.032668,-2.2971531 -0.00812,-2.8511632 z"
         style="font-style:normal;font-variant:normal;font-weight:normal;font-stretch:normal;font-family:impact;-inkscape-font-specification:impact;fill:#f2f200;fill-opacity:1;stroke:#070707;stroke-width:0.1;stroke-miterlimit:4;stroke-dasharray:none;stroke-opacity:1"
         id="path7856"
         inkscape:original-d="m 9.458641,3.8070261 h 1.015334 V 4.275642 H 10.067552 V 4.71967 h 0.380389 v 0.4454744 h -0.380389 v 0.5148989 h 0.446921 V 6.1486592 H 9.458641 Z"
         inkscape:connector-curvature="0" />
      <path
         d="m 11.810487,3.4022978 c 0.01372,0.6784065 0.01194,1.9500606 0.0095,2.4077413 0.122628,0.00116 0.245079,0.00203 0.367663,0.0026 -6.89e-4,0.2024538 -0.002,0.4297903 -0.0048,0.6773764 -0.327329,-0.00351 -0.652461,-0.01126 -0.979673,-0.023015 0.01862,-0.6369895 0.0192,-2.3572181 -0.0036,-3.0455806 0.203647,-0.00767 0.40704,-0.014104 0.610854,-0.019124 z"
         style="font-style:normal;font-variant:normal;font-weight:normal;font-stretch:normal;font-family:impact;-inkscape-font-specification:impact;fill:#f2f200;fill-opacity:1;stroke:#070707;stroke-width:0.1;stroke-miterlimit:4;stroke-dasharray:none;stroke-opacity:1"
         id="path7858"
         inkscape:original-d="m 11.820523,3.8070261 v 1.8730172 h 0.370264 V 6.1486592 H 11.211611 V 3.8070261 Z"
         inkscape:connector-curvature="0" />
      <path
         d="m 12.943123,3.3900929 c -0.0038,0.6737336 -0.0041,2.4834703 -0.0018,3.1003781 -0.203268,0.00193 -0.406056,0.00222 -0.609327,8.47e-4 0.0057,-0.6844133 0.006,-2.3597421 -2.99e-4,-3.0986457 0.203927,-0.00247 0.407458,-0.00337 0.611419,-0.00258 z"
         style="font-style:normal;font-variant:normal;font-weight:normal;font-stretch:normal;font-family:impact;-inkscape-font-specification:impact;fill:#f2f200;fill-opacity:1;stroke:#070707;stroke-width:0.1;stroke-miterlimit:4;stroke-dasharray:none;stroke-opacity:1"
         id="path7860"
         inkscape:original-d="M 12.948672,3.8070261 V 6.1486592 H 12.339761 V 3.8070261 Z"
         inkscape:connector-curvature="0" />
      <path
         d="m 14.550172,3.4320589 c -0.02979,0.656569 -0.0296,2.4153135 -0.0071,3.0108854 -0.178017,0.00862 -0.355692,0.016218 -0.533768,0.022713 -0.133445,-0.6147551 -0.205618,-0.9105247 -0.325522,-1.3819005 -1.26e-4,0.3543193 -0.0011,0.8864174 0.0087,1.392252 -0.169877,0.00489 -0.33948,0.00871 -0.509387,0.011399 -0.0056,-0.6359402 -0.0053,-2.4019041 0.0026,-3.0955787 0.170503,0.00179 0.3407,0.00477 0.511156,0.00898 0.09968,0.5837241 0.213752,1.0201207 0.325408,1.4251371 2.91e-4,-0.361361 -9.9e-5,-0.8823323 0.01719,-1.4150286 0.170422,0.00585 0.34044,0.012897 0.510748,0.021143 z"
         style="font-style:normal;font-variant:normal;font-weight:normal;font-stretch:normal;font-family:impact;-inkscape-font-specification:impact;fill:#f2f200;fill-opacity:1;stroke:#070707;stroke-width:0.1;stroke-miterlimit:4;stroke-dasharray:none;stroke-opacity:1"
         id="path7862"
         inkscape:original-d="M 14.549777,3.8070261 V 6.1486592 H 14.016075 L 13.699325,5.084149 V 6.1486592 H 13.190212 V 3.8070261 h 0.509113 l 0.341338,1.0543858 V 3.8070261 Z"
         inkscape:connector-curvature="0" />
      <path
         d="m 14.793803,3.4446537 c 0.34059,0.018714 0.676944,0.041787 1.016843,0.068743 -0.01804,0.2319857 -0.02571,0.4471573 -0.02941,0.6401295 -0.134877,-0.00504 -0.269259,-0.00983 -0.404056,-0.014341 -0.0033,0.1831373 -0.0038,0.369486 -0.004,0.5322943 0.0055,6.42e-5 0.372879,0.00468 0.378347,0.00474 -3.21e-4,0.716521 6.6e-5,-0.2249838 -2.56e-4,0.4915372 -0.01584,7.46e-5 -0.362605,0.00177 -0.378447,0.00185 -1.8e-4,0.1776528 -5.6e-4,0.400214 0.0018,0.5976082 0.01871,-5.384e-4 0.425594,-0.012671 0.444306,-0.01321 0.0023,0.1853434 0.0077,0.3912055 0.02226,0.6107112 -0.352889,0.024739 -0.701962,0.047024 -1.055151,0.065864 -0.02498,-0.5801211 -0.02527,-2.3447962 0.0078,-2.9859235 z"
         style="font-style:normal;font-variant:normal;font-weight:normal;font-stretch:normal;font-family:impact;-inkscape-font-specification:impact;fill:#f2f200;fill-opacity:1;stroke:#070707;stroke-width:0.1;stroke-miterlimit:4;stroke-dasharray:none;stroke-opacity:1"
         id="path7864"
         inkscape:original-d="m 14.792762,3.8070261 h 1.015335 V 4.275642 H 15.401674 V 4.71967 h 0.380389 v 0.4454744 h -0.380389 v 0.5148989 h 0.446921 v 0.4686159 h -1.055833 z"
         inkscape:connector-curvature="0" />
      <path
         d="m 17.409584,3.6600146 c -0.04656,0.3998949 -0.02991,1.4350688 -0.03264,1.7173024 -0.0018,0.1819309 -0.0082,0.3264862 -0.01827,0.4033405 -0.01058,0.079746 -0.04264,0.1644027 -0.09491,0.2573637 -0.05225,0.091681 -0.121676,0.1677136 -0.210515,0.2249102 -0.0881,0.055974 -0.194441,0.091002 -0.320825,0.1015145 -0.140175,0.011659 -0.265662,-0.00959 -0.377659,-0.064709 -0.111523,-0.054884 -0.195941,-0.1307959 -0.252696,-0.2238934 -0.05667,-0.092958 -0.09028,-0.1893685 -0.101327,-0.2875849 -0.01182,-0.1061202 -0.01671,-0.297771 -0.01612,-0.5915531 7.28e-4,-0.360932 -0.01032,-1.1287381 0.03435,-1.6663493 0.203461,0.016979 0.405288,0.035002 0.608469,0.053937 -0.04488,0.4564425 -0.03679,1.7162473 -0.03598,2.012645 3.14e-4,0.1148234 0.0069,0.1913444 0.01809,0.224959 0.01217,0.03245 0.03515,0.048122 0.0688,0.04677 0.03847,-0.00155 0.06248,-0.020777 0.07243,-0.057007 0.01083,-0.037163 0.01537,-0.1236311 0.01537,-0.25239 -6e-6,-0.2877559 -0.0091,-1.5183544 0.03601,-1.9585107 0.204043,0.019429 0.403633,0.039085 0.607424,0.059255 z"
         style="font-style:normal;font-variant:normal;font-weight:normal;font-stretch:normal;font-family:impact;-inkscape-font-specification:impact;fill:#f2f200;fill-opacity:1;stroke:#070707;stroke-width:0.1;stroke-miterlimit:4;stroke-dasharray:none;stroke-opacity:1"
         id="path7866"
         inkscape:original-d="m 17.409201,3.8070261 v 1.5649457 q 0,0.2661275 -0.01736,0.3746034 -0.01736,0.1070296 -0.10269,0.2212909 -0.08534,0.1128149 -0.22563,0.1721151 -0.138849,0.057854 -0.328321,0.057854 -0.20972,0 -0.370264,-0.069425 Q 16.204392,6.0589852 16.124843,5.947617 16.045293,5.8362484 16.030833,5.7133091 16.016373,5.5889234 16.016373,5.1926247 V 3.8070261 h 0.608911 v 1.7558633 q 0,0.1533126 0.01591,0.1967029 0.01736,0.041944 0.06798,0.041944 0.05785,0 0.07376,-0.046283 0.01736,-0.047729 0.01736,-0.2227372 v -1.72549 z"
         inkscape:connector-curvature="0" />
      <path
         d="m 17.644574,3.6832773 c 0.202524,0.020021 0.408513,0.04023 0.610879,0.059187 0.164747,0.015433 0.290262,0.041294 0.374983,0.075561 0.08606,0.034497 0.149011,0.077839 0.189977,0.1301966 0.04193,0.052417 0.07016,0.113912 0.0852,0.1848883 0.01548,0.067693 0.02637,0.1807794 0.03151,0.3250114 0.0025,0.071088 0.0049,0.1330285 0.0072,0.2041016 0.0048,0.1498651 -0.0098,0.2582111 -0.04149,0.3269665 -0.03151,0.068437 -0.09048,0.1209397 -0.175673,0.1575646 -0.08419,0.036616 -0.194292,0.055047 -0.3295,0.055161 4.51e-4,-3e-7 -0.166448,1.726e-4 -0.165997,1.722e-4 -0.0038,0.2798825 -0.02239,0.6752639 0.01059,0.9846936 -0.202298,0.013481 -0.405451,0.028059 -0.607717,0.043085 C 17.60911,5.97648 17.60955,3.9720575 17.644574,3.6832773 Z m 0.579014,0.4969974 c -0.0019,0.1814165 0.0057,0.4448213 0.0081,0.6161067 0.01762,0.00111 0.0328,0.00171 0.04552,0.00181 0.05676,4.12e-4 0.0958,-0.012979 0.116868,-0.040081 0.02209,-0.028148 0.03215,-0.085846 0.03004,-0.1741039 -0.0015,-0.063818 -0.0032,-0.1321666 -0.0044,-0.1967817 -0.0015,-0.082347 -0.01432,-0.1370408 -0.03946,-0.1630583 -0.02515,-0.026028 -0.07734,-0.040744 -0.156632,-0.043888 0,0 -1.3e-5,0 -1.3e-5,0 z"
         style="font-style:normal;font-variant:normal;font-weight:normal;font-stretch:normal;font-family:impact;-inkscape-font-specification:impact;fill:#f2f200;fill-opacity:1;stroke:#070707;stroke-width:0.1;stroke-miterlimit:4;stroke-dasharray:none;stroke-opacity:1"
         id="path7868"
         inkscape:original-d="m 17.644955,3.8070261 h 0.613251 q 0.248771,0 0.381835,0.039051 0.13451,0.039051 0.201042,0.112815 0.06798,0.073764 0.09112,0.1793468 0.02459,0.1041369 0.02459,0.3239813 v 0.2039347 q 0,0.2241836 -0.04628,0.3268741 -0.04628,0.1026905 -0.170668,0.1576516 -0.12294,0.054961 -0.322535,0.054961 h -0.163437 v 0.9430171 h -0.608912 z m 0.608912,0.4006377 V 4.803558 q 0.02603,0.00145 0.04484,0.00145 0.08389,0 0.115708,-0.040498 0.03327,-0.041944 0.03327,-0.1721151 V 4.4000277 q 0,-0.1200467 -0.0376,-0.1562053 -0.0376,-0.036159 -0.156205,-0.036159 z"
         inkscape:connector-curvature="0" />
    </g>
  </g>
</svg>
